<svg width="418" height="419" viewBox="0 0 418 419" fill="none" xmlns="http://www.w3.org/2000/svg">
<rect x="20" y="354" width="65" height="65" rx="10" fill="#62B5FF" fill-opacity="0.2"/>
<rect x="353" y="204" width="65" height="65" rx="10" fill="#7858FB" fill-opacity="0.2"/>
<rect x="295" y="57" width="65" height="65" rx="10" fill="#736CFC" fill-opacity="0.2"/>
<rect x="20" y="20" width="65" height="65" rx="10" fill="#62B5FF" fill-opacity="0.2"/>
<path d="M244.037 152.505C242.859 150.541 240.633 149.363 238.276 149.363H155.011V72.7835C155.011 69.7726 152.916 67.1545 149.905 66.3691C146.893 65.7146 143.882 67.0236 142.573 69.7726L57.998 239.033C56.9507 241.128 57.0816 243.615 58.2599 245.579C59.4382 247.542 61.6638 248.72 64.0204 248.72H147.286V324.646C147.286 327.787 149.381 330.405 152.392 331.191C152.916 331.322 153.439 331.322 153.963 331.322C156.451 331.322 158.676 330.013 159.855 327.656L244.299 158.919C245.346 156.825 245.215 154.469 244.037 152.505ZM155.011 319.802V247.542C155.011 243.877 151.999 240.866 148.334 240.866H65.8533L147.155 78.1506V150.41C147.155 154.076 150.166 157.087 153.832 157.087H236.313L155.011 319.802ZM139.169 292.836C139.169 295.061 137.467 296.763 135.241 296.763H103.951C94.525 296.763 86.9316 289.17 86.9316 279.745V260.633C86.9316 258.407 88.6336 256.706 90.8592 256.706C93.0849 256.706 94.7868 258.407 94.7868 260.633V279.745C94.7868 284.85 98.8454 288.908 103.951 288.908H135.241C137.336 288.908 139.169 290.61 139.169 292.836ZM215.365 240.212V279.745C215.365 289.17 207.772 296.763 198.345 296.763H188.264C186.039 296.763 184.337 295.061 184.337 292.836C184.337 290.61 186.039 288.908 188.264 288.908H198.345C203.451 288.908 207.51 284.85 207.51 279.745V240.212C207.51 237.986 209.212 236.284 211.438 236.284C213.663 236.284 215.365 237.986 215.365 240.212ZM162.866 105.248C162.866 103.023 164.568 101.321 166.793 101.321H198.345C207.772 101.321 215.365 108.913 215.365 118.339V137.32C215.365 139.545 213.663 141.247 211.438 141.247C209.212 141.247 207.51 139.545 207.51 137.32V118.339C207.51 113.233 203.451 109.175 198.345 109.175H166.793C164.699 109.175 162.866 107.473 162.866 105.248ZM86.8007 158.003V118.339C86.8007 108.913 94.3941 101.321 103.82 101.321H114.032C116.258 101.321 117.96 103.023 117.96 105.248C117.96 107.473 116.258 109.175 114.032 109.175H103.82C98.7145 109.175 94.6559 113.233 94.6559 118.339V158.003C94.6559 160.228 92.954 161.93 90.7283 161.93C88.5026 161.93 86.8007 160.228 86.8007 158.003ZM17.0197 65.4528H48.4408C57.8671 65.4528 65.4605 57.8602 65.4605 48.435V17.0177C65.4605 7.59252 57.8671 0 48.4408 0H17.0197C7.59342 0 0 7.59252 0 17.0177V48.435C0 57.8602 7.59342 65.4528 17.0197 65.4528ZM7.85526 17.0177C7.85526 11.9124 11.9138 7.85433 17.0197 7.85433H48.4408C53.5467 7.85433 57.6053 11.9124 57.6053 17.0177V48.435C57.6053 53.5404 53.5467 57.5984 48.4408 57.5984H17.0197C11.9138 57.5984 7.85526 53.5404 7.85526 48.435V17.0177ZM291.954 102.106H323.375C332.801 102.106 340.395 94.5138 340.395 85.0886V53.6713C340.395 44.2461 332.801 36.6535 323.375 36.6535H291.954C282.528 36.6535 274.934 44.2461 274.934 53.6713V85.0886C274.934 94.5138 282.528 102.106 291.954 102.106ZM282.789 53.6713C282.789 48.5659 286.848 44.5079 291.954 44.5079H323.375C328.481 44.5079 332.539 48.5659 332.539 53.6713V85.0886C332.539 90.1939 328.481 94.252 323.375 94.252H291.954C286.848 94.252 282.789 90.1939 282.789 85.0886V53.6713ZM380.98 183.791H349.559C340.133 183.791 332.539 191.384 332.539 200.809V232.226C332.539 241.652 340.133 249.244 349.559 249.244H380.98C390.407 249.244 398 241.652 398 232.226V200.809C398 191.515 390.407 183.791 380.98 183.791ZM390.145 232.226C390.145 237.332 386.086 241.39 380.98 241.39H349.559C344.453 241.39 340.395 237.332 340.395 232.226V200.809C340.395 195.704 344.453 191.646 349.559 191.646H380.98C386.086 191.646 390.145 195.704 390.145 200.809V232.226ZM48.4408 333.547H17.0197C7.59342 333.547 0 341.14 0 350.565V381.982C0 391.407 7.59342 399 17.0197 399H48.4408C57.8671 399 65.4605 391.407 65.4605 381.982V350.565C65.4605 341.271 57.8671 333.547 48.4408 333.547ZM57.6053 381.982C57.6053 387.088 53.5467 391.146 48.4408 391.146H17.0197C11.9138 391.146 7.85526 387.088 7.85526 381.982V350.565C7.85526 345.46 11.9138 341.402 17.0197 341.402H48.4408C53.5467 341.402 57.6053 345.46 57.6053 350.565V381.982ZM78.9454 269.011C78.9454 271.236 77.2434 272.938 75.0178 272.938H45.8224C40.7164 272.938 36.6579 276.996 36.6579 282.101V321.766C36.6579 323.991 34.9559 325.693 32.7303 325.693C30.5046 325.693 28.8026 323.991 28.8026 321.766V282.101C28.8026 272.676 36.3961 265.084 45.8224 265.084H75.0178C77.1125 265.084 78.9454 266.916 78.9454 269.011ZM45.8224 150.28H75.0178C77.2434 150.28 78.9454 151.981 78.9454 154.207C78.9454 156.432 77.2434 158.134 75.0178 158.134H45.8224C36.3961 158.134 28.8026 150.541 28.8026 141.116V77.1033C28.8026 74.8779 30.5046 73.1762 32.7303 73.1762C34.9559 73.1762 36.6579 74.8779 36.6579 77.1033V141.116C36.6579 146.221 40.7164 150.28 45.8224 150.28ZM223.22 132.215C223.22 129.989 224.922 128.287 227.148 128.287H294.572C299.678 128.287 303.737 124.229 303.737 119.124V113.888C303.737 111.662 305.439 109.961 307.664 109.961C309.89 109.961 311.592 111.662 311.592 113.888V119.124C311.592 128.549 303.999 136.142 294.572 136.142H227.148C225.053 136.142 223.22 134.44 223.22 132.215ZM324.553 216.518C324.553 218.743 322.851 220.445 320.626 220.445H227.148C224.922 220.445 223.22 218.743 223.22 216.518C223.22 214.292 224.922 212.591 227.148 212.591H320.495C322.72 212.591 324.553 214.423 324.553 216.518Z" fill="url(#paint0_linear)"/>
<defs>
<linearGradient id="paint0_linear" x1="-144.5" y1="199.548" x2="397.98" y2="199.548" gradientUnits="userSpaceOnUse">
<stop stop-color="#62B6FF"/>
<stop offset="1" stop-color="#7857FB"/>
</linearGradient>
</defs>
</svg>
