<svg width="592" height="266" viewBox="0 0 592 266" fill="none" xmlns="http://www.w3.org/2000/svg">
<circle cx="450.435" cy="73.181" r="16.4198" fill="#7469FC" fill-opacity="0.2"/>
<rect x="481.943" y="56.7612" width="75.4423" height="32.8396" rx="16.4198" fill="#7469FC" fill-opacity="0.2"/>
<rect x="343.484" y="56.7612" width="75.4423" height="32.8396" rx="16.4198" fill="#7469FC" fill-opacity="0.2"/>
<circle cx="485.049" cy="171.7" r="16.4198" fill="#7469FC" fill-opacity="0.2"/>
<circle cx="519.664" cy="122.884" r="16.4198" fill="#FF0000" fill-opacity="0.2"/>
<rect x="516.558" y="155.28" width="75.4423" height="32.8396" rx="16.4198" fill="#7469FC" fill-opacity="0.2"/>
<rect x="377.212" y="106.464" width="110.945" height="32.8396" rx="16.4198" fill="#FF0000" fill-opacity="0.2"/>
<rect x="342.597" y="155.28" width="110.945" height="32.8396" rx="16.4198" fill="#7469FC" fill-opacity="0.2"/>
<circle cx="159.76" cy="124.215" r="42.6027" fill="#8AA2F7" fill-opacity="0.18"/>
<path d="M141.933 148.506C117.93 148.506 98.3909 128.967 98.3909 104.964C98.3909 80.9614 117.93 61.4221 141.933 61.4221C165.936 61.4221 185.475 80.9614 185.475 104.964C185.475 128.967 166.035 148.506 141.933 148.506ZM141.933 67.3732C121.203 67.3732 104.342 84.2345 104.342 104.964C104.342 125.694 121.203 142.555 141.933 142.555C162.662 142.555 179.524 125.694 179.524 104.964C179.524 84.2345 162.762 67.3732 141.933 67.3732ZM460.216 124.999H382.554C374.322 124.999 367.181 119.048 366.189 110.816C365.098 101.195 372.636 92.9627 382.058 92.9627H459.72C467.952 92.9627 475.093 98.9138 476.085 107.146C477.176 116.866 469.638 124.999 460.216 124.999ZM382.058 99.013C376.008 99.013 371.148 104.468 372.14 110.717C372.933 115.577 377.397 119.048 382.356 119.048H459.918C464.877 119.048 469.241 115.577 470.134 110.717C471.126 104.468 466.365 99.013 460.216 99.013H382.058ZM529.645 76.1014H486.698C478.466 76.1014 471.324 70.1503 470.332 61.918C469.241 52.2971 476.779 44.0648 486.202 44.0648H529.149C537.381 44.0648 544.522 50.0159 545.514 58.2482C546.605 67.8691 539.067 76.1014 529.645 76.1014ZM486.202 50.0159C480.152 50.0159 475.292 55.471 476.284 61.7196C477.077 66.5797 481.54 70.0511 486.5 70.0511H529.347C534.306 70.0511 538.671 66.5797 539.563 61.7196C540.555 55.471 535.794 50.0159 529.645 50.0159H486.202ZM441.371 159.912C442.462 150.291 434.924 142.059 425.501 142.059H358.651C356.965 142.059 355.675 143.348 355.675 145.035C355.675 146.721 356.965 148.01 358.651 148.01H425.501C431.551 148.01 436.411 153.465 435.42 159.714C434.626 164.574 430.163 168.045 425.204 168.045H358.651C356.965 168.045 355.675 169.335 355.675 171.021C355.675 172.707 356.965 173.996 358.651 173.996H425.005C433.237 173.996 440.478 168.045 441.371 159.912ZM440.577 75.903C430.163 77.1924 421.335 68.365 422.625 57.9506C423.517 50.8094 429.27 45.0567 436.411 44.164C446.826 42.8746 455.653 51.702 454.364 62.1164C453.471 69.2577 447.718 75.0104 440.577 75.903ZM440.18 50.2143C433.337 49.1232 427.485 54.9751 428.576 61.8188C429.27 65.9846 432.642 69.3568 436.808 70.0511C443.652 71.1422 449.504 65.2903 448.413 58.4466C447.718 54.1816 444.346 50.8094 440.18 50.2143ZM510.006 124.9C499.592 126.19 490.764 117.362 492.054 106.948C492.946 99.8065 498.699 94.0538 505.84 93.1611C516.255 91.8717 525.082 100.699 523.793 111.113C522.9 118.255 517.148 124.007 510.006 124.9ZM509.609 99.1122C502.766 98.0211 496.914 103.873 498.005 110.717C498.699 114.882 502.071 118.255 506.237 118.949C513.081 120.04 518.933 114.188 517.842 107.344C517.147 103.179 513.775 99.8065 509.609 99.1122ZM475.292 173.897C464.877 175.187 456.05 166.359 457.339 155.945C458.232 148.804 463.985 143.051 471.126 142.158C481.54 140.869 490.368 149.696 489.078 160.111C488.186 167.252 482.433 173.005 475.292 173.897ZM474.895 148.109C468.051 147.018 462.199 152.87 463.29 159.714C463.985 163.88 467.357 167.252 471.523 167.946C478.366 169.037 484.218 163.185 483.127 156.342C482.433 152.176 479.061 148.804 474.895 148.109ZM564.359 173.996H521.412C513.18 173.996 506.039 168.045 505.047 159.813C503.956 150.192 511.494 141.96 520.917 141.96H563.863C572.096 141.96 579.237 147.911 580.229 156.143C581.32 165.764 573.782 173.996 564.359 173.996ZM520.917 148.01C514.866 148.01 510.006 153.465 510.998 159.714C511.792 164.574 516.255 168.045 521.214 168.045H564.062C569.021 168.045 573.385 164.574 574.278 159.714C575.27 153.465 570.509 148.01 564.359 148.01H520.917ZM81.1328 104.964C81.1328 103.08 79.5459 101.493 77.6614 101.493H3.47145C1.58695 101.493 0 103.08 0 104.964C0 106.849 1.58695 108.436 3.47145 108.436H77.6614C79.5459 108.436 81.1328 106.948 81.1328 104.964ZM92.6382 84.7304C92.6382 82.8459 91.0513 81.259 89.1668 81.259H55.5433C53.6588 81.259 52.0718 82.8459 52.0718 84.7304C52.0718 86.6149 53.6588 88.2019 55.5433 88.2019H89.1668C91.1505 88.2019 92.6382 86.6149 92.6382 84.7304ZM92.6382 125.297C92.6382 123.412 91.0513 121.825 89.1668 121.825H14.9768C13.0923 121.825 11.5054 123.412 11.5054 125.297C11.5054 127.181 13.0923 128.768 14.9768 128.768H89.1668C91.1505 128.768 92.6382 127.181 92.6382 125.297ZM406.656 59.8351C407.747 50.2143 400.209 41.9819 390.787 41.9819H358.651C356.965 41.9819 355.675 43.2713 355.675 44.9575C355.675 46.6436 356.965 47.933 358.651 47.933H390.787C396.837 47.933 401.697 53.3882 400.705 59.6368C399.912 64.4968 395.448 67.9683 390.489 67.9683H358.651C356.965 67.9683 355.675 69.2577 355.675 70.9438C355.675 72.6299 356.965 73.9193 358.651 73.9193H390.291C398.523 73.9193 405.763 67.9683 406.656 59.8351ZM331.573 18.0785L247.465 1.21716C244.787 0.721234 242.109 0.721234 239.431 1.21716L155.323 18.0785C145.801 19.963 138.957 28.3937 138.957 38.0146V51.0077C138.957 52.6939 140.247 53.9833 141.933 53.9833C143.619 53.9833 144.908 52.6939 144.908 51.0077V38.0146C144.908 31.1708 149.768 25.2198 156.513 23.8312L240.423 7.06904V259.097C238.241 258.601 236.257 257.708 234.373 256.22L150.264 188.973C146.793 186.196 144.809 182.13 144.809 177.666V158.821C144.809 157.135 143.52 155.846 141.834 155.846C140.148 155.846 138.858 157.135 138.858 158.821V177.666C138.858 183.915 141.635 189.668 146.495 193.536L230.604 260.783C234.373 263.758 238.836 265.246 243.299 265.246C247.763 265.246 252.325 263.758 255.995 260.783L340.103 193.536C344.963 189.668 347.741 183.816 347.741 177.666V38.0146C347.939 28.3937 340.996 19.963 331.573 18.0785ZM341.988 177.765C341.988 182.13 340.004 186.295 336.533 189.072L252.424 256.319C250.639 257.807 248.556 258.7 246.374 259.196V7.16822L330.284 23.9304C337.029 25.319 341.889 31.1708 341.889 38.1138V177.765H341.988Z" fill="url(#paint0_linear)"/>
<defs>
<linearGradient id="paint0_linear" x1="-0.100077" y1="133.177" x2="580.321" y2="133.177" gradientUnits="userSpaceOnUse">
<stop stop-color="#689CFE"/>
<stop offset="1" stop-color="#7858FB"/>
</linearGradient>
</defs>
</svg>
