<svg width="204" height="54" viewBox="0 0 204 54" fill="none" xmlns="http://www.w3.org/2000/svg">
<path d="M70.974 21.856C71.9127 21.856 72.7707 22.0393 73.548 22.406C74.3253 22.7727 75 23.3153 75.572 24.034C75.6747 24.1807 75.726 24.3053 75.726 24.408C75.726 24.6133 75.6233 24.7747 75.418 24.892C75.3153 24.98 75.198 25.024 75.066 25.024C74.8607 25.024 74.692 24.936 74.56 24.76C73.6213 23.6453 72.426 23.088 70.974 23.088C70.1233 23.088 69.368 23.3007 68.708 23.726C68.048 24.1367 67.5347 24.716 67.168 25.464C66.816 26.212 66.64 27.0553 66.64 27.994C66.64 28.918 66.838 29.754 67.234 30.502C67.63 31.25 68.18 31.8367 68.884 32.262C69.588 32.6873 70.3947 32.9 71.304 32.9C72.5947 32.9 73.6287 32.5407 74.406 31.822C74.538 31.69 74.692 31.624 74.868 31.624C75.0293 31.624 75.1613 31.6753 75.264 31.778C75.4107 31.91 75.484 32.0713 75.484 32.262C75.484 32.4233 75.4253 32.5553 75.308 32.658C74.7947 33.1273 74.1933 33.494 73.504 33.758C72.8147 34.0073 72.0813 34.132 71.304 34.132C70.1747 34.132 69.1553 33.868 68.246 33.34C67.3367 32.7973 66.618 32.0567 66.09 31.118C65.5767 30.1793 65.32 29.138 65.32 27.994C65.32 26.8353 65.562 25.794 66.046 24.87C66.53 23.9313 67.2047 23.198 68.07 22.67C68.9353 22.1273 69.9033 21.856 70.974 21.856ZM84.521 21.834C85.665 21.834 86.7063 22.1053 87.645 22.648C88.5837 23.176 89.317 23.9093 89.845 24.848C90.3877 25.7867 90.659 26.8353 90.659 27.994C90.659 29.138 90.3877 30.1793 89.845 31.118C89.317 32.0567 88.5837 32.7973 87.645 33.34C86.7063 33.868 85.665 34.132 84.521 34.132C83.3623 34.132 82.3137 33.868 81.375 33.34C80.4363 32.7973 79.6957 32.0567 79.153 31.118C78.625 30.1793 78.361 29.138 78.361 27.994C78.361 26.8353 78.625 25.7867 79.153 24.848C79.6957 23.9093 80.4363 23.176 81.375 22.648C82.3137 22.1053 83.3623 21.834 84.521 21.834ZM84.521 23.066C83.6117 23.066 82.7903 23.286 82.057 23.726C81.3237 24.1513 80.7443 24.738 80.319 25.486C79.8937 26.234 79.681 27.07 79.681 27.994C79.681 28.918 79.8937 29.754 80.319 30.502C80.7443 31.25 81.3237 31.8367 82.057 32.262C82.7903 32.6873 83.6117 32.9 84.521 32.9C85.4303 32.9 86.2517 32.6873 86.985 32.262C87.7183 31.8367 88.2903 31.25 88.701 30.502C89.1263 29.754 89.339 28.918 89.339 27.994C89.339 27.07 89.1263 26.234 88.701 25.486C88.2903 24.738 87.7183 24.1513 86.985 23.726C86.2517 23.286 85.4303 23.066 84.521 23.066ZM104.931 16.818C105.136 16.818 105.297 16.8767 105.415 16.994C105.532 17.1113 105.591 17.2727 105.591 17.478V28.06V28.104C105.576 29.2333 105.297 30.26 104.755 31.184C104.212 32.108 103.471 32.834 102.533 33.362C101.609 33.8753 100.582 34.132 99.4527 34.132C98.294 34.132 97.2453 33.868 96.3067 33.34C95.368 32.7973 94.6273 32.0567 94.0847 31.118C93.5567 30.1793 93.2927 29.1307 93.2927 27.972C93.2927 26.828 93.5567 25.7867 94.0847 24.848C94.6273 23.9093 95.368 23.176 96.3067 22.648C97.2453 22.1053 98.294 21.834 99.4527 21.834C100.494 21.834 101.433 22.0613 102.269 22.516C103.119 22.956 103.787 23.5647 104.271 24.342V17.478C104.271 17.2727 104.329 17.1113 104.447 16.994C104.579 16.8767 104.74 16.818 104.931 16.818ZM99.4527 32.9C100.362 32.9 101.183 32.6873 101.917 32.262C102.65 31.822 103.222 31.228 103.633 30.48C104.058 29.732 104.271 28.896 104.271 27.972C104.271 27.048 104.058 26.212 103.633 25.464C103.222 24.716 102.65 24.1293 101.917 23.704C101.183 23.2787 100.362 23.066 99.4527 23.066C98.5433 23.066 97.722 23.2787 96.9887 23.704C96.2553 24.1293 95.676 24.716 95.2507 25.464C94.8253 26.212 94.6127 27.048 94.6127 27.972C94.6127 28.896 94.8253 29.732 95.2507 30.48C95.676 31.228 96.2553 31.822 96.9887 32.262C97.722 32.6873 98.5433 32.9 99.4527 32.9ZM114.544 21.856C115.615 21.856 116.568 22.1127 117.404 22.626C118.255 23.1247 118.915 23.8213 119.384 24.716C119.854 25.6107 120.088 26.63 120.088 27.774C120.088 27.9647 120.03 28.1187 119.912 28.236C119.795 28.3387 119.641 28.39 119.45 28.39H110.232C110.276 29.2553 110.504 30.0327 110.914 30.722C111.325 31.3967 111.875 31.9247 112.564 32.306C113.254 32.6873 114.024 32.878 114.874 32.878C115.446 32.878 116.018 32.7827 116.59 32.592C117.177 32.3867 117.639 32.1227 117.976 31.8C118.123 31.6827 118.277 31.624 118.438 31.624C118.6 31.624 118.732 31.668 118.834 31.756C118.996 31.888 119.076 32.042 119.076 32.218C119.076 32.3647 119.01 32.504 118.878 32.636C118.409 33.0613 117.793 33.4133 117.03 33.692C116.282 33.9707 115.564 34.11 114.874 34.11C113.716 34.11 112.682 33.8533 111.772 33.34C110.878 32.812 110.174 32.086 109.66 31.162C109.147 30.2233 108.89 29.1673 108.89 27.994C108.89 26.806 109.125 25.75 109.594 24.826C110.078 23.8873 110.746 23.1613 111.596 22.648C112.462 22.12 113.444 21.856 114.544 21.856ZM114.544 23.088C113.4 23.088 112.432 23.4693 111.64 24.232C110.863 24.9947 110.401 25.9993 110.254 27.246H118.812C118.71 25.9993 118.27 24.9947 117.492 24.232C116.715 23.4693 115.732 23.088 114.544 23.088ZM128.303 21.878C130.033 21.878 131.471 22.538 132.615 23.858C132.761 24.0193 132.835 24.21 132.835 24.43C132.835 24.7527 132.673 25.024 132.351 25.244C132.204 25.3467 132.035 25.398 131.845 25.398C131.507 25.398 131.221 25.266 130.987 25.002C130.62 24.606 130.217 24.32 129.777 24.144C129.351 23.9533 128.86 23.858 128.303 23.858C127.173 23.858 126.257 24.2393 125.553 25.002C124.849 25.75 124.497 26.7473 124.497 27.994C124.497 28.786 124.658 29.4973 124.981 30.128C125.318 30.744 125.78 31.228 126.367 31.58C126.968 31.932 127.65 32.108 128.413 32.108C129.41 32.108 130.217 31.8513 130.833 31.338C131.111 31.1327 131.383 31.03 131.647 31.03C131.852 31.03 132.043 31.096 132.219 31.228C132.497 31.4627 132.637 31.7267 132.637 32.02C132.637 32.24 132.549 32.438 132.373 32.614C131.317 33.5967 129.997 34.088 128.413 34.088C127.254 34.088 126.213 33.824 125.289 33.296C124.365 32.768 123.639 32.042 123.111 31.118C122.597 30.1793 122.341 29.138 122.341 27.994C122.341 26.8207 122.59 25.772 123.089 24.848C123.602 23.9093 124.313 23.1833 125.223 22.67C126.132 22.142 127.159 21.878 128.303 21.878ZM142.153 21.856C143.165 21.856 144.075 22.076 144.881 22.516C145.688 22.956 146.319 23.6013 146.773 24.452C147.228 25.288 147.455 26.3 147.455 27.488V32.9C147.455 33.2227 147.345 33.494 147.125 33.714C146.92 33.9193 146.656 34.022 146.333 34.022C146.011 34.022 145.739 33.9193 145.519 33.714C145.314 33.494 145.211 33.2227 145.211 32.9V27.488C145.211 26.3 144.889 25.4053 144.243 24.804C143.613 24.188 142.769 23.88 141.713 23.88C141.097 23.88 140.533 24.0047 140.019 24.254C139.521 24.5033 139.125 24.8407 138.831 25.266C138.553 25.6913 138.413 26.168 138.413 26.696V32.9C138.413 33.2227 138.311 33.494 138.105 33.714C137.9 33.9193 137.629 34.022 137.291 34.022C136.969 34.022 136.697 33.9193 136.477 33.714C136.272 33.494 136.169 33.2227 136.169 32.9V17.94C136.169 17.6027 136.272 17.3313 136.477 17.126C136.697 16.9207 136.969 16.818 137.291 16.818C137.629 16.818 137.9 16.9207 138.105 17.126C138.311 17.3313 138.413 17.6027 138.413 17.94V23.33C138.883 22.8607 139.44 22.5013 140.085 22.252C140.731 21.988 141.42 21.856 142.153 21.856ZM161.989 27.796C161.989 28.0747 161.894 28.3093 161.703 28.5C161.512 28.676 161.27 28.764 160.977 28.764H152.617C152.778 29.7907 153.24 30.6193 154.003 31.25C154.78 31.8807 155.726 32.196 156.841 32.196C157.281 32.196 157.736 32.1153 158.205 31.954C158.689 31.7927 159.085 31.5947 159.393 31.36C159.598 31.1987 159.84 31.118 160.119 31.118C160.398 31.118 160.618 31.1913 160.779 31.338C161.043 31.558 161.175 31.8073 161.175 32.086C161.175 32.35 161.058 32.57 160.823 32.746C160.324 33.142 159.701 33.4647 158.953 33.714C158.22 33.9633 157.516 34.088 156.841 34.088C155.638 34.088 154.56 33.8313 153.607 33.318C152.654 32.79 151.906 32.064 151.363 31.14C150.835 30.216 150.571 29.1673 150.571 27.994C150.571 26.8207 150.82 25.772 151.319 24.848C151.832 23.9093 152.536 23.1833 153.431 22.67C154.34 22.142 155.367 21.878 156.511 21.878C157.64 21.878 158.616 22.1273 159.437 22.626C160.258 23.1247 160.889 23.8213 161.329 24.716C161.769 25.6107 161.989 26.6373 161.989 27.796ZM156.511 23.77C155.44 23.77 154.568 24.0633 153.893 24.65C153.233 25.2367 152.815 26.0213 152.639 27.004H159.965C159.833 26.0213 159.466 25.2367 158.865 24.65C158.264 24.0633 157.479 23.77 156.511 23.77ZM169.767 21.878C171.498 21.878 172.935 22.538 174.079 23.858C174.226 24.0193 174.299 24.21 174.299 24.43C174.299 24.7527 174.138 25.024 173.815 25.244C173.669 25.3467 173.5 25.398 173.309 25.398C172.972 25.398 172.686 25.266 172.451 25.002C172.085 24.606 171.681 24.32 171.241 24.144C170.816 23.9533 170.325 23.858 169.767 23.858C168.638 23.858 167.721 24.2393 167.017 25.002C166.313 25.75 165.961 26.7473 165.961 27.994C165.961 28.786 166.123 29.4973 166.445 30.128C166.783 30.744 167.245 31.228 167.831 31.58C168.433 31.932 169.115 32.108 169.877 32.108C170.875 32.108 171.681 31.8513 172.297 31.338C172.576 31.1327 172.847 31.03 173.111 31.03C173.317 31.03 173.507 31.096 173.683 31.228C173.962 31.4627 174.101 31.7267 174.101 32.02C174.101 32.24 174.013 32.438 173.837 32.614C172.781 33.5967 171.461 34.088 169.877 34.088C168.719 34.088 167.677 33.824 166.753 33.296C165.829 32.768 165.103 32.042 164.575 31.118C164.062 30.1793 163.805 29.138 163.805 27.994C163.805 26.8207 164.055 25.772 164.553 24.848C165.067 23.9093 165.778 23.1833 166.687 22.67C167.597 22.142 168.623 21.878 169.767 21.878ZM186.72 32.416C186.882 32.592 186.962 32.812 186.962 33.076C186.962 33.3987 186.83 33.67 186.566 33.89C186.346 34.066 186.112 34.154 185.862 34.154C185.54 34.154 185.276 34.022 185.07 33.758L180.89 28.588L179.79 29.556V32.922C179.79 33.2447 179.688 33.5087 179.482 33.714C179.292 33.9047 179.035 34 178.712 34C178.39 34 178.126 33.9047 177.92 33.714C177.73 33.5087 177.634 33.2447 177.634 32.922V17.896C177.634 17.5733 177.73 17.3167 177.92 17.126C178.126 16.9207 178.39 16.818 178.712 16.818C179.035 16.818 179.292 16.9207 179.482 17.126C179.688 17.3167 179.79 17.5733 179.79 17.896V26.85L185.136 22.076C185.327 21.8853 185.554 21.79 185.818 21.79C186.126 21.79 186.376 21.9073 186.566 22.142C186.757 22.3327 186.852 22.56 186.852 22.824C186.852 23.132 186.735 23.3813 186.5 23.572L182.452 27.18L186.72 32.416ZM194.384 21.878C195.337 21.878 196.188 22.032 196.936 22.34C197.698 22.648 198.3 23.0733 198.74 23.616C198.93 23.8507 199.026 24.0853 199.026 24.32C199.026 24.5693 198.901 24.7967 198.652 25.002C198.49 25.1193 198.285 25.178 198.036 25.178C197.654 25.178 197.31 25.0387 197.002 24.76C196.635 24.4227 196.246 24.188 195.836 24.056C195.425 23.9093 194.926 23.836 194.34 23.836C193.665 23.836 193.108 23.9533 192.668 24.188C192.242 24.408 192.03 24.7233 192.03 25.134C192.03 25.4273 192.103 25.6767 192.25 25.882C192.396 26.0727 192.675 26.256 193.086 26.432C193.496 26.5933 194.09 26.7547 194.868 26.916C196.466 27.2387 197.596 27.686 198.256 28.258C198.93 28.83 199.268 29.5707 199.268 30.48C199.268 31.1547 199.084 31.7707 198.718 32.328C198.351 32.8707 197.808 33.3033 197.09 33.626C196.386 33.934 195.535 34.088 194.538 34.088C193.54 34.088 192.602 33.934 191.722 33.626C190.842 33.318 190.152 32.9147 189.654 32.416C189.463 32.2253 189.368 31.998 189.368 31.734C189.368 31.382 189.514 31.096 189.808 30.876C190.086 30.6707 190.343 30.568 190.578 30.568C190.871 30.568 191.15 30.7 191.414 30.964C191.692 31.272 192.11 31.5433 192.668 31.778C193.225 31.998 193.819 32.108 194.45 32.108C195.286 32.108 195.931 31.9687 196.386 31.69C196.855 31.4113 197.09 31.0373 197.09 30.568C197.09 30.1133 196.862 29.7393 196.408 29.446C195.953 29.138 195.183 28.8813 194.098 28.676C191.282 28.1333 189.874 26.9747 189.874 25.2C189.874 24.4813 190.086 23.8727 190.512 23.374C190.937 22.8753 191.494 22.5013 192.184 22.252C192.873 22.0027 193.606 21.878 194.384 21.878Z" fill="black"/>
<path d="M52.1862 4.13965C51.5272 4.13965 50.9152 4.4927 50.6093 5.08113L48.8911 8.23508C48.4203 9.10595 48.7498 10.2122 49.6207 10.6829C50.4916 11.1537 51.5978 10.8242 52.0686 9.95328L53.7867 6.79933C54.4222 5.62248 53.5514 4.13965 52.1862 4.13965Z" fill="#7857FB"/>
<path d="M44.4438 20.2392C43.5729 19.7685 42.4667 20.098 41.996 20.9688L40.2778 24.1228C39.807 24.9937 40.1366 26.0999 41.0074 26.5707C41.8783 27.0414 42.9845 26.7119 43.4553 25.841L45.1735 22.687C45.6442 21.7926 45.3147 20.7099 44.4438 20.2392Z" fill="#7857FB"/>
<path d="M42.3268 10.7299C41.456 10.2592 40.3497 10.5887 39.879 11.4596L28.0399 33.2784C27.6633 33.9845 27.781 34.9024 28.393 35.4673C29.3109 36.3382 30.629 36.0557 31.2174 34.9495L43.033 13.1542C43.5272 12.2834 43.1977 11.2007 42.3268 10.7299Z" fill="#5872FB"/>
<path d="M34.3953 11.9298C35.2662 12.4006 36.3725 12.0711 36.8432 11.2002L39.2204 6.82231C39.8324 5.69254 39.1263 4.35093 37.9259 4.16263C37.1492 4.04495 36.396 4.46861 36.0194 5.15119L33.6892 9.45846C33.195 10.3529 33.5009 11.4591 34.3953 11.9298Z" fill="#62B6FF"/>
<path d="M22.0609 30.2657C21.3312 28.9712 19.9896 28.1709 18.5068 28.1709H2.90177C0.712829 28.1709 -0.699391 30.5246 0.359774 32.4546L8.59772 47.6595C9.28029 48.9305 10.5984 49.7072 12.0341 49.7072H27.9216C30.1341 49.7072 31.5227 47.33 30.44 45.4L22.0609 30.2657Z" fill="#7857FB"/>
<path d="M30.9332 18.2844C31.8041 18.7551 32.9103 18.4256 33.381 17.5547C33.8518 16.6839 33.5223 15.5776 32.6514 15.1069C31.7805 14.6361 30.6743 14.9657 30.2036 15.8365C29.7328 16.7074 30.0623 17.8136 30.9332 18.2844Z" fill="#62B6FF"/>
<path d="M44.0465 7.55244C44.9174 8.02318 46.0236 7.69366 46.4943 6.82279C46.9651 5.95192 46.6356 4.84568 45.7647 4.37494C44.8938 3.9042 43.7876 4.23372 43.3168 5.10459C42.8461 5.97546 43.1756 7.05816 44.0465 7.55244Z" fill="#5872FB"/>
<path d="M47.8819 13.8837C47.011 13.413 45.9048 13.7425 45.434 14.6134C44.9633 15.4842 45.2928 16.5905 46.1637 17.0612C47.0345 17.532 48.1408 17.2024 48.6115 16.3316C49.0823 15.4607 48.7527 14.3545 47.8819 13.8837Z" fill="#7857FB"/>
<path d="M39.2647 29.748C38.3938 29.2773 37.2876 29.6068 36.8168 30.4776C36.3461 31.3485 36.6756 32.4547 37.5465 32.9255C38.4174 33.3962 39.5236 33.0667 39.9943 32.1958C40.4651 31.325 40.1591 30.2187 39.2647 29.748Z" fill="#7857FB"/>
<path d="M25.2622 28.7832C26.133 29.254 27.2393 28.9244 27.71 28.0536L29.2399 25.2291L29.946 23.9346C30.4168 23.0637 30.0872 21.9575 29.2164 21.4868C28.3455 21.016 27.2393 21.3455 26.7685 22.2164L25.0503 25.3939L24.5325 26.3589C24.0618 27.2062 24.3678 28.2889 25.2622 28.7832Z" fill="#62B6FF"/>
<path d="M36.3484 35.1391C35.4775 34.6684 34.3712 34.9979 33.9005 35.8688L32.1823 39.0462L31.6645 39.9877C31.1938 40.8586 31.5233 41.9648 32.3941 42.4356C33.265 42.9063 34.3712 42.5768 34.842 41.7059L36.3719 38.8815L37.078 37.587C37.5487 36.7161 37.2192 35.6098 36.3484 35.1391Z" fill="#7857FB"/>
</svg>
