<svg width="103" height="25" viewBox="0 0 103 25" fill="none" xmlns="http://www.w3.org/2000/svg">
<path fill-rule="evenodd" clip-rule="evenodd" d="M12.9602 0C5.80428 0 0 5.73667 0 12.8093C0 18.4673 3.73701 23.261 8.8257 24.9898C9.46178 25.0684 9.7003 24.6755 9.7003 24.3611C9.7003 24.0468 9.7003 23.261 9.7003 22.1608C6.12231 22.9466 5.32721 20.4319 5.32721 20.4319C4.77063 18.9388 3.89602 18.5459 3.89602 18.5459C2.70336 17.7601 3.97554 17.7601 3.97554 17.7601C5.24771 17.8386 5.96331 19.096 5.96331 19.096C7.15597 21.0606 8.9847 20.5105 9.7003 20.1962C9.77981 19.3318 10.1774 18.7817 10.4954 18.4673C7.63302 18.153 4.61161 17.0528 4.61161 12.102C4.61161 10.6875 5.08869 9.58729 5.96331 8.64428C5.80428 8.32994 5.40672 6.99402 6.12231 5.26516C6.12231 5.26516 7.23546 4.95083 9.7003 6.6011C10.7339 6.28677 11.8471 6.20818 12.9602 6.20818C14.0734 6.20818 15.1865 6.36535 16.2202 6.6011C18.685 4.95083 19.7982 5.26516 19.7982 5.26516C20.5138 6.99402 20.0367 8.32994 19.9572 8.64428C20.7523 9.50871 21.3089 10.6875 21.3089 12.102C21.3089 17.0528 18.2875 18.0744 15.4251 18.3888C15.9021 18.7817 16.2997 19.5675 16.2997 20.7463C16.2997 22.4751 16.2997 23.8111 16.2997 24.2826C16.2997 24.5969 16.5382 24.9898 17.1743 24.9112C22.3425 23.1824 26 18.3887 26 12.7307C25.9205 5.73667 20.1162 0 12.9602 0Z" fill="#191717"/>
<path d="M48.5072 10.8748H42.8887C42.7304 10.8748 42.6513 10.9539 42.6513 11.1122V13.8818C42.6513 14.0401 42.7304 14.1193 42.8887 14.1193H45.1045V17.522C45.1045 17.522 44.6296 17.6803 43.2844 17.6803C41.7017 17.6803 39.4068 17.1264 39.4068 12.1409C39.4068 7.2346 41.7017 6.60152 43.9174 6.60152C45.8167 6.60152 46.608 6.91807 47.1619 7.07633C47.3202 7.15547 47.4785 6.99718 47.4785 6.83892L48.1115 4.2275C48.1115 4.14837 48.1115 4.06922 48.0324 3.99008C47.795 3.83182 46.5289 3.11963 43.2844 3.11963C39.5651 3.11963 35.6875 4.7023 35.6875 12.3783C35.6875 20.0543 40.119 21.1622 43.7592 21.1622C46.8454 21.1622 48.6655 19.8169 48.6655 19.8169C48.7446 19.7378 48.7446 19.6586 48.7446 19.5795V11.033C48.8238 11.033 48.6655 10.8748 48.5072 10.8748Z" fill="#100E0F"/>
<path d="M77.3917 4.06942C77.3917 3.91116 77.3126 3.83203 77.1543 3.83203H73.989C73.8307 3.83203 73.7515 3.91116 73.7515 4.06942V10.1628H68.8453V4.06942C68.8453 3.91116 68.7661 3.83203 68.6078 3.83203H65.4425C65.2842 3.83203 65.2051 3.91116 65.2051 4.06942V20.6084C65.2051 20.7667 65.2842 20.8459 65.4425 20.8459H68.6078C68.7661 20.8459 68.8453 20.7667 68.8453 20.6084V13.5655H73.7515V20.6084C73.7515 20.7667 73.8307 20.8459 73.989 20.8459H77.1543C77.3126 20.8459 77.3917 20.7667 77.3917 20.6084V4.06942Z" fill="#100E0F"/>
<path d="M54.5257 6.28503C54.5257 5.17715 53.5761 4.22754 52.4683 4.22754C51.3604 4.22754 50.4108 5.17715 50.4108 6.28503C50.4108 7.39291 51.3604 8.3425 52.4683 8.3425C53.5761 8.3425 54.5257 7.39291 54.5257 6.28503Z" fill="#100E0F"/>
<path d="M54.2892 17.1263C54.2892 16.7306 54.2892 9.52938 54.2892 9.52938C54.2892 9.37112 54.2101 9.29199 54.0518 9.29199H50.8864C50.7282 9.29199 50.649 9.45026 50.649 9.60852C50.649 9.60852 50.649 18.7881 50.649 20.529C50.649 20.8456 50.8865 20.9247 51.1239 20.9247C51.1239 20.9247 52.4691 20.9247 53.9727 20.9247C54.2892 20.9247 54.3683 20.7664 54.3683 20.529C54.2892 19.896 54.2892 17.6011 54.2892 17.1263Z" fill="#100E0F"/>
<path d="M89.4203 9.29248H86.2549C86.0966 9.29248 86.0175 9.3716 86.0175 9.52987V17.6016C86.0175 17.6016 85.2262 18.1555 84.1183 18.1555C83.0104 18.1555 82.6939 17.6807 82.6939 16.5728C82.6939 15.4649 82.6939 9.52987 82.6939 9.52987C82.6939 9.3716 82.6147 9.29248 82.4565 9.29248H79.2911C79.1328 9.29248 79.0537 9.3716 79.0537 9.52987C79.0537 9.52987 79.0537 13.8823 79.0537 17.1268C79.0537 20.4504 80.8738 21.2417 83.4061 21.2417C85.4636 21.2417 87.1254 20.1339 87.1254 20.1339C87.1254 20.1339 87.2045 20.7669 87.2045 20.8461C87.2045 20.9252 87.3628 21.0043 87.4419 21.0043H89.4994C89.6577 21.0043 89.7368 20.9252 89.7368 20.7669V9.68815C89.6577 9.37161 89.5785 9.29248 89.4203 9.29248Z" fill="#100E0F"/>
<path d="M97.9666 8.89661C96.2256 8.89661 94.9595 9.68795 94.9595 9.68795V4.06942C94.9595 3.91116 94.8804 3.83203 94.7221 3.83203H91.5567C91.3985 3.83203 91.3193 3.91116 91.3193 4.06942V20.6084C91.3193 20.7667 91.3985 20.8459 91.5567 20.8459H93.7725C93.8516 20.8459 93.9308 20.7667 94.0099 20.6876C94.089 20.6084 94.1682 19.8962 94.1682 19.8962C94.1682 19.8962 95.4343 21.1624 97.8875 21.1624C100.736 21.1624 102.398 19.738 102.398 14.5943C102.398 9.52969 99.7867 8.89661 97.9666 8.89661ZM96.7796 18.1553C95.6717 18.1553 94.9595 17.6014 94.9595 17.6014V12.3785C94.9595 12.3785 95.6717 11.9037 96.5422 11.8246C97.6501 11.7454 98.7579 12.062 98.7579 14.7525C98.7579 17.6805 98.2831 18.2344 96.7796 18.1553Z" fill="#100E0F"/>
<path d="M63.304 9.21327H60.93V6.0479C60.93 5.96877 60.8509 5.88965 60.6926 5.88965H57.4481C57.2898 5.88965 57.2898 5.96877 57.2898 6.0479V9.2924C57.2898 9.2924 55.7071 9.68808 55.5489 9.68808C55.4697 9.68808 55.3906 9.84633 55.3906 9.92547V11.983C55.3906 12.1412 55.4697 12.2204 55.628 12.2204H57.2898C57.2898 12.2204 57.2898 14.357 57.2898 17.1267C57.2898 20.7668 59.8221 21.0834 61.5631 21.0834C62.3544 21.0834 63.304 20.846 63.4623 20.7668C63.5414 20.7668 63.6206 20.6086 63.6206 20.5295V18.3137C63.6206 18.1554 63.4623 18.0763 63.3832 18.0763C63.2249 18.0763 62.9084 18.1554 62.5127 18.1554C61.3257 18.1554 60.93 17.6015 60.93 16.8893C60.93 16.1771 60.93 12.2204 60.93 12.2204H63.304C63.4623 12.2204 63.5414 12.1412 63.5414 11.983V9.45068C63.6206 9.37155 63.4623 9.21327 63.304 9.21327Z" fill="#100E0F"/>
</svg>
