<svg width="22" height="21" viewBox="0 0 22 21" fill="none" xmlns="http://www.w3.org/2000/svg">
<path fill-rule="evenodd" clip-rule="evenodd" d="M10.9664 0C4.91131 0 0 4.8188 0 10.7598C0 15.5126 3.16209 19.5392 7.4679 20.9915C8.00612 21.0575 8.20794 20.7274 8.20794 20.4634C8.20794 20.1993 8.20794 19.5392 8.20794 18.6151C5.18042 19.2752 4.50764 17.1628 4.50764 17.1628C4.03669 15.9086 3.29663 15.5786 3.29663 15.5786C2.28746 14.9185 3.36392 14.9185 3.36392 14.9185C4.44037 14.9845 5.04587 16.0406 5.04587 16.0406C6.05505 17.6909 7.60244 17.2288 8.20794 16.9648C8.27522 16.2387 8.61161 15.7766 8.88073 15.5125C6.45871 15.2485 3.90213 14.3244 3.90213 10.1657C3.90213 8.97749 4.30581 8.05332 5.04587 7.26119C4.91132 6.99715 4.57491 5.87497 5.18042 4.42273C5.18042 4.42273 6.12232 4.1587 8.20794 5.54493C9.08256 5.28088 10.0245 5.21487 10.9664 5.21487C11.9083 5.21487 12.8502 5.34689 13.7248 5.54493C15.8104 4.1587 16.7523 4.42273 16.7523 4.42273C17.3578 5.87497 16.9541 6.99715 16.8869 7.26119C17.5596 7.98731 18.0306 8.97749 18.0306 10.1657C18.0306 14.3244 15.474 15.1825 13.052 15.4466C13.4557 15.7766 13.7921 16.4367 13.7921 17.4269C13.7921 18.8791 13.7921 20.0013 13.7921 20.3974C13.7921 20.6614 13.9939 20.9915 14.5321 20.9254C18.9052 19.4732 22 15.4465 22 10.6938C21.9327 4.8188 17.0214 0 10.9664 0Z" fill="black"/>
</svg>
