<svg width="71" height="18" viewBox="0 0 71 18" fill="none" xmlns="http://www.w3.org/2000/svg">
<g opacity="0.2">
<path fill-rule="evenodd" clip-rule="evenodd" d="M8.97248 0C4.01834 0 0 4.1304 0 9.22267C0 13.2965 2.58716 16.7479 6.1101 17.9927C6.55047 18.0493 6.71559 17.7663 6.71559 17.54C6.71559 17.3137 6.71559 16.7479 6.71559 15.9558C4.23852 16.5216 3.68807 14.711 3.68807 14.711C3.30274 13.636 2.69725 13.3531 2.69725 13.3531C1.87156 12.7872 2.7523 12.7872 2.7523 12.7872C3.63303 12.8438 4.12844 13.7491 4.12844 13.7491C4.95413 15.1636 6.22018 14.7676 6.71559 14.5413C6.77064 13.9189 7.04587 13.5228 7.26605 13.2965C5.2844 13.0701 3.19266 12.278 3.19266 8.71344C3.19266 7.69499 3.52294 6.90285 4.12844 6.22388C4.01835 5.99756 3.74311 5.03569 4.23852 3.79092C4.23852 3.79092 5.00917 3.5646 6.71559 4.75279C7.43119 4.52647 8.20183 4.46989 8.97248 4.46989C9.74312 4.46989 10.5138 4.58305 11.2294 4.75279C12.9358 3.5646 13.7064 3.79092 13.7064 3.79092C14.2018 5.03569 13.8716 5.99756 13.8165 6.22388C14.367 6.84627 14.7523 7.69499 14.7523 8.71344C14.7523 12.278 12.6606 13.0136 10.6789 13.2399C11.0092 13.5228 11.2844 14.0886 11.2844 14.9373C11.2844 16.1821 11.2844 17.144 11.2844 17.4835C11.2844 17.7098 11.4496 17.9927 11.8899 17.9361C15.4679 16.6913 18 13.2399 18 9.16608C17.945 4.1304 13.9266 0 8.97248 0Z" fill="#191717"/>
<path d="M33.5821 8.13871H29.6923C29.5828 8.13871 29.528 8.19349 29.528 8.30306V10.2205C29.528 10.3301 29.5828 10.3849 29.6923 10.3849H31.2263V12.7407C31.2263 12.7407 30.8976 12.8502 29.9663 12.8502C28.8706 12.8502 27.2818 12.4667 27.2818 9.01528C27.2818 5.6186 28.8706 5.18032 30.4046 5.18032C31.7194 5.18032 32.2673 5.39946 32.6508 5.50903C32.7603 5.56382 32.8699 5.45424 32.8699 5.34467L33.3082 3.53676C33.3082 3.48198 33.3082 3.42718 33.2534 3.3724C33.089 3.26283 32.2125 2.76978 29.9663 2.76978C27.3914 2.76978 24.7069 3.86547 24.7069 9.17963C24.7069 14.4938 27.7749 15.2608 30.295 15.2608C32.4316 15.2608 33.6917 14.3294 33.6917 14.3294C33.7465 14.2746 33.7465 14.2199 33.7465 14.1651V8.24829C33.8012 8.24829 33.6917 8.13871 33.5821 8.13871Z" fill="#100E0F"/>
<path d="M53.5794 3.42729C53.5794 3.31772 53.5246 3.26294 53.415 3.26294H51.2236C51.114 3.26294 51.0592 3.31772 51.0592 3.42729V7.64575H47.6626V3.42729C47.6626 3.31772 47.6078 3.26294 47.4982 3.26294H45.3068C45.1972 3.26294 45.1425 3.31772 45.1425 3.42729V14.8774C45.1425 14.9869 45.1972 15.0417 45.3068 15.0417H47.4982C47.6078 15.0417 47.6626 14.9869 47.6626 14.8774V10.0015H51.0592V14.8774C51.0592 14.9869 51.114 15.0417 51.2236 15.0417H53.415C53.5246 15.0417 53.5794 14.9869 53.5794 14.8774V3.42729Z" fill="#100E0F"/>
<path d="M37.7484 4.96055C37.7484 4.19356 37.0909 3.53613 36.324 3.53613C35.557 3.53613 34.8995 4.19356 34.8995 4.96055C34.8995 5.72754 35.557 6.38495 36.324 6.38495C37.0909 6.38495 37.7484 5.72754 37.7484 4.96055Z" fill="#100E0F"/>
<path d="M37.5851 12.466C37.5851 12.192 37.5851 7.20659 37.5851 7.20659C37.5851 7.09701 37.5303 7.04224 37.4207 7.04224H35.2293C35.1197 7.04224 35.0649 7.1518 35.0649 7.26137C35.0649 7.26137 35.0649 13.6165 35.0649 14.8217C35.0649 15.0409 35.2293 15.0957 35.3937 15.0957C35.3937 15.0957 36.325 15.0957 37.3659 15.0957C37.585 15.0957 37.6398 14.9861 37.6398 14.8217C37.585 14.3835 37.5851 12.7947 37.5851 12.466Z" fill="#100E0F"/>
<path d="M61.9062 7.04248H59.7148C59.6053 7.04248 59.5505 7.09726 59.5505 7.20683V12.7949C59.5505 12.7949 59.0026 13.1784 58.2356 13.1784C57.4686 13.1784 57.2495 12.8497 57.2495 12.0827C57.2495 11.3157 57.2495 7.20683 57.2495 7.20683C57.2495 7.09726 57.1947 7.04248 57.0851 7.04248H54.8937C54.7841 7.04248 54.7294 7.09726 54.7294 7.20683C54.7294 7.20683 54.7294 10.22 54.7294 12.4662C54.7294 14.7672 55.9894 15.315 57.7426 15.315C59.167 15.315 60.3175 14.5481 60.3175 14.5481C60.3175 14.5481 60.3722 14.9863 60.3722 15.0411C60.3722 15.0959 60.4818 15.1507 60.5366 15.1507H61.961C62.0706 15.1507 62.1254 15.0959 62.1254 14.9863V7.31641C62.0706 7.09727 62.0158 7.04248 61.9062 7.04248Z" fill="#100E0F"/>
<path d="M67.8234 6.76919C66.6181 6.76919 65.7416 7.31704 65.7416 7.31704V3.42729C65.7416 3.31772 65.6868 3.26294 65.5772 3.26294H63.3858C63.2762 3.26294 63.2214 3.31772 63.2214 3.42729V14.8774C63.2214 14.9869 63.2762 15.0417 63.3858 15.0417H64.9198C64.9746 15.0417 65.0293 14.987 65.0841 14.9322C65.1389 14.8774 65.1937 14.3843 65.1937 14.3843C65.1937 14.3843 66.0703 15.2609 67.7686 15.2609C69.7409 15.2609 70.8914 14.2748 70.8914 10.7137C70.8914 7.20747 69.0834 6.76919 67.8234 6.76919ZM67.0016 13.1791C66.2346 13.1791 65.7416 12.7956 65.7416 12.7956V9.17973C65.7416 9.17973 66.2346 8.85103 66.8373 8.79624C67.6042 8.74146 68.3712 8.96059 68.3712 10.8233C68.3712 12.8503 68.0425 13.2338 67.0016 13.1791Z" fill="#100E0F"/>
<path d="M43.826 6.98773H42.1825V4.79633C42.1825 4.74154 42.1277 4.68677 42.0181 4.68677H39.772C39.6624 4.68677 39.6624 4.74154 39.6624 4.79633V7.04252C39.6624 7.04252 38.5667 7.31645 38.4571 7.31645C38.4023 7.31645 38.3475 7.42601 38.3475 7.4808V8.90521C38.3475 9.01478 38.4023 9.06958 38.5119 9.06958H39.6624C39.6624 9.06958 39.6624 10.5488 39.6624 12.4662C39.6624 14.9864 41.4155 15.2055 42.6208 15.2055C43.1686 15.2055 43.826 15.0412 43.9356 14.9864C43.9904 14.9864 44.0452 14.8768 44.0452 14.822V13.288C44.0452 13.1785 43.9356 13.1237 43.8808 13.1237C43.7713 13.1237 43.5521 13.1785 43.2782 13.1785C42.4564 13.1785 42.1825 12.795 42.1825 12.3019C42.1825 11.8088 42.1825 9.06958 42.1825 9.06958H43.826C43.9356 9.06958 43.9904 9.01478 43.9904 8.90521V7.1521C44.0452 7.09731 43.9356 6.98773 43.826 6.98773Z" fill="#100E0F"/>
</g>
</svg>
