<svg width="390" height="286" viewBox="0 0 390 286" fill="none" xmlns="http://www.w3.org/2000/svg">
<path d="M239.375 196.255C241.606 198.37 241.717 201.933 239.598 204.16L163.205 284.218C162.201 285.332 160.64 286 159.19 286C157.517 286 156.067 285.332 154.952 284.107L122.387 246.917C121.384 245.804 120.937 244.356 121.049 242.909C121.16 241.461 121.83 240.014 122.945 239.123C124.06 238.121 125.51 237.676 126.96 237.787C128.409 237.898 129.859 238.566 130.751 239.68L158.521 271.302C158.744 271.525 158.967 271.636 159.301 271.636C159.636 271.636 159.859 271.525 160.082 271.302L231.346 196.477C232.349 195.364 233.799 194.807 235.249 194.696C236.922 194.584 238.371 195.141 239.375 196.255ZM323.352 78.5613C322.126 57.9622 313.315 38.5879 298.371 24.0015C283.538 9.41508 263.91 0.952743 243.279 0.0619706C208.706 -1.27419 176.365 19.1022 162.759 50.9474C162.536 51.6154 161.978 51.6154 161.755 51.6154C161.532 51.6154 160.974 51.5041 160.751 50.9474C147.257 19.2136 115.027 -1.27419 80.4545 0.0619706C59.8226 0.841397 40.1945 9.30373 25.2504 23.8901C10.3063 38.4765 1.38441 57.8509 0.157655 78.3386C-1.29215 102.612 7.29515 125.438 24.3582 142.474L102.202 225.984C103.205 227.098 104.655 227.654 106.105 227.766H106.328C107.778 227.766 109.116 227.209 110.12 226.207C112.35 224.091 112.462 220.528 110.343 218.301L32.3879 134.68C18.7821 121.096 11.1985 103.058 11.1985 83.7946C11.0869 44.1552 43.2057 11.642 82.7964 11.0853C101.755 10.8626 119.822 17.8774 133.54 31.0163C147.257 44.0439 155.287 61.5253 156.067 80.3428C156.179 83.3492 158.632 85.6875 161.643 85.6875H161.755C164.766 85.6875 167.22 83.3492 167.331 80.3428C168.112 61.5253 176.141 43.9325 189.859 30.905C203.688 17.7661 221.755 10.7512 240.713 10.9739C280.304 11.5307 312.423 44.1552 312.2 83.6833C312.088 102.835 304.505 120.984 290.899 134.569L252.2 175.656C251.197 176.769 250.639 178.105 250.639 179.664C250.639 181.112 251.308 182.559 252.423 183.561C253.539 184.563 254.877 185.12 256.438 185.12C257.888 185.12 259.338 184.452 260.342 183.338L298.929 142.252C316.103 125.55 324.802 102.835 323.352 78.5613Z" fill="url(#paint0_linear)"/>
<path d="M316.931 201.79C280.56 239.744 235.503 286 235.503 286L197.177 242.871L108.257 148.849C94.4686 135.155 86 116.286 86 95.4763C86 53.7487 119.983 20 162 20C204.017 20 238 53.7487 238 95.4763C238 53.7487 271.983 20 314 20C356.017 20 390 53.7487 390 95.4763C390 116.286 381.531 135.155 367.743 148.849C367.743 148.849 344.074 173.54 316.931 201.79Z" fill="#6E84FD" fill-opacity="0.15"/>
<defs>
<linearGradient id="paint0_linear" x1="0.0737897" y1="142.975" x2="323.498" y2="142.975" gradientUnits="userSpaceOnUse">
<stop stop-color="#62B6FF"/>
<stop offset="1" stop-color="#7857FB"/>
</linearGradient>
</defs>
</svg>
