<svg width="399" height="880" viewBox="0 0 399 880" fill="none" xmlns="http://www.w3.org/2000/svg">
<g filter="url(#filter0_d)">
<path d="M119.881 446.85H321.924C328.462 446.85 333.676 451.878 333.676 458.066V503.784C333.676 509.972 328.384 515.001 321.924 515.001H119.881C113.343 515.001 108.129 509.972 108.129 503.784V458.066C108.129 451.878 113.421 446.85 119.881 446.85Z" fill="#F8F8F8"/>
</g>
<path d="M39.9837 290.5V279.401C39.9837 278.5 39.4307 277.5 38.4307 277.5C37.4314 277.5 36.6928 278.5 36.6934 279.401V290.5C36.6934 297.289 36.6934 296.223 36.6934 302.657V372.89C36.6934 381.107 43.4307 387.773 51.7348 387.773H92.7855C93.7256 387.773 94.4307 387.076 94.4307 386.146C94.4307 385.215 93.7256 384.518 92.7855 384.518H51.7348C45.2325 384.518 39.9837 379.324 39.9837 372.89V302.657C39.9837 294.44 39.9307 298.5 39.9837 290.5Z" fill="#EFEBF5"/>
<path d="M99.8024 384.769L92.4578 380.89C91.0914 380.192 89.4688 381.045 89.4688 382.442V390.2C89.4688 391.596 91.1768 392.45 92.4578 391.751L99.8024 387.872C101.169 387.252 101.169 385.467 99.8024 384.769Z" fill="#EFEBF5"/>
<g filter="url(#filter1_d)">
<path d="M62.4395 205.585H14.4111C8.19652 205.585 3.13281 200.521 3.13281 194.307V146.278C3.13281 140.064 8.19652 135 14.4111 135H62.4395C68.654 135 73.7177 140.064 73.7177 146.278V194.307C73.7177 200.521 68.7308 205.585 62.4395 205.585Z" fill="#F8F8F8"/>
</g>
<g filter="url(#filter2_d)">
<path d="M62.7383 71.5849H14.7099C8.49535 71.5849 3.43164 66.5212 3.43164 60.3067V12.2782C3.43164 6.0637 8.49535 1 14.7099 1H62.7383C68.9529 1 74.0165 6.0637 74.0165 12.2782V60.3067C74.0165 66.5212 69.0296 71.5849 62.7383 71.5849Z" fill="#F8F8F8"/>
</g>
<g filter="url(#filter3_d)">
<path d="M119.881 351.925H321.924C328.462 351.925 333.676 356.953 333.676 363.141V408.859C333.676 415.048 328.384 420.076 321.924 420.076H119.881C113.343 420.076 108.129 415.048 108.129 408.859V363.141C108.129 356.953 113.421 351.925 119.881 351.925Z" fill="#F8F8F8"/>
</g>
<g filter="url(#filter4_d)">
<path d="M62.9877 870.585H14.4078C8.1219 870.585 3 865.521 3 859.307V811.278C3 805.064 8.1219 800 14.4078 800H62.9877C69.2736 800 74.3954 805.064 74.3954 811.278V859.307C74.473 865.598 69.3512 870.585 62.9877 870.585Z" fill="#F8F8F8"/>
</g>
<path d="M99.8024 384.743L92.4578 380.587C91.0914 379.839 89.4688 380.753 89.4688 382.249V390.561C89.4688 392.057 91.1768 392.972 92.4578 392.224L99.8024 388.068C101.169 387.32 101.169 385.491 99.8024 384.743Z" fill="#EFEBF5"/>
<path d="M39.9856 237.256V225.628C39.9856 225 38.9326 224.5 38.4326 224.5C37.9326 224.5 36.6953 224.799 36.6954 225.628L36.6953 237.256C36.6953 243 36.6953 242.45 36.6953 248.884V279.116C36.6953 287.333 43.4326 294 51.7368 294H92.7875C93.7275 294 94.4326 293.302 94.4326 292.372C94.4326 291.442 93.7275 290.744 92.7875 290.744H51.7368C45.2345 290.744 39.9856 285.55 39.9856 279.116V248.884C39.9856 240.667 39.9326 244 39.9856 237.256Z" fill="#EFEBF5"/>
<path d="M99.8024 290.969L92.4578 286.813C91.0914 286.065 89.4688 286.979 89.4688 288.476V296.788C89.4688 298.284 91.1768 299.198 92.4578 298.45L99.8024 294.294C101.169 293.546 101.169 291.717 99.8024 290.969Z" fill="#EFEBF5"/>
<g filter="url(#filter5_d)">
<path d="M119.881 257H321.924C328.462 257 333.676 262.088 333.676 268.35V314.612C333.676 320.874 328.384 325.962 321.924 325.962H119.881C113.343 325.962 108.129 320.874 108.129 314.612V268.35C108.129 262.088 113.421 257 119.881 257Z" fill="#F8F8F8"/>
</g>
<path d="M373.821 287.272H369.082V290.069H373.821V287.272Z" fill="#13AB4B" fill-opacity="0.8"/>
<path d="M382.288 287.272H377.549V290.069H382.288V287.272Z" fill="#13AB4B" fill-opacity="0.8"/>
<path d="M398.91 342.819H396.113V347.558H398.91V342.819Z" fill="#13AB4B" fill-opacity="0.8"/>
<path d="M398.91 351.365H396.113V356.103H398.91V351.365Z" fill="#13AB4B" fill-opacity="0.8"/>
<path d="M398.91 359.832H396.113V364.571H398.91V359.832Z" fill="#13AB4B" fill-opacity="0.8"/>
<path d="M398.797 368H396V372.739H398.797V368Z" fill="#13AB4B" fill-opacity="0.8"/>
<path d="M398.797 376.545H396V381.284H398.797V376.545Z" fill="#13AB4B" fill-opacity="0.8"/>
<path d="M398.797 385.013H396V386L398.797 389.752V385.013Z" fill="#13AB4B" fill-opacity="0.8"/>
<path d="M398.91 457H396.113V461.739H398.91V457Z" fill="#13AB4B" fill-opacity="0.8"/>
<path d="M398.797 465.168H396V469.907H398.797V465.168Z" fill="#13AB4B" fill-opacity="0.8"/>
<path d="M398.797 473.713H396V478.452H398.797V473.713Z" fill="#13AB4B" fill-opacity="0.8"/>
<path d="M398.797 482.181H396V483.168L398.797 486.92V482.181Z" fill="#13AB4B" fill-opacity="0.8"/>
<path d="M398.91 317.182H396.113V321.921H398.91V317.182Z" fill="#13AB4B" fill-opacity="0.8"/>
<path d="M398.91 325.728H396.113V330.466H398.91V325.728Z" fill="#13AB4B" fill-opacity="0.8"/>
<path d="M398.91 334.195H396.113V338.934H398.91V334.195Z" fill="#13AB4B" fill-opacity="0.8"/>
<path fill-rule="evenodd" clip-rule="evenodd" d="M395.195 296.703L397.759 295.46C397.06 293.829 396.128 292.275 394.807 291.032L392.787 293.052C393.797 294.062 394.652 295.305 395.195 296.703Z" fill="#13AB4B" fill-opacity="0.8"/>
<path fill-rule="evenodd" clip-rule="evenodd" d="M395.894 304.627H398.691V302.141C398.691 301.209 398.691 300.354 398.613 299.5L395.816 300.044C395.894 300.743 395.816 301.52 395.816 302.219V304.627H395.894Z" fill="#13AB4B" fill-opacity="0.8"/>
<path d="M398.691 308.434H395.895V313.173H398.691V308.434Z" fill="#13AB4B" fill-opacity="0.8"/>
<path fill-rule="evenodd" clip-rule="evenodd" d="M389.913 290.954L391.39 288.468C389.836 287.691 388.049 287.147 386.262 287.069L385.641 289.866C387.117 289.944 388.593 290.332 389.913 290.954Z" fill="#13AB4B" fill-opacity="0.8"/>
<path d="M398.91 439.82H396.113V444.559H398.91V439.82Z" fill="#13AB4B" fill-opacity="0.8"/>
<path d="M398.91 448.365H396.113V453.104H398.91V448.365Z" fill="#13AB4B" fill-opacity="0.8"/>
<path d="M398.91 414.183H396.113V418.922H398.91V414.183Z" fill="#13AB4B" fill-opacity="0.8"/>
<path d="M398.91 422.729H396.113V427.467H398.91V422.729Z" fill="#13AB4B" fill-opacity="0.8"/>
<path d="M398.91 431.196H396.113V435.935H398.91V431.196Z" fill="#13AB4B" fill-opacity="0.8"/>
<path fill-rule="evenodd" clip-rule="evenodd" d="M395.195 393.704L397.759 392.461C397.06 390.83 396.128 389.276 394.807 388.033L392.787 390.053C393.797 391.063 394.652 392.306 395.195 393.704Z" fill="#13AB4B" fill-opacity="0.8"/>
<path fill-rule="evenodd" clip-rule="evenodd" d="M395.894 401.628H398.691V399.142C398.691 398.21 398.691 397.355 398.613 396.501L395.816 397.045C395.894 397.744 395.816 398.521 395.816 399.22V401.628H395.894Z" fill="#13AB4B" fill-opacity="0.8"/>
<path d="M398.691 405.435H395.895V410.174H398.691V405.435Z" fill="#13AB4B" fill-opacity="0.8"/>
<path fill-rule="evenodd" clip-rule="evenodd" d="M389.913 387.955L391.39 385.469C389.836 384.692 388.049 384.148 386.262 384.07L385.641 386.867C387.117 386.945 388.593 387.333 389.913 387.955Z" fill="#13AB4B" fill-opacity="0.8"/>
<path fill-rule="evenodd" clip-rule="evenodd" d="M348.182 290.069V287.273H344.842C344.065 287.273 343.443 287.894 343.443 288.671C343.443 289.448 344.065 290.069 344.842 290.069H348.182Z" fill="#13AB4B" fill-opacity="0.8"/>
<path d="M356.729 287.273H351.99V290.069H356.729V287.273Z" fill="#13AB4B" fill-opacity="0.8"/>
<path d="M365.196 287.273H360.457V290.069H365.196V287.273Z" fill="#13AB4B" fill-opacity="0.8"/>
<path d="M373.84 383.997H369.102V386.794H373.84V383.997Z" fill="#13AB4B" fill-opacity="0.8"/>
<path d="M382.307 383.997H377.568V386.794H382.307V383.997Z" fill="#13AB4B" fill-opacity="0.8"/>
<path fill-rule="evenodd" clip-rule="evenodd" d="M348.202 386.794V383.997H344.861C344.084 383.997 343.463 384.619 343.463 385.396C343.463 386.173 344.084 386.794 344.861 386.794H348.202Z" fill="#13AB4B" fill-opacity="0.8"/>
<path d="M356.749 383.997H352.01V386.794H356.749V383.997Z" fill="#13AB4B" fill-opacity="0.8"/>
<path d="M365.216 383.997H360.477V386.794H365.216V383.997Z" fill="#13AB4B" fill-opacity="0.8"/>
<path d="M31.3619 442.365L29.0547 444.672L29.3294 444.947L31.6365 442.639L31.3619 442.365Z" fill="#EFEBF5"/>
<g filter="url(#filter6_d)">
<path d="M245.478 636.167H196.846C190.553 636.167 185.426 631.039 185.426 624.747V576.114C185.426 569.822 190.553 564.694 196.846 564.694H245.478C251.771 564.694 256.898 569.822 256.898 576.114V624.747C256.898 631.117 251.848 636.167 245.478 636.167Z" fill="#F8F8F8"/>
</g>
<path d="M33.7254 21.5156C33.7254 16.1436 29.3 11.7059 23.943 11.7837C18.5083 11.8616 14.1605 16.2214 14.2381 21.5934C14.2381 26.3425 17.6542 30.3131 22.1573 31.1695L22.2349 43.237C17.7319 44.0934 14.3934 48.064 14.3934 52.891C14.3934 58.2629 18.8188 62.7006 24.1759 62.6228C29.6106 62.5449 33.9583 58.1851 33.8807 52.8131C33.8807 48.064 30.4646 44.0934 25.9615 43.237L25.8839 31.1695C30.387 30.2353 33.7254 26.2647 33.7254 21.5156ZM29.9988 52.8131C29.9988 56.083 27.3591 58.8079 24.0206 58.8079C20.7598 58.8079 18.0424 56.1608 18.0424 52.8131C18.0424 49.5432 20.6821 46.8183 24.0206 46.8183C27.3591 46.8962 29.9988 49.5432 29.9988 52.8131ZM24.0206 27.5882C20.7598 27.5882 18.0424 24.9412 18.0424 21.5934C18.0424 18.3235 20.6821 15.5986 24.0206 15.5986C27.3591 15.5986 29.9988 18.2457 29.9988 21.5934C29.9988 24.8633 27.2814 27.5882 24.0206 27.5882ZM57.4052 43.4706L57.3276 25.2526C57.3276 22.0606 54.7655 19.5692 51.6599 19.5692H48.7097V16.8443C48.7097 15.3651 47.1569 14.5087 45.9147 15.2094L37.9955 19.8806C36.7533 20.6592 36.7533 22.372 37.9955 23.1505L45.9923 27.7439C47.2345 28.4446 48.7873 27.5882 48.7873 26.109V23.3841H51.7376C52.8245 23.3841 53.6009 24.2405 53.6009 25.2526L53.6786 43.4706C49.1755 44.327 45.837 48.2975 45.837 53.1245C45.837 58.4965 50.2624 62.9342 55.6195 62.8563C60.9766 62.8563 65.402 58.4186 65.3243 53.0467C65.3243 48.2197 61.9083 44.2491 57.4052 43.4706ZM55.6195 59.0414C52.3587 59.0414 49.6414 56.3944 49.6414 53.0467C49.6414 49.7768 52.281 47.0519 55.6195 47.0519C58.8803 47.0519 61.5977 49.6989 61.5977 53.0467C61.5977 56.3166 58.8803 59.0414 55.6195 59.0414ZM293.416 523.034L297.298 529.729C297.996 530.975 297.142 532.454 295.745 532.454H287.981C286.584 532.454 285.73 530.897 286.428 529.729L290.31 523.034C290.931 521.866 292.717 521.866 293.416 523.034ZM171.678 601.356H162.672C154.132 601.356 147.145 594.349 147.145 585.785V523.657C147.145 522.567 147.999 521.71 149.086 521.71C150.173 521.71 151.027 522.567 151.027 523.657V585.785C151.027 592.247 156.228 597.463 162.672 597.463H171.678C172.765 597.463 173.619 598.319 173.619 599.409C173.619 600.499 172.765 601.356 171.678 601.356ZM278.199 601.434H269.27C268.183 601.434 267.329 600.577 267.329 599.487C267.329 598.397 268.183 597.541 269.27 597.541H278.276C284.72 597.541 289.922 592.325 289.922 585.863V530.43C289.922 529.34 290.776 528.484 291.863 528.484C292.95 528.484 293.804 529.34 293.804 530.43V585.863C293.726 594.505 286.816 601.434 278.199 601.434ZM50.3494 148.237H46.5451V145.901C46.5451 144.656 45.2253 143.877 44.1383 144.5L37.3838 148.47C36.2968 149.093 36.2968 150.65 37.3838 151.273L44.216 155.166C45.3029 155.789 46.6227 155.01 46.6227 153.765V151.429H50.427C54.309 151.429 57.4145 154.543 57.4145 158.436L57.4922 181.559C57.4922 185.451 54.3866 188.566 50.5047 188.566H47.3215C46.3898 188.566 45.6911 189.344 45.6911 190.201C45.6911 191.135 46.4675 191.835 47.3215 191.835H50.5047C56.0946 191.835 60.6753 187.242 60.5977 181.559L60.5201 158.436C60.5977 152.752 56.017 148.237 50.3494 148.237ZM40.4893 188.799L33.6571 184.906C32.5701 184.284 31.2503 185.062 31.2503 186.308V188.643H27.3684C23.4864 188.643 20.3809 185.529 20.3809 181.637L20.3033 158.514C20.3033 154.621 23.4088 151.507 27.2907 151.507H30.4739C31.4056 151.507 32.1043 150.728 32.1043 149.872C32.1043 148.938 31.3279 148.237 30.4739 148.237H27.2907C21.7008 148.237 17.1201 152.83 17.1977 158.514L17.2754 181.637C17.2754 187.242 21.856 191.835 27.5237 191.758H31.4056V194.093C31.4056 195.339 32.7254 196.117 33.8123 195.495L40.5669 191.524C41.5762 190.979 41.5762 189.422 40.4893 188.799ZM63.6203 826.576C62.5334 826.576 61.6793 827.51 61.6793 828.522L61.7571 845.417C61.7571 846.507 60.903 847.363 59.8161 847.363L39.3971 847.441C38.8536 847.441 38.3878 847.597 37.9996 847.986L28.4501 857.562C27.596 858.419 26.6644 858.107 26.2762 858.029C26.0433 857.874 25.0339 857.407 25.0339 856.239V849.388C25.0339 848.298 24.1023 847.441 23.093 847.441H18.9005C17.8136 847.441 16.9595 846.585 16.9595 845.495L16.8819 820.815C16.8819 819.725 17.7359 818.869 18.8229 818.869L53.4496 818.713C54.5366 818.713 55.3906 817.779 55.3906 816.766C55.3906 815.677 54.4589 814.82 53.4496 814.82L18.8229 814.976C15.5621 814.976 13 817.623 13 820.815L13.0776 845.495C13.0776 848.765 15.7173 851.334 18.9005 851.334H20.5309C20.9191 851.334 21.152 851.567 21.152 851.957V856.005C21.152 858.419 21.5495 860.599 23.7234 861.533C24.4998 861.844 25.2762 862 26.0526 862C27.5277 862 30.0028 861.377 31.1674 860.209L39.7077 851.567C39.9406 851.334 40.2511 851.178 40.6393 851.178L59.6608 851.1C62.9216 851.1 65.4836 848.453 65.4836 845.261L65.4061 828.367C65.4837 827.355 64.7072 826.576 63.6203 826.576ZM71.6171 810.305C70.8407 809.526 69.5985 809.526 68.8998 810.305L39.8629 839.656C39.63 839.889 39.2418 839.889 38.9313 839.656L25.8879 826.654C25.1116 825.875 23.8693 825.875 23.1706 826.654C22.3942 827.433 22.3942 828.678 23.1706 829.379L36.6797 842.848C37.4561 843.626 38.4654 843.938 39.3971 843.938C40.4064 843.938 41.4157 843.548 42.1144 842.77L71.6171 812.952C72.3935 812.251 72.3935 811.005 71.6171 810.305ZM92.428 484.651H52.3665C43.8262 484.651 36.8387 477.644 36.8387 469.08V399.166C36.8387 392.704 36.8405 391.546 36.8405 387.495V216.488C36.8405 215.495 37.6905 214.495 38.6905 214.495C39.6905 214.495 40.7205 215.495 40.7205 216.485L40.7206 385.495C40.6905 390.995 40.7206 390.602 40.7206 399.166V469.08C40.7206 475.542 45.9225 480.758 52.3665 480.758H92.428C93.5149 480.758 94.369 481.614 94.369 482.704C94.369 483.717 93.5149 484.651 92.428 484.651ZM99.726 484.261L93.0491 488.154C91.8069 488.855 90.3317 487.999 90.3317 486.597V478.812C90.3317 477.41 91.8845 476.554 93.0491 477.255L99.726 481.147C100.968 481.77 100.968 483.561 99.726 484.261ZM179.054 600.966L172.377 604.859C171.135 605.56 169.66 604.704 169.66 603.302V595.517C169.66 594.115 171.213 593.259 172.377 593.96L179.054 597.852C180.219 598.553 180.219 600.266 179.054 600.966ZM251.724 574.262C250.947 574.262 250.326 574.73 249.938 575.352L245.435 583.839C244.892 584.851 245.28 586.096 246.289 586.641C247.298 587.186 248.541 586.797 249.084 585.785L253.665 577.299C254.286 575.897 253.277 574.262 251.724 574.262ZM234.1 594.193C235.109 594.738 236.351 594.349 236.895 593.337L245.513 577.299C246.212 575.975 245.28 574.262 243.727 574.262C242.718 574.262 242.174 574.963 241.941 575.43L233.401 591.39C232.702 592.402 233.091 593.648 234.1 594.193ZM232.159 597.697C231.15 597.152 229.907 597.541 229.364 598.553L224.783 607.039C224.395 607.818 224.473 608.752 225.094 609.375C226.181 610.543 227.656 610.231 228.432 608.908L232.935 600.499C233.479 599.487 233.091 598.242 232.159 597.697ZM229.985 586.641C230.994 587.186 232.237 586.797 232.78 585.785L237.361 577.299C238.059 575.975 237.05 574.262 235.575 574.262C234.799 574.262 234.177 574.73 233.789 575.352L229.286 583.839C228.588 584.928 228.976 586.096 229.985 586.641ZM224.317 601.511L228.898 592.947C229.442 591.935 229.053 590.69 228.044 590.145C227.035 589.6 225.793 589.989 225.249 591.001L220.668 599.487C220.358 600.11 220.358 600.811 220.668 601.434C221.445 602.991 223.541 602.991 224.317 601.511ZM218.106 603.691C217.252 602.212 215.777 601.356 214.069 601.356L196.6 601.434C194.116 601.434 192.563 604.081 193.805 606.261L203.122 623.311C203.898 624.712 205.374 625.646 207.004 625.646L224.861 625.569C227.345 625.569 228.898 622.844 227.656 620.742L218.106 603.691ZM244.348 590.145C243.339 589.6 242.097 589.989 241.553 591.001L230.218 612.255L229.131 614.358C228.588 615.37 228.976 616.615 229.985 617.16C230.994 617.705 232.237 617.316 232.78 616.304L244.426 594.505C244.426 594.505 244.426 594.427 244.503 594.349L245.28 592.87C245.746 591.935 245.28 590.69 244.348 590.145Z" fill="url(#paint0_linear)"/>
<path d="M151.714 475.602C153.742 475.602 155.389 476.381 156.655 477.939C156.785 478.085 156.849 478.255 156.849 478.45C156.849 478.709 156.712 478.937 156.436 479.131C156.29 479.229 156.136 479.277 155.973 479.277C155.73 479.277 155.495 479.156 155.267 478.912C154.781 478.377 154.245 477.979 153.661 477.72C153.077 477.444 152.428 477.306 151.714 477.306C150.821 477.306 150.026 477.525 149.329 477.963C148.631 478.385 148.087 478.985 147.698 479.764C147.325 480.543 147.138 481.419 147.138 482.393C147.138 483.35 147.341 484.218 147.746 484.997C148.152 485.76 148.72 486.36 149.45 486.798C150.18 487.236 151.016 487.455 151.957 487.455C153.255 487.455 154.302 487.107 155.097 486.409C155.308 486.23 155.527 486.141 155.754 486.141C155.949 486.141 156.127 486.206 156.29 486.336C156.517 486.531 156.63 486.75 156.63 486.993C156.63 487.204 156.549 487.382 156.387 487.529C155.219 488.616 153.742 489.159 151.957 489.159C150.692 489.159 149.556 488.867 148.55 488.283C147.544 487.683 146.749 486.871 146.164 485.849C145.596 484.811 145.312 483.659 145.312 482.393C145.312 481.095 145.588 479.935 146.14 478.912C146.692 477.874 147.454 477.062 148.428 476.478C149.402 475.894 150.497 475.602 151.714 475.602Z" fill="#785BFB"/>
<path d="M166.821 475.602C168.103 475.602 169.255 475.894 170.278 476.478C171.3 477.062 172.103 477.874 172.687 478.912C173.288 479.951 173.588 481.111 173.588 482.393C173.588 483.675 173.296 484.835 172.712 485.873C172.128 486.896 171.316 487.699 170.278 488.283C169.255 488.867 168.103 489.159 166.821 489.159C165.54 489.159 164.379 488.867 163.341 488.283C162.319 487.699 161.515 486.896 160.931 485.873C160.347 484.835 160.055 483.675 160.055 482.393C160.055 481.111 160.347 479.951 160.931 478.912C161.515 477.874 162.319 477.062 163.341 476.478C164.379 475.894 165.54 475.602 166.821 475.602ZM166.821 477.306C165.897 477.306 165.053 477.525 164.29 477.963C163.544 478.401 162.951 479.01 162.513 479.789C162.091 480.551 161.881 481.419 161.881 482.393C161.881 483.35 162.091 484.218 162.513 484.997C162.951 485.76 163.544 486.36 164.29 486.798C165.053 487.236 165.897 487.455 166.821 487.455C167.763 487.455 168.606 487.236 169.353 486.798C170.099 486.36 170.683 485.76 171.105 484.997C171.527 484.218 171.738 483.35 171.738 482.393C171.738 481.419 171.527 480.551 171.105 479.789C170.683 479.01 170.099 478.401 169.353 477.963C168.606 477.525 167.763 477.306 166.821 477.306Z" fill="#785BFB"/>
<path d="M190.279 476.43C190.295 476.478 190.303 476.551 190.303 476.649V482.369C190.303 483.634 190.003 484.786 189.403 485.825C188.819 486.863 188.007 487.683 186.969 488.283C185.947 488.867 184.803 489.159 183.537 489.159C182.271 489.159 181.119 488.867 180.081 488.283C179.058 487.683 178.247 486.863 177.647 485.825C177.063 484.786 176.771 483.634 176.771 482.369C176.771 481.103 177.054 479.959 177.622 478.937C178.207 477.898 178.994 477.087 179.983 476.503C180.989 475.902 182.109 475.602 183.342 475.602C184.397 475.602 185.362 475.829 186.239 476.284C187.115 476.722 187.837 477.33 188.405 478.109V470.978C188.405 470.702 188.494 470.475 188.673 470.296C188.851 470.118 189.078 470.028 189.354 470.028C189.63 470.028 189.849 470.118 190.011 470.296C190.19 470.475 190.279 470.702 190.279 470.978V476.43ZM183.537 487.455C184.462 487.455 185.297 487.236 186.044 486.798C186.79 486.344 187.374 485.735 187.796 484.973C188.234 484.194 188.454 483.326 188.454 482.369C188.454 482.093 188.445 481.89 188.429 481.76C188.413 481.728 188.405 481.687 188.405 481.638C188.243 480.373 187.707 479.334 186.798 478.523C185.906 477.712 184.819 477.306 183.537 477.306C182.612 477.306 181.768 477.525 181.006 477.963C180.259 478.401 179.667 479.01 179.229 479.789C178.807 480.551 178.596 481.411 178.596 482.369C178.596 483.326 178.807 484.194 179.229 484.973C179.667 485.735 180.259 486.344 181.006 486.798C181.768 487.236 182.612 487.455 183.537 487.455Z" fill="#785BFB"/>
<path d="M200.6 475.602C201.801 475.602 202.863 475.886 203.788 476.454C204.713 477.006 205.427 477.776 205.93 478.766C206.449 479.756 206.709 480.884 206.709 482.149C206.709 482.409 206.628 482.62 206.466 482.782C206.303 482.928 206.092 483.001 205.833 483.001H196C196.129 484.332 196.649 485.411 197.557 486.239C198.466 487.066 199.602 487.48 200.965 487.48C201.549 487.48 202.133 487.382 202.717 487.188C203.318 486.977 203.796 486.717 204.153 486.409C204.364 486.247 204.583 486.165 204.811 486.165C204.989 486.165 205.167 486.23 205.346 486.36C205.557 486.555 205.662 486.774 205.662 487.017C205.662 487.228 205.573 487.415 205.395 487.577C204.859 488.032 204.178 488.413 203.35 488.721C202.523 489.013 201.727 489.159 200.965 489.159C199.667 489.159 198.507 488.875 197.484 488.307C196.462 487.723 195.659 486.92 195.075 485.898C194.507 484.859 194.223 483.691 194.223 482.393C194.223 481.079 194.491 479.91 195.026 478.888C195.578 477.849 196.332 477.046 197.29 476.478C198.263 475.894 199.367 475.602 200.6 475.602ZM200.6 477.282C199.367 477.282 198.344 477.663 197.533 478.425C196.722 479.188 196.227 480.194 196.048 481.444H204.957C204.827 480.194 204.372 479.188 203.594 478.425C202.815 477.663 201.817 477.282 200.6 477.282Z" fill="#785BFB"/>
<path d="M216.037 475.626C217.952 475.626 219.542 476.357 220.808 477.817C220.97 477.995 221.051 478.206 221.051 478.45C221.051 478.807 220.873 479.107 220.516 479.35C220.354 479.464 220.167 479.521 219.956 479.521C219.583 479.521 219.266 479.375 219.007 479.083C218.601 478.645 218.155 478.328 217.668 478.133C217.198 477.922 216.654 477.817 216.037 477.817C214.788 477.817 213.774 478.239 212.995 479.083C212.216 479.91 211.827 481.014 211.827 482.393C211.827 483.269 212.005 484.056 212.362 484.754C212.735 485.435 213.246 485.971 213.895 486.36C214.561 486.75 215.315 486.944 216.159 486.944C217.262 486.944 218.155 486.66 218.836 486.092C219.145 485.865 219.445 485.752 219.737 485.752C219.964 485.752 220.175 485.825 220.37 485.971C220.678 486.23 220.832 486.522 220.832 486.847C220.832 487.09 220.735 487.309 220.54 487.504C219.372 488.591 217.912 489.135 216.159 489.135C214.877 489.135 213.725 488.843 212.703 488.259C211.681 487.675 210.877 486.871 210.293 485.849C209.725 484.811 209.441 483.659 209.441 482.393C209.441 481.095 209.717 479.935 210.269 478.912C210.837 477.874 211.624 477.071 212.63 476.503C213.636 475.919 214.772 475.626 216.037 475.626Z" fill="#785BFB"/>
<path d="M231.605 475.602C232.724 475.602 233.73 475.845 234.623 476.332C235.515 476.819 236.213 477.533 236.716 478.474C237.219 479.399 237.47 480.519 237.47 481.833V487.821C237.47 488.178 237.349 488.478 237.105 488.721C236.878 488.948 236.586 489.062 236.229 489.062C235.872 489.062 235.572 488.948 235.329 488.721C235.101 488.478 234.988 488.178 234.988 487.821V481.833C234.988 480.519 234.631 479.529 233.917 478.864C233.219 478.182 232.286 477.841 231.118 477.841C230.436 477.841 229.812 477.979 229.244 478.255C228.692 478.531 228.254 478.904 227.929 479.375C227.621 479.845 227.467 480.373 227.467 480.957V487.821C227.467 488.178 227.353 488.478 227.126 488.721C226.899 488.948 226.599 489.062 226.226 489.062C225.869 489.062 225.568 488.948 225.325 488.721C225.098 488.478 224.984 488.178 224.984 487.821V471.27C224.984 470.896 225.098 470.596 225.325 470.369C225.568 470.142 225.869 470.028 226.226 470.028C226.599 470.028 226.899 470.142 227.126 470.369C227.353 470.596 227.467 470.896 227.467 471.27V477.233C227.986 476.714 228.603 476.316 229.317 476.04C230.031 475.748 230.793 475.602 231.605 475.602Z" fill="#785BFB"/>
<path d="M253.793 482.174C253.793 482.482 253.688 482.742 253.477 482.953C253.266 483.147 252.998 483.245 252.673 483.245H243.424C243.603 484.381 244.114 485.297 244.958 485.995C245.818 486.693 246.864 487.042 248.098 487.042C248.584 487.042 249.087 486.952 249.607 486.774C250.142 486.595 250.58 486.376 250.921 486.117C251.148 485.938 251.416 485.849 251.724 485.849C252.032 485.849 252.276 485.93 252.454 486.092C252.746 486.336 252.892 486.612 252.892 486.92C252.892 487.212 252.763 487.455 252.503 487.65C251.951 488.088 251.262 488.445 250.434 488.721C249.623 488.997 248.844 489.135 248.098 489.135C246.767 489.135 245.574 488.851 244.52 488.283C243.465 487.699 242.637 486.896 242.037 485.873C241.453 484.851 241.161 483.691 241.161 482.393C241.161 481.095 241.437 479.935 241.988 478.912C242.556 477.874 243.335 477.071 244.325 476.503C245.331 475.919 246.467 475.626 247.732 475.626C248.982 475.626 250.061 475.902 250.97 476.454C251.878 477.006 252.576 477.776 253.063 478.766C253.55 479.756 253.793 480.892 253.793 482.174ZM247.732 477.72C246.548 477.72 245.582 478.044 244.836 478.693C244.106 479.342 243.643 480.21 243.449 481.298H251.554C251.408 480.21 251.002 479.342 250.337 478.693C249.672 478.044 248.803 477.72 247.732 477.72Z" fill="#785BFB"/>
<path d="M262.642 475.626C264.557 475.626 266.147 476.357 267.413 477.817C267.575 477.995 267.656 478.206 267.656 478.45C267.656 478.807 267.477 479.107 267.121 479.35C266.958 479.464 266.772 479.521 266.561 479.521C266.188 479.521 265.871 479.375 265.611 479.083C265.206 478.645 264.76 478.328 264.273 478.133C263.802 477.922 263.259 477.817 262.642 477.817C261.393 477.817 260.378 478.239 259.6 479.083C258.821 479.91 258.431 481.014 258.431 482.393C258.431 483.269 258.61 484.056 258.967 484.754C259.34 485.435 259.851 485.971 260.5 486.36C261.165 486.75 261.92 486.944 262.764 486.944C263.867 486.944 264.76 486.66 265.441 486.092C265.749 485.865 266.05 485.752 266.342 485.752C266.569 485.752 266.78 485.825 266.974 485.971C267.283 486.23 267.437 486.522 267.437 486.847C267.437 487.09 267.34 487.309 267.145 487.504C265.977 488.591 264.516 489.135 262.764 489.135C261.482 489.135 260.33 488.843 259.308 488.259C258.285 487.675 257.482 486.871 256.898 485.849C256.33 484.811 256.046 483.659 256.046 482.393C256.046 481.095 256.322 479.935 256.874 478.912C257.441 477.874 258.228 477.071 259.234 476.503C260.241 475.919 261.376 475.626 262.642 475.626Z" fill="#785BFB"/>
<path d="M281.641 487.285C281.82 487.48 281.909 487.723 281.909 488.015C281.909 488.372 281.763 488.672 281.471 488.916C281.227 489.111 280.968 489.208 280.692 489.208C280.335 489.208 280.043 489.062 279.816 488.77L275.191 483.05L273.974 484.121V487.845C273.974 488.202 273.861 488.494 273.633 488.721C273.423 488.932 273.139 489.038 272.782 489.038C272.425 489.038 272.133 488.932 271.905 488.721C271.694 488.494 271.589 488.202 271.589 487.845V471.221C271.589 470.864 271.694 470.58 271.905 470.369C272.133 470.142 272.425 470.028 272.782 470.028C273.139 470.028 273.423 470.142 273.633 470.369C273.861 470.58 273.974 470.864 273.974 471.221V481.127L279.889 475.845C280.1 475.635 280.351 475.529 280.643 475.529C280.984 475.529 281.26 475.659 281.471 475.919C281.682 476.129 281.787 476.381 281.787 476.673C281.787 477.014 281.657 477.29 281.398 477.501L276.919 481.492L281.641 487.285Z" fill="#785BFB"/>
<path d="M290.363 475.626C291.418 475.626 292.359 475.797 293.186 476.138C294.03 476.478 294.695 476.949 295.182 477.549C295.393 477.809 295.499 478.069 295.499 478.328C295.499 478.604 295.361 478.855 295.085 479.083C294.906 479.212 294.679 479.277 294.403 479.277C293.981 479.277 293.6 479.123 293.259 478.815C292.854 478.442 292.424 478.182 291.969 478.036C291.515 477.874 290.963 477.793 290.314 477.793C289.568 477.793 288.951 477.922 288.464 478.182C287.994 478.425 287.759 478.774 287.759 479.229C287.759 479.553 287.84 479.829 288.002 480.056C288.164 480.267 288.473 480.47 288.927 480.665C289.381 480.843 290.038 481.022 290.898 481.2C292.667 481.557 293.917 482.052 294.647 482.685C295.393 483.318 295.766 484.137 295.766 485.143C295.766 485.89 295.564 486.571 295.158 487.188C294.752 487.788 294.152 488.267 293.357 488.624C292.578 488.965 291.637 489.135 290.533 489.135C289.43 489.135 288.391 488.965 287.418 488.624C286.444 488.283 285.682 487.837 285.13 487.285C284.919 487.074 284.814 486.823 284.814 486.531C284.814 486.141 284.976 485.825 285.3 485.581C285.609 485.354 285.893 485.241 286.152 485.241C286.477 485.241 286.785 485.387 287.077 485.679C287.385 486.019 287.848 486.32 288.464 486.579C289.081 486.823 289.738 486.944 290.436 486.944C291.361 486.944 292.075 486.79 292.578 486.482C293.097 486.174 293.357 485.76 293.357 485.241C293.357 484.738 293.105 484.324 292.602 483.999C292.099 483.659 291.247 483.375 290.047 483.147C286.931 482.547 285.373 481.265 285.373 479.302C285.373 478.507 285.609 477.833 286.079 477.282C286.55 476.73 287.166 476.316 287.929 476.04C288.692 475.764 289.503 475.626 290.363 475.626Z" fill="#785BFB"/>
<g opacity="0.5">
<path d="M181.099 383.047H176.377V381.1H188.182V383.047H183.46V394.925H181.099V383.047Z" fill="#7469FC"/>
<path d="M205.881 392.953V394.925H195.512V381.1H205.613V383.047H197.873V386.942H204.761V388.864H197.873V392.953H205.881Z" fill="#7469FC"/>
<path d="M218.301 395.12C217.23 395.12 216.184 394.974 215.162 394.682C214.156 394.373 213.369 393.968 212.801 393.465L213.726 391.615C214.277 392.069 214.967 392.434 215.794 392.71C216.638 392.986 217.506 393.124 218.399 393.124C219.486 393.124 220.281 392.945 220.784 392.588C221.303 392.231 221.563 391.769 221.563 391.201C221.563 390.763 221.409 390.406 221.1 390.13C220.808 389.854 220.435 389.643 219.981 389.497C219.526 389.351 218.91 389.197 218.131 389.035C217.076 388.808 216.216 388.572 215.551 388.329C214.902 388.085 214.342 387.704 213.872 387.185C213.417 386.649 213.19 385.927 213.19 385.019C213.19 383.785 213.685 382.796 214.675 382.049C215.681 381.287 217.044 380.905 218.764 380.905C219.64 380.905 220.484 381.011 221.295 381.222C222.123 381.416 222.829 381.708 223.413 382.098L222.561 383.996C221.506 383.266 220.216 382.901 218.691 382.901C217.636 382.901 216.849 383.088 216.33 383.461C215.811 383.818 215.551 384.288 215.551 384.873C215.551 385.311 215.697 385.668 215.989 385.944C216.297 386.219 216.679 386.43 217.133 386.576C217.604 386.722 218.228 386.877 219.007 387.039C220.078 387.282 220.93 387.526 221.563 387.769C222.212 387.996 222.764 388.369 223.218 388.889C223.689 389.408 223.924 390.106 223.924 390.982C223.924 392.248 223.421 393.254 222.415 394C221.425 394.746 220.054 395.12 218.301 395.12Z" fill="#7469FC"/>
<path d="M234.28 383.047H229.558V381.1H241.363V383.047H236.641V394.925H234.28V383.047Z" fill="#7469FC"/>
<path d="M252.733 395.12C251.662 395.12 250.616 394.974 249.594 394.682C248.588 394.373 247.801 393.968 247.233 393.465L248.158 391.615C248.709 392.069 249.399 392.434 250.226 392.71C251.07 392.986 251.938 393.124 252.831 393.124C253.918 393.124 254.713 392.945 255.216 392.588C255.735 392.231 255.995 391.769 255.995 391.201C255.995 390.763 255.841 390.406 255.532 390.13C255.24 389.854 254.867 389.643 254.413 389.497C253.958 389.351 253.342 389.197 252.563 389.035C251.508 388.808 250.648 388.572 249.983 388.329C249.334 388.085 248.774 387.704 248.304 387.185C247.849 386.649 247.622 385.927 247.622 385.019C247.622 383.785 248.117 382.796 249.107 382.049C250.113 381.287 251.476 380.905 253.196 380.905C254.072 380.905 254.916 381.011 255.727 381.222C256.555 381.416 257.261 381.708 257.845 382.098L256.993 383.996C255.938 383.266 254.648 382.901 253.123 382.901C252.068 382.901 251.281 383.088 250.762 383.461C250.243 383.818 249.983 384.288 249.983 384.873C249.983 385.311 250.129 385.668 250.421 385.944C250.729 386.219 251.111 386.43 251.565 386.576C252.036 386.722 252.66 386.877 253.439 387.039C254.51 387.282 255.362 387.526 255.995 387.769C256.644 387.996 257.196 388.369 257.65 388.889C258.121 389.408 258.356 390.106 258.356 390.982C258.356 392.248 257.853 393.254 256.847 394C255.857 394.746 254.486 395.12 252.733 395.12Z" fill="#7469FC"/>
</g>
<g opacity="0.5">
<path d="M185.108 292.82C185.936 293.047 186.568 293.452 187.006 294.037C187.461 294.621 187.688 295.359 187.688 296.251C187.688 297.452 187.217 298.377 186.276 299.026C185.351 299.675 183.996 300 182.212 300H175.396V286.175H181.822C183.461 286.175 184.727 286.499 185.619 287.148C186.512 287.781 186.958 288.649 186.958 289.753C186.958 290.467 186.796 291.083 186.471 291.603C186.146 292.122 185.692 292.527 185.108 292.82ZM177.757 287.976V292.114H181.579C182.536 292.114 183.274 291.935 183.794 291.578C184.329 291.221 184.597 290.71 184.597 290.045C184.597 289.363 184.337 288.852 183.818 288.511C183.299 288.154 182.552 287.976 181.579 287.976H177.757ZM182.09 298.199C184.232 298.199 185.303 297.485 185.303 296.057C185.303 294.629 184.232 293.915 182.09 293.915H177.757V298.199H182.09Z" fill="#7469FC"/>
<path d="M201.843 300.194C199.944 300.194 198.46 299.659 197.389 298.588C196.318 297.517 195.782 296.016 195.782 294.085V286.175H198.143V294.037C198.143 295.383 198.46 296.406 199.092 297.103C199.725 297.801 200.65 298.15 201.867 298.15C203.068 298.15 203.985 297.801 204.618 297.103C205.267 296.406 205.591 295.383 205.591 294.037V286.175H207.903V294.085C207.903 296.016 207.368 297.517 206.297 298.588C205.226 299.659 203.741 300.194 201.843 300.194Z" fill="#7469FC"/>
<path d="M217.34 286.175H219.7V300H217.34V286.175Z" fill="#7469FC"/>
<path d="M229.267 286.175H231.628V298.028H239.051V300H229.267V286.175Z" fill="#7469FC"/>
<path d="M246.471 286.175H252.483C254.024 286.175 255.371 286.459 256.523 287.027C257.675 287.595 258.56 288.406 259.176 289.461C259.809 290.499 260.126 291.708 260.126 293.087C260.126 294.467 259.809 295.683 259.176 296.738C258.56 297.777 257.675 298.58 256.523 299.148C255.371 299.716 254.024 300 252.483 300H246.471V286.175ZM252.386 298.028C254.073 298.028 255.387 297.59 256.329 296.714C257.27 295.821 257.74 294.613 257.74 293.087C257.74 291.546 257.27 290.337 256.329 289.461C255.387 288.568 254.073 288.122 252.386 288.122H248.832V298.028H252.386Z" fill="#7469FC"/>
</g>
<path d="M383.369 760.95H374.441C373.354 760.95 372.5 760.094 372.5 759.004C372.5 757.914 373.354 757.057 374.441 757.057H383.447C389.891 757.057 395.093 751.841 395.093 745.379V671.971V669.946C395.093 668.857 395.947 668 397.034 668C398.121 668 398.975 668.857 398.975 669.946V671.971V745.379C398.897 754.021 391.987 760.95 383.369 760.95Z" fill="url(#paint1_linear)"/>
<path d="M383.369 481H343.441C342.354 481 341.5 481.856 341.5 482.946C341.5 484.036 342.354 484.893 343.441 484.893H383.447C389.891 484.893 395.093 490.109 395.093 496.571V679.979V682.003C395.093 683.093 395.947 683.95 397.034 683.95C398.121 683.95 398.975 683.093 398.975 682.003V679.979V496.571C398.897 487.929 391.987 481 383.369 481Z" fill="url(#paint2_linear)"/>
<path d="M36.7528 117.896V79.941C36.7528 78.854 37.6092 78 38.6991 78C39.7891 78 40.6455 78.854 40.6455 79.941V117.896H42.5918C43.9932 117.896 44.8496 119.449 44.1489 120.613L40.2562 127.29C39.5555 128.532 37.8427 128.532 37.142 127.29L33.2493 120.613C32.5486 119.371 33.405 117.896 34.8064 117.896H36.7528Z" fill="url(#paint3_linear)"/>
<path d="M36.7428 779.5V772.5C36.7428 764 43.7428 757 52.3428 757H384.443C385.543 757 387 759 387 760C385.5 761 383.5 761 382.5 761H52.3428C45.8428 761 40.6428 766 40.6428 772.4V779.5H42.6428C44.0428 779.5 44.9428 781.1 44.2428 782.2L40.3428 788.9C39.5428 790 37.8428 790 37.1428 788.9L33.2428 782.2C32.5428 781 33.4428 779.5 34.8428 779.5H36.7428Z" fill="url(#paint4_linear)"/>
<defs>
<filter id="filter0_d" x="105.129" y="445.85" width="235.547" height="78.1509" filterUnits="userSpaceOnUse" color-interpolation-filters="sRGB">
<feFlood flood-opacity="0" result="BackgroundImageFix"/>
<feColorMatrix in="SourceAlpha" type="matrix" values="0 0 0 0 0 0 0 0 0 0 0 0 0 0 0 0 0 0 127 0"/>
<feOffset dx="2" dy="4"/>
<feGaussianBlur stdDeviation="2.5"/>
<feColorMatrix type="matrix" values="0 0 0 0 0.447059 0 0 0 0 0.45098 0 0 0 0 0.992157 0 0 0 0.2 0"/>
<feBlend mode="normal" in2="BackgroundImageFix" result="effect1_dropShadow"/>
<feBlend mode="normal" in="SourceGraphic" in2="effect1_dropShadow" result="shape"/>
</filter>
<filter id="filter1_d" x="0.132812" y="134" width="80.5849" height="80.5849" filterUnits="userSpaceOnUse" color-interpolation-filters="sRGB">
<feFlood flood-opacity="0" result="BackgroundImageFix"/>
<feColorMatrix in="SourceAlpha" type="matrix" values="0 0 0 0 0 0 0 0 0 0 0 0 0 0 0 0 0 0 127 0"/>
<feOffset dx="2" dy="4"/>
<feGaussianBlur stdDeviation="2.5"/>
<feColorMatrix type="matrix" values="0 0 0 0 0.447059 0 0 0 0 0.45098 0 0 0 0 0.992157 0 0 0 0.2 0"/>
<feBlend mode="normal" in2="BackgroundImageFix" result="effect1_dropShadow"/>
<feBlend mode="normal" in="SourceGraphic" in2="effect1_dropShadow" result="shape"/>
</filter>
<filter id="filter2_d" x="0.431641" y="0" width="80.5849" height="80.5849" filterUnits="userSpaceOnUse" color-interpolation-filters="sRGB">
<feFlood flood-opacity="0" result="BackgroundImageFix"/>
<feColorMatrix in="SourceAlpha" type="matrix" values="0 0 0 0 0 0 0 0 0 0 0 0 0 0 0 0 0 0 127 0"/>
<feOffset dx="2" dy="4"/>
<feGaussianBlur stdDeviation="2.5"/>
<feColorMatrix type="matrix" values="0 0 0 0 0.447059 0 0 0 0 0.45098 0 0 0 0 0.992157 0 0 0 0.2 0"/>
<feBlend mode="normal" in2="BackgroundImageFix" result="effect1_dropShadow"/>
<feBlend mode="normal" in="SourceGraphic" in2="effect1_dropShadow" result="shape"/>
</filter>
<filter id="filter3_d" x="105.129" y="350.925" width="235.547" height="78.1509" filterUnits="userSpaceOnUse" color-interpolation-filters="sRGB">
<feFlood flood-opacity="0" result="BackgroundImageFix"/>
<feColorMatrix in="SourceAlpha" type="matrix" values="0 0 0 0 0 0 0 0 0 0 0 0 0 0 0 0 0 0 127 0"/>
<feOffset dx="2" dy="4"/>
<feGaussianBlur stdDeviation="2.5"/>
<feColorMatrix type="matrix" values="0 0 0 0 0.447059 0 0 0 0 0.45098 0 0 0 0 0.992157 0 0 0 0.2 0"/>
<feBlend mode="normal" in2="BackgroundImageFix" result="effect1_dropShadow"/>
<feBlend mode="normal" in="SourceGraphic" in2="effect1_dropShadow" result="shape"/>
</filter>
<filter id="filter4_d" x="0" y="799" width="81.3962" height="80.5849" filterUnits="userSpaceOnUse" color-interpolation-filters="sRGB">
<feFlood flood-opacity="0" result="BackgroundImageFix"/>
<feColorMatrix in="SourceAlpha" type="matrix" values="0 0 0 0 0 0 0 0 0 0 0 0 0 0 0 0 0 0 127 0"/>
<feOffset dx="2" dy="4"/>
<feGaussianBlur stdDeviation="2.5"/>
<feColorMatrix type="matrix" values="0 0 0 0 0.447059 0 0 0 0 0.45098 0 0 0 0 0.992157 0 0 0 0.2 0"/>
<feBlend mode="normal" in2="BackgroundImageFix" result="effect1_dropShadow"/>
<feBlend mode="normal" in="SourceGraphic" in2="effect1_dropShadow" result="shape"/>
</filter>
<filter id="filter5_d" x="105.129" y="256" width="235.547" height="78.9623" filterUnits="userSpaceOnUse" color-interpolation-filters="sRGB">
<feFlood flood-opacity="0" result="BackgroundImageFix"/>
<feColorMatrix in="SourceAlpha" type="matrix" values="0 0 0 0 0 0 0 0 0 0 0 0 0 0 0 0 0 0 127 0"/>
<feOffset dx="2" dy="4"/>
<feGaussianBlur stdDeviation="2.5"/>
<feColorMatrix type="matrix" values="0 0 0 0 0.447059 0 0 0 0 0.45098 0 0 0 0 0.992157 0 0 0 0.2 0"/>
<feBlend mode="normal" in2="BackgroundImageFix" result="effect1_dropShadow"/>
<feBlend mode="normal" in="SourceGraphic" in2="effect1_dropShadow" result="shape"/>
</filter>
<filter id="filter6_d" x="182.426" y="563.694" width="81.4724" height="81.4724" filterUnits="userSpaceOnUse" color-interpolation-filters="sRGB">
<feFlood flood-opacity="0" result="BackgroundImageFix"/>
<feColorMatrix in="SourceAlpha" type="matrix" values="0 0 0 0 0 0 0 0 0 0 0 0 0 0 0 0 0 0 127 0"/>
<feOffset dx="2" dy="4"/>
<feGaussianBlur stdDeviation="2.5"/>
<feColorMatrix type="matrix" values="0 0 0 0 0.447059 0 0 0 0 0.45098 0 0 0 0 0.992157 0 0 0 0.2 0"/>
<feBlend mode="normal" in2="BackgroundImageFix" result="effect1_dropShadow"/>
<feBlend mode="normal" in="SourceGraphic" in2="effect1_dropShadow" result="shape"/>
</filter>
<linearGradient id="paint0_linear" x1="-304.086" y1="492.67" x2="538.933" y2="492.67" gradientUnits="userSpaceOnUse">
<stop stop-color="#6B92FE"/>
<stop offset="1" stop-color="#7858FB"/>
</linearGradient>
<linearGradient id="paint1_linear" x1="89.8827" y1="538.411" x2="932.901" y2="538.411" gradientUnits="userSpaceOnUse">
<stop stop-color="#6B92FE"/>
<stop offset="1" stop-color="#7858FB"/>
</linearGradient>
<linearGradient id="paint2_linear" x1="89.8827" y1="683.539" x2="932.901" y2="683.539" gradientUnits="userSpaceOnUse">
<stop stop-color="#6B92FE"/>
<stop offset="1" stop-color="#7858FB"/>
</linearGradient>
<linearGradient id="paint3_linear" x1="-67.9234" y1="-35.0861" x2="-67.9234" y2="807.932" gradientUnits="userSpaceOnUse">
<stop stop-color="#6B92FE"/>
<stop offset="1" stop-color="#7858FB"/>
</linearGradient>
<linearGradient id="paint4_linear" x1="133.818" y1="653.293" x2="133.818" y2="1005.59" gradientUnits="userSpaceOnUse">
<stop stop-color="#6B92FE"/>
<stop offset="1" stop-color="#7858FB"/>
</linearGradient>
</defs>
</svg>
