<?xml version="1.0" encoding="utf-8"?>
<!-- Generator: Adobe Illustrator 23.0.1, SVG Export Plug-In . SVG Version: 6.00 Build 0)  -->
<svg version="1.1" id="Layer_1" xmlns="http://www.w3.org/2000/svg" xmlns:xlink="http://www.w3.org/1999/xlink" x="0px" y="0px"
	 viewBox="0 0 405 380" style="enable-background:new 0 0 405 380;" xml:space="preserve">
<style type="text/css">
	.st0{fill:#F8F8F8;}
	.st1{fill:#13AB4B;fill-opacity:0.8;}
	.st2{fill-rule:evenodd;clip-rule:evenodd;fill:#13AB4B;fill-opacity:0.8;}
	.st3{fill:#EFEBF5;}
	.st4{fill:url(#SVGID_1_);}
	.st5{fill:url(#SVGID_2_);}
	.st6{fill:#785BFB;}
	.st7{opacity:0.5;}
	.st8{opacity:0.5;fill:#7469FC;enable-background:new    ;}
</style>
<path class="st0" d="M103.7,189.9h202c6.5,0,11.8,5,11.8,11.2v45.7c0,6.2-5.3,11.2-11.8,11.2h-202c-6.5,0-11.8-5-11.8-11.2v-45.7
	C91.9,194.9,97.2,189.9,103.7,189.9z"/>
<path class="st1" d="M402.2,127.1h-4.4v2.8h4.4V127.1z"/>
<path class="st1" d="M378.6,127.1h-4.3v2.8h4.3V127.1z"/>
<path class="st1" d="M386.5,127.1h-4.4v2.8h4.4V127.1z"/>
<path class="st1" d="M394.3,127.1h-4.4v2.8h4.4V127.1z"/>
<path class="st1" d="M355,127.1h-4.4v2.8h4.4V127.1z"/>
<path class="st1" d="M362.9,127.1h-4.4v2.8h4.4V127.1z"/>
<path class="st1" d="M370.7,127.1h-4.4v2.8h4.4V127.1z"/>
<path class="st2" d="M331.4,129.9v-2.8h-3c-0.8,0-1.4,0.6-1.4,1.4s0.6,1.4,1.4,1.4H331.4z"/>
<path class="st1" d="M339.3,127.1h-4.4v2.8h4.4V127.1z"/>
<path class="st1" d="M347.1,127.1h-4.3v2.8h4.3V127.1z"/>
<path class="st3" d="M76.6,131H2.9c-0.9,0-1.6-0.9-1.6-2c0-1.1,0.7-1.9,1.6-1.9h73.7c0.9,0,1.6,0.7,1.6,1.9S77.5,131,76.6,131z"/>
<path class="st3" d="M8.7,131H3.8c-0.9,0-1.6-0.7-1.6-1.6c0-0.9,0.7-1.6,1.6-1.6h4.9c6.5,0,11.8-5.2,11.8-11.6V45.9
	c0-8.2,6.7-14.9,15-14.9h41.1c0.9,0,1.6,0.7,1.6,1.6c0,0.9-0.7,1.6-1.6,1.6H35.5c-6.5,0-11.8,5.2-11.8,11.6V116
	C23.8,124.3,17,131,8.7,131z"/>
<path class="st3" d="M83.6,34l-7.3,3.9c-1.4,0.7-3-0.2-3-1.6v-7.8c0-1.4,1.7-2.2,3-1.6l7.3,3.9C84.9,31.5,84.9,33.3,83.6,34z"/>
<path class="st0" d="M103.7,94.9h202c6.5,0,11.8,5,11.8,11.2v45.7c0,6.2-5.3,11.2-11.8,11.2h-202c-6.5,0-11.8-5-11.8-11.2v-45.7
	C91.9,100,97.2,94.9,103.7,94.9z"/>
<path class="st3" d="M83.6,127.7l-7.3-4.2c-1.4-0.7-3,0.2-3,1.7v8.3c0,1.5,1.7,2.4,3,1.7l7.3-4.2C84.9,130.3,84.9,128.5,83.6,127.7z
	"/>
<path class="st0" d="M103.7,0h202c6.5,0,11.8,5.1,11.8,11.4v46.3c0,6.3-5.3,11.4-11.8,11.4h-202c-6.5,0-11.8-5.1-11.8-11.4V11.4
	C91.9,5.1,97.2,0,103.7,0z"/>
<path class="st2" d="M398.8,129.9v-2.8h-4.7l-0.2,2.8H398.8z"/>
<path class="st2" d="M379.9,116.3l2.8-0.2v-4.6h-2.8V116.3z"/>
<path class="st2" d="M382.4,124.8l2.3-1.8c-0.9-1.1-1.4-2.4-1.7-3.7l-2.7,1C380.7,121.9,381.4,123.5,382.4,124.8z"/>
<path class="st2" d="M389.8,129.6l0.9-2.7c-1.3-0.3-2.6-0.9-3.7-1.6l-1.8,2.3C386.6,128.6,388.2,129.3,389.8,129.6z"/>
<path class="st1" d="M382.7,85.8h-2.8v4.7h2.8V85.8z"/>
<path class="st1" d="M382.7,94.4h-2.8v4.7h2.8V94.4z"/>
<path class="st1" d="M382.7,102.8h-2.8v4.7h2.8V102.8z"/>
<path class="st1" d="M382.7,60.2h-2.8v4.7h2.8V60.2z"/>
<path class="st1" d="M382.7,68.7h-2.8v4.7h2.8V68.7z"/>
<path class="st1" d="M382.7,77.2h-2.8v4.7h2.8V77.2z"/>
<path class="st2" d="M379.2,39.9l2.6-1.2c-0.7-1.6-1.6-3.2-3-4.4l-2,2C377.8,37.3,378.6,38.5,379.2,39.9z"/>
<path class="st2" d="M379.9,47.8h2.8v-2.5c0-0.9,0-1.8-0.1-2.6l-2.8,0.5c0.1,0.7,0,1.5,0,2.2L379.9,47.8z"/>
<path class="st1" d="M382.7,51.6h-2.8v4.7h2.8V51.6z"/>
<path class="st1" d="M357.6,30.3h-4.7v2.8h4.7V30.3z"/>
<path class="st1" d="M366.1,30.3h-4.7v2.8h4.7V30.3z"/>
<path class="st2" d="M373.9,34.2l1.5-2.5c-1.6-0.8-3.3-1.3-5.1-1.4l-0.6,2.8C371.1,33.1,372.6,33.5,373.9,34.2z"/>
<path class="st2" d="M332,33.1v-2.8h-3.3c-0.8,0-1.4,0.6-1.4,1.4s0.6,1.4,1.4,1.4H332z"/>
<path class="st1" d="M340.5,30.3h-4.7v2.8h4.7V30.3z"/>
<path class="st1" d="M349,30.3h-4.8v2.8h4.7v-2.8H349z"/>
<path class="st3" d="M15.1,185.4l-2.3,2.3l0.3,0.3l2.3-2.3L15.1,185.4z"/>
<path class="st0" d="M229.2,379.2h-48.6c-6.3,0-11.4-5.1-11.4-11.4v-48.6c0-6.3,5.1-11.4,11.4-11.4h48.6c6.3,0,11.4,5.1,11.4,11.4
	v48.6C240.7,374.1,235.6,379.2,229.2,379.2z"/>
<linearGradient id="SVGID_1_" gradientUnits="userSpaceOnUse" x1="24.9928" y1="134.2" x2="377.287" y2="134.2" gradientTransform="matrix(1 0 0 -1 0 382)">
	<stop  offset="1.281415e-03" style="stop-color:#707CFD"/>
	<stop  offset="1" style="stop-color:#7660FB"/>
</linearGradient>
<path class="st4" d="M274.9,266.5l3.9,6.7c0.7,1.2-0.2,2.7-1.6,2.7h-7.8c-1.4,0-2.3-1.6-1.6-2.7l3.9-6.7
	C272.4,265.4,274.2,265.4,274.9,266.5z M153.2,344.9h-9c-8.5,0-15.5-7-15.5-15.6v-62.1c0-1.1,0.9-1.9,1.9-1.9c1.1,0,1.9,0.9,1.9,1.9
	v62.1c0,6.5,5.2,11.7,11.6,11.7h9c1.1,0,1.9,0.9,1.9,1.9S154.3,344.9,153.2,344.9z M259.7,344.9h-8.9c-1.1,0-1.9-0.9-1.9-1.9
	s0.9-1.9,1.9-1.9h9c6.4,0,11.6-5.2,11.6-11.7V274c0-1.1,0.9-1.9,1.9-1.9c1.1,0,1.9,0.9,1.9,1.9v55.4
	C275.2,338,268.3,344.9,259.7,344.9z M75.9,228.2H35.8c-8.5,0-15.5-7-15.5-15.6v-69.9c0-6.5-5.2-11.7-11.6-11.7H1.9
	c-1.1,0-1.9-0.9-1.9-1.9c0-1.1,0.9-1.9,1.9-1.9h6.8c8.5,0,15.5,7,15.5,15.6v69.9c0,6.5,5.2,11.7,11.6,11.7h40.1
	c1.1,0,1.9,0.9,1.9,1.9C77.9,227.2,77,228.2,75.9,228.2z M83.2,227.8l-6.7,3.9c-1.2,0.7-2.7-0.2-2.7-1.6v-7.8c0-1.4,1.6-2.3,2.7-1.6
	l6.7,3.9C84.5,225.3,84.5,227.1,83.2,227.8z M367.2,227.7h-40c-1.1,0-1.9-0.9-1.9-1.9s0.9-1.9,1.9-1.9h40c6.4,0,11.6-5.2,11.6-11.7
	v-71.9c0-7.5,6.1-13.6,13.6-13.6l10-0.1l-0.1,3.8l-9.8,0.2c-5.4,0-9.8,4.4-9.8,9.7v71.9C382.8,220.7,375.9,227.7,367.2,227.7z
	 M402.7,130l-0.2,0.2v-3.7l0.7,0.5L402.7,130z M160.6,344.5l-6.7,3.9c-1.2,0.7-2.7-0.2-2.7-1.6V339c0-1.4,1.6-2.3,2.7-1.6l6.7,3.9
	C161.7,342.1,161.7,343.8,160.6,344.5z M233.2,317.8c-0.8,0-1.4,0.5-1.8,1.1l-4.5,8.5c-0.5,1-0.2,2.3,0.9,2.8c1,0.5,2.3,0.2,2.8-0.9
	l4.6-8.5C235.8,319.4,234.8,317.8,233.2,317.8z M215.6,337.7c1,0.5,2.3,0.2,2.8-0.9l8.6-16c0.7-1.3-0.2-3-1.8-3
	c-1,0-1.6,0.7-1.8,1.2l-8.5,16C214.2,335.9,214.6,337.2,215.6,337.7z M213.7,341.2c-1-0.5-2.3-0.2-2.8,0.9l-4.6,8.5
	c-0.4,0.8-0.3,1.7,0.3,2.3c1.1,1.2,2.6,0.9,3.3-0.5l4.5-8.4C215,343,214.6,341.7,213.7,341.2z M211.5,330.1c1,0.5,2.3,0.2,2.8-0.9
	l4.6-8.5c0.7-1.3-0.3-3-1.8-3c-0.8,0-1.4,0.5-1.8,1.1l-4.5,8.5C210.1,328.4,210.5,329.6,211.5,330.1z M205.8,345l4.6-8.6
	c0.5-1,0.2-2.3-0.9-2.8c-1-0.5-2.3-0.2-2.8,0.9l-4.5,8.5c-0.3,0.6-0.3,1.3,0,1.9C203,346.5,205.1,346.5,205.8,345z M199.6,347.2
	c-0.9-1.5-2.3-2.3-4-2.3l-17.5,0.1c-2.5,0-4,2.6-2.8,4.8l9.3,17c0.8,1.4,2.3,2.3,3.9,2.3l17.9-0.1c2.5,0,4-2.7,2.8-4.8L199.6,347.2z
	 M225.9,333.6c-1-0.5-2.3-0.2-2.8,0.9l-11.3,21.3l-1.1,2.1c-0.5,1-0.2,2.3,0.9,2.8c1,0.5,2.3,0.2,2.8-0.9L226,338c0,0,0-0.1,0.1-0.2
	l0.8-1.5C227.3,335.4,226.8,334.2,225.9,333.6z"/>
<linearGradient id="SVGID_2_" gradientUnits="userSpaceOnUse" x1="-320.316" y1="253.5" x2="522.7009" y2="253.5" gradientTransform="matrix(1 0 0 -1 0 382)">
	<stop  offset="0" style="stop-color:#6B92FE"/>
	<stop  offset="1" style="stop-color:#7858FB"/>
</linearGradient>
<path class="st5" d="M396,130.4h6.4c1.1,0,1.9-0.9,1.9-1.9s-0.9-1.9-1.9-1.9H396c-1.1,0-1.9,0.9-1.9,1.9S394.9,130.4,396,130.4z"/>
<path class="st6" d="M135.5,218.6c2,0,3.7,0.8,4.9,2.3c0.1,0.1,0.2,0.3,0.2,0.5c0,0.3-0.1,0.5-0.4,0.7c-0.1,0.1-0.3,0.1-0.5,0.1
	s-0.5-0.1-0.7-0.4c-0.5-0.5-1-0.9-1.6-1.2c-0.6-0.3-1.2-0.4-1.9-0.4c-0.9,0-1.7,0.2-2.4,0.7c-0.7,0.4-1.2,1-1.6,1.8
	s-0.6,1.7-0.6,2.6c0,1,0.2,1.8,0.6,2.6c0.4,0.8,1,1.4,1.7,1.8c0.7,0.4,1.6,0.7,2.5,0.7c1.3,0,2.3-0.3,3.1-1c0.2-0.2,0.4-0.3,0.7-0.3
	c0.2,0,0.4,0.1,0.5,0.2c0.2,0.2,0.3,0.4,0.3,0.7c0,0.2-0.1,0.4-0.2,0.5c-1.2,1.1-2.6,1.6-4.4,1.6c-1.3,0-2.4-0.3-3.4-0.9
	c-1-0.6-1.8-1.4-2.4-2.4c-0.6-1-0.9-2.2-0.9-3.5s0.3-2.5,0.8-3.5c0.6-1,1.3-1.9,2.3-2.4C133.2,218.9,134.3,218.6,135.5,218.6z"/>
<path class="st6" d="M150.6,218.6c1.3,0,2.4,0.3,3.5,0.9c1,0.6,1.8,1.4,2.4,2.4s0.9,2.2,0.9,3.5c0,1.3-0.3,2.4-0.9,3.5
	c-0.6,1-1.4,1.8-2.4,2.4c-1,0.6-2.2,0.9-3.5,0.9c-1.3,0-2.4-0.3-3.5-0.9c-1-0.6-1.8-1.4-2.4-2.4c-0.6-1-0.9-2.2-0.9-3.5
	c0-1.3,0.3-2.4,0.9-3.5c0.6-1,1.4-1.9,2.4-2.4C148.1,218.9,149.3,218.6,150.6,218.6z M150.6,220.3c-0.9,0-1.8,0.2-2.5,0.7
	c-0.7,0.4-1.3,1-1.8,1.8c-0.4,0.8-0.6,1.6-0.6,2.6s0.2,1.8,0.6,2.6c0.4,0.8,1,1.4,1.8,1.8c0.8,0.4,1.6,0.7,2.5,0.7
	c0.9,0,1.8-0.2,2.5-0.7c0.7-0.4,1.3-1,1.8-1.8c0.4-0.8,0.6-1.6,0.6-2.6s-0.2-1.8-0.6-2.6c-0.4-0.8-1-1.4-1.8-1.8
	C152.4,220.5,151.5,220.3,150.6,220.3z"/>
<path class="st6" d="M174,219.4c0,0,0,0.1,0,0.2v5.7c0,1.3-0.3,2.4-0.9,3.5c-0.6,1-1.4,1.9-2.4,2.5c-1,0.6-2.2,0.9-3.4,0.9
	c-1.3,0-2.4-0.3-3.5-0.9c-1-0.6-1.8-1.4-2.4-2.5c-0.6-1-0.9-2.2-0.9-3.5s0.3-2.4,0.9-3.4c0.6-1,1.4-1.8,2.4-2.4s2.1-0.9,3.4-0.9
	c1.1,0,2,0.2,2.9,0.7c0.9,0.4,1.6,1,2.2,1.8V214c0-0.3,0.1-0.5,0.3-0.7c0.2-0.2,0.4-0.3,0.7-0.3s0.5,0.1,0.7,0.3s0.3,0.4,0.3,0.7
	v5.4H174z M167.3,230.5c0.9,0,1.8-0.2,2.5-0.7s1.3-1.1,1.8-1.8c0.4-0.8,0.7-1.6,0.7-2.6c0-0.3,0-0.5,0-0.6v-0.1
	c-0.2-1.3-0.7-2.3-1.6-3.1c-0.9-0.8-2-1.2-3.3-1.2c-0.9,0-1.8,0.2-2.5,0.7c-0.7,0.4-1.3,1-1.8,1.8c-0.4,0.8-0.6,1.6-0.6,2.6
	s0.2,1.8,0.6,2.6c0.4,0.8,1,1.4,1.8,1.8C165.5,230.2,166.4,230.5,167.3,230.5z"/>
<path class="st6" d="M184.4,218.6c1.2,0,2.3,0.3,3.2,0.9c0.9,0.6,1.6,1.3,2.1,2.3s0.8,2.1,0.8,3.4c0,0.3-0.1,0.5-0.2,0.6
	c-0.2,0.1-0.4,0.2-0.6,0.2h-9.8c0.1,1.3,0.6,2.4,1.6,3.2c0.9,0.8,2,1.2,3.4,1.2c0.6,0,1.2-0.1,1.8-0.3c0.6-0.2,1.1-0.5,1.4-0.8
	c0.2-0.2,0.4-0.2,0.7-0.2c0.2,0,0.4,0.1,0.5,0.2c0.2,0.2,0.3,0.4,0.3,0.7c0,0.2-0.1,0.4-0.3,0.6c-0.5,0.5-1.2,0.8-2,1.1
	c-0.8,0.3-1.6,0.4-2.4,0.4c-1.3,0-2.5-0.3-3.5-0.9c-1-0.6-1.8-1.4-2.4-2.4c-0.6-1-0.9-2.2-0.9-3.5s0.3-2.5,0.8-3.5
	c0.6-1,1.3-1.8,2.3-2.4C182,218.9,183.1,218.6,184.4,218.6z M184.4,220.3c-1.2,0-2.3,0.4-3.1,1.1c-0.8,0.8-1.3,1.8-1.5,3h8.9
	c-0.1-1.2-0.6-2.3-1.4-3C186.6,220.7,185.6,220.3,184.4,220.3z"/>
<path class="st6" d="M199.8,218.6c1.9,0,3.5,0.7,4.8,2.2c0.2,0.2,0.2,0.4,0.2,0.6c0,0.4-0.2,0.7-0.5,0.9c-0.2,0.1-0.3,0.2-0.6,0.2
	c-0.4,0-0.7-0.1-0.9-0.4c-0.4-0.4-0.9-0.8-1.3-0.9c-0.5-0.2-1-0.3-1.6-0.3c-1.2,0-2.3,0.4-3,1.3c-0.8,0.8-1.2,1.9-1.2,3.3
	c0,0.9,0.2,1.7,0.5,2.4c0.4,0.7,0.9,1.2,1.5,1.6c0.7,0.4,1.4,0.6,2.3,0.6c1.1,0,2-0.3,2.7-0.9c0.3-0.2,0.6-0.3,0.9-0.3
	c0.2,0,0.4,0.1,0.6,0.2c0.3,0.3,0.5,0.6,0.5,0.9c0,0.2-0.1,0.5-0.3,0.7c-1.2,1.1-2.6,1.6-4.4,1.6c-1.3,0-2.4-0.3-3.5-0.9
	c-1-0.6-1.8-1.4-2.4-2.4c-0.6-1-0.9-2.2-0.9-3.5s0.3-2.5,0.8-3.5c0.6-1,1.4-1.8,2.4-2.4C197.4,218.9,198.5,218.6,199.8,218.6z"/>
<path class="st6" d="M215.4,218.6c1.1,0,2.1,0.2,3,0.7c0.9,0.5,1.6,1.2,2.1,2.1c0.5,0.9,0.8,2,0.8,3.4v6c0,0.4-0.1,0.7-0.4,0.9
	c-0.2,0.2-0.5,0.3-0.9,0.3s-0.7-0.1-0.9-0.3c-0.2-0.2-0.3-0.5-0.3-0.9v-6c0-1.3-0.4-2.3-1.1-3s-1.6-1-2.8-1c-0.7,0-1.3,0.1-1.9,0.4
	s-1,0.6-1.3,1.1s-0.5,1-0.5,1.6v6.9c0,0.4-0.1,0.7-0.3,0.9c-0.2,0.2-0.5,0.3-0.9,0.3s-0.7-0.1-0.9-0.3c-0.2-0.2-0.3-0.5-0.3-0.9
	v-16.6c0-0.4,0.1-0.7,0.3-0.9c0.2-0.2,0.5-0.3,0.9-0.3s0.7,0.1,0.9,0.3c0.2,0.2,0.3,0.5,0.3,0.9v6c0.5-0.5,1.1-0.9,1.9-1.2
	C213.8,218.7,214.6,218.6,215.4,218.6z"/>
<path class="st6" d="M237.6,225.2c0,0.3-0.1,0.6-0.3,0.8s-0.5,0.3-0.8,0.3h-9.3c0.2,1.1,0.7,2.1,1.5,2.8c0.9,0.7,1.9,1,3.1,1
	c0.5,0,1-0.1,1.5-0.3s1-0.4,1.3-0.7c0.2-0.2,0.5-0.3,0.8-0.3c0.3,0,0.6,0.1,0.7,0.2c0.3,0.2,0.4,0.5,0.4,0.8s-0.1,0.5-0.4,0.7
	c-0.6,0.4-1.2,0.8-2.1,1.1c-0.8,0.3-1.6,0.4-2.3,0.4c-1.3,0-2.5-0.3-3.6-0.9c-1.1-0.6-1.9-1.4-2.5-2.4c-0.6-1-0.9-2.2-0.9-3.5
	s0.3-2.5,0.8-3.5c0.6-1,1.3-1.8,2.3-2.4c1-0.6,2.1-0.9,3.4-0.9c1.2,0,2.3,0.3,3.2,0.8c0.9,0.5,1.6,1.3,2.1,2.3
	C237.3,222.8,237.6,223.9,237.6,225.2z M231.5,220.7c-1.2,0-2.2,0.3-2.9,1c-0.7,0.6-1.2,1.5-1.4,2.6h8.1c-0.1-1.1-0.6-2-1.2-2.6
	C233.4,221,232.6,220.7,231.5,220.7z"/>
<path class="st6" d="M246.4,218.6c1.9,0,3.5,0.7,4.8,2.2c0.2,0.2,0.2,0.4,0.2,0.6c0,0.4-0.2,0.7-0.5,0.9c-0.2,0.1-0.3,0.2-0.6,0.2
	c-0.4,0-0.7-0.1-0.9-0.4c-0.4-0.4-0.9-0.8-1.3-0.9c-0.5-0.2-1-0.3-1.6-0.3c-1.2,0-2.3,0.4-3,1.3c-0.8,0.8-1.2,1.9-1.2,3.3
	c0,0.9,0.2,1.7,0.5,2.4c0.4,0.7,0.9,1.2,1.5,1.6c0.7,0.4,1.4,0.6,2.3,0.6c1.1,0,2-0.3,2.7-0.9c0.3-0.2,0.6-0.3,0.9-0.3
	c0.2,0,0.4,0.1,0.6,0.2c0.3,0.3,0.5,0.6,0.5,0.9c0,0.2-0.1,0.5-0.3,0.7c-1.2,1.1-2.6,1.6-4.4,1.6c-1.3,0-2.4-0.3-3.5-0.9
	c-1-0.6-1.8-1.4-2.4-2.4c-0.6-1-0.9-2.2-0.9-3.5s0.3-2.5,0.8-3.5c0.6-1,1.4-1.8,2.4-2.4C244,218.9,245.1,218.6,246.4,218.6z"/>
<path class="st6" d="M265.4,230.3c0.2,0.2,0.3,0.4,0.3,0.7c0,0.4-0.1,0.7-0.4,0.9c-0.2,0.2-0.5,0.3-0.8,0.3c-0.4,0-0.6-0.1-0.9-0.4
	l-4.6-5.7l-1.2,1.1v3.7c0,0.4-0.1,0.6-0.3,0.9c-0.2,0.2-0.5,0.3-0.9,0.3s-0.6-0.1-0.9-0.3c-0.2-0.2-0.3-0.5-0.3-0.9v-16.6
	c0-0.4,0.1-0.6,0.3-0.9c0.2-0.2,0.5-0.3,0.9-0.3s0.6,0.1,0.9,0.3c0.2,0.2,0.3,0.5,0.3,0.9v9.9l5.9-5.3c0.2-0.2,0.5-0.3,0.8-0.3
	s0.6,0.1,0.8,0.4c0.2,0.2,0.3,0.5,0.3,0.8s-0.1,0.6-0.4,0.8l-4.5,4L265.4,230.3z"/>
<path class="st6" d="M274.1,218.6c1.1,0,2,0.2,2.8,0.5c0.8,0.3,1.5,0.8,2,1.4c0.2,0.3,0.3,0.5,0.3,0.8s-0.1,0.5-0.4,0.8
	c-0.2,0.1-0.4,0.2-0.7,0.2c-0.4,0-0.8-0.2-1.1-0.5c-0.4-0.4-0.8-0.6-1.3-0.8s-1-0.2-1.7-0.2s-1.4,0.1-1.8,0.4
	c-0.5,0.2-0.7,0.6-0.7,1c0,0.3,0.1,0.6,0.2,0.8c0.2,0.2,0.5,0.4,0.9,0.6c0.5,0.2,1.1,0.4,2,0.5c1.8,0.4,3,0.9,3.7,1.5
	c0.7,0.6,1.1,1.5,1.1,2.5c0,0.7-0.2,1.4-0.6,2c-0.4,0.6-1,1.1-1.8,1.4s-1.7,0.5-2.8,0.5c-1.1,0-2.1-0.2-3.1-0.5s-1.7-0.8-2.3-1.3
	c-0.2-0.2-0.3-0.5-0.3-0.8c0-0.4,0.2-0.7,0.5-1c0.3-0.2,0.6-0.3,0.9-0.3c0.3,0,0.6,0.1,0.9,0.4c0.3,0.3,0.8,0.6,1.4,0.9
	c0.6,0.2,1.3,0.4,2,0.4c0.9,0,1.6-0.2,2.1-0.5s0.8-0.7,0.8-1.2s-0.3-0.9-0.8-1.2c-0.5-0.3-1.4-0.6-2.6-0.9c-3.1-0.6-4.7-1.9-4.7-3.8
	c0-0.8,0.2-1.5,0.7-2c0.5-0.6,1.1-1,1.8-1.2C272.5,218.8,273.3,218.6,274.1,218.6z"/>
<g class="st7">
	<path class="st8" d="M164.9,126h-4.7v-1.9H172v1.9h-4.8v11.9h-2.4L164.9,126L164.9,126z"/>
	<path class="st8" d="M189.7,136v2h-10.4v-13.8h10.1v1.9h-7.7v3.9h6.9v1.9h-6.9v4.1H189.7z"/>
	<path class="st8" d="M202.1,138.1c-1.1,0-2.1-0.1-3.1-0.4s-1.8-0.7-2.4-1.2l0.9-1.8c0.6,0.5,1.2,0.8,2.1,1.1
		c0.8,0.3,1.7,0.4,2.6,0.4c1.1,0,1.9-0.2,2.4-0.5c0.5-0.4,0.8-0.8,0.8-1.4c0-0.4-0.2-0.8-0.5-1.1c-0.3-0.3-0.7-0.5-1.1-0.6
		c-0.5-0.1-1.1-0.3-1.8-0.5c-1.1-0.2-1.9-0.5-2.6-0.7c-0.6-0.2-1.2-0.6-1.7-1.1s-0.7-1.3-0.7-2.2c0-1.2,0.5-2.2,1.5-3
		c1-0.8,2.4-1.1,4.1-1.1c0.9,0,1.7,0.1,2.5,0.3c0.8,0.2,1.5,0.5,2.1,0.9l-0.9,1.9c-1.1-0.7-2.3-1.1-3.9-1.1c-1.1,0-1.8,0.2-2.4,0.6
		c-0.5,0.4-0.8,0.8-0.8,1.4c0,0.4,0.1,0.8,0.4,1.1c0.3,0.3,0.7,0.5,1.1,0.6c0.5,0.1,1.1,0.3,1.9,0.5c1.1,0.2,1.9,0.5,2.6,0.7
		c0.6,0.2,1.2,0.6,1.7,1.1s0.7,1.2,0.7,2.1c0,1.3-0.5,2.3-1.5,3C205.2,137.7,203.8,138.1,202.1,138.1z"/>
	<path class="st8" d="M218,126h-4.7v-1.9h11.8v1.9h-4.7v11.9H218V126z"/>
	<path class="st8" d="M236.5,138.1c-1.1,0-2.1-0.1-3.1-0.4s-1.8-0.7-2.4-1.2l0.9-1.8c0.6,0.5,1.2,0.8,2.1,1.1
		c0.8,0.3,1.7,0.4,2.6,0.4c1.1,0,1.9-0.2,2.4-0.5c0.5-0.4,0.8-0.8,0.8-1.4c0-0.4-0.2-0.8-0.5-1.1s-0.7-0.5-1.1-0.6
		c-0.5-0.1-1.1-0.3-1.8-0.5c-1.1-0.2-1.9-0.5-2.6-0.7c-0.6-0.2-1.2-0.6-1.7-1.1s-0.7-1.3-0.7-2.2c0-1.2,0.5-2.2,1.5-3
		c1-0.8,2.4-1.1,4.1-1.1c0.9,0,1.7,0.1,2.5,0.3c0.8,0.2,1.5,0.5,2.1,0.9l-0.9,1.9c-1.1-0.7-2.3-1.1-3.9-1.1c-1.1,0-1.8,0.2-2.4,0.6
		c-0.5,0.4-0.8,0.8-0.8,1.4c0,0.4,0.1,0.8,0.4,1.1c0.3,0.3,0.7,0.5,1.1,0.6c0.5,0.1,1.1,0.3,1.9,0.5c1.1,0.2,1.9,0.5,2.6,0.7
		c0.6,0.2,1.2,0.6,1.7,1.1s0.7,1.2,0.7,2.1c0,1.3-0.5,2.3-1.5,3C239.6,137.7,238.3,138.1,236.5,138.1z"/>
</g>
<g class="st7">
	<path class="st8" d="M168.9,35.8c0.8,0.2,1.5,0.6,1.9,1.2c0.5,0.6,0.7,1.3,0.7,2.2c0,1.2-0.5,2.1-1.4,2.8c-0.9,0.6-2.3,1-4.1,1
		h-6.8V29.2h6.4c1.6,0,2.9,0.3,3.8,1c0.9,0.6,1.3,1.5,1.3,2.6c0,0.7-0.2,1.3-0.5,1.8S169.5,35.5,168.9,35.8z M161.5,31v4.1h3.8
		c1,0,1.7-0.2,2.2-0.5c0.5-0.4,0.8-0.9,0.8-1.5c0-0.7-0.3-1.2-0.8-1.5c-0.5-0.4-1.3-0.5-2.2-0.5L161.5,31L161.5,31z M165.9,41.2
		c2.1,0,3.2-0.7,3.2-2.1S168,37,165.9,37h-4.3v4.3L165.9,41.2L165.9,41.2z"/>
	<path class="st8" d="M185.6,43.2c-1.9,0-3.4-0.5-4.5-1.6c-1.1-1.1-1.6-2.6-1.6-4.5v-7.9h2.4V37c0,1.3,0.3,2.4,0.9,3.1
		c0.6,0.7,1.6,1,2.8,1c1.2,0,2.1-0.3,2.8-1c0.6-0.7,1-1.7,1-3.1v-7.9h2.3V37c0,1.9-0.5,3.4-1.6,4.5C189,42.7,187.5,43.2,185.6,43.2z
		"/>
	<path class="st8" d="M201.1,29.2h2.4V43h-2.4V29.2z"/>
	<path class="st8" d="M213,29.2h2.4V41h7.4v2H213V29.2z"/>
	<path class="st8" d="M230.2,29.2h6c1.5,0,2.9,0.3,4,0.9c1.2,0.6,2,1.4,2.7,2.4c0.6,1,0.9,2.2,0.9,3.6s-0.3,2.6-0.9,3.7
		c-0.6,1-1.5,1.8-2.7,2.4c-1.2,0.6-2.5,0.9-4,0.9h-6V29.2z M236.2,41c1.7,0,3-0.4,3.9-1.3c0.9-0.9,1.4-2.1,1.4-3.6s-0.5-2.8-1.4-3.6
		c-0.9-0.9-2.3-1.3-3.9-1.3h-3.6V41H236.2z"/>
</g>
</svg>
