<?xml version="1.0" encoding="utf-8"?>
<!-- Generator: Adobe Illustrator 23.0.1, SVG Export Plug-In . SVG Version: 6.00 Build 0)  -->
<svg version="1.1" id="Layer_1" xmlns="http://www.w3.org/2000/svg" xmlns:xlink="http://www.w3.org/1999/xlink" x="0px" y="0px"
	 viewBox="0 0 176 71" style="enable-background:new 0 0 176 71;" xml:space="preserve">
<style type="text/css">
	.st0{fill:#13AB4B;fill-opacity:0.8;}
	.st1{fill:#F8F8F8;}
	.st2{fill:url(#SVGID_1_);}
	.st3{fill:url(#SVGID_2_);}
</style>
<path class="st0" d="M12,33.8H7.6v2.8H12V33.8z"/>
<path class="st0" d="M19.8,33.8h-4.3v2.8h4.3V33.8z"/>
<path class="st0" d="M27.7,33.8h-4.4v2.8h4.4V33.8z"/>
<path class="st1" d="M164,70.6h-48.6c-6.3,0-11.4-5.1-11.4-11.3v-48C104,5.1,109.1,0,115.4,0H164c6.3,0,11.4,5.1,11.4,11.3v48
	C175.5,65.6,170.4,70.6,164,70.6z"/>
<path class="st0" d="M10.5,33.8H5.8v2.8h4.7V33.8z"/>
<path class="st0" d="M19.1,33.8h-4.7v2.8h4.7V33.8z"/>
<path class="st0" d="M27.5,33.8h-4.7v2.8h4.7V33.8z"/>
<linearGradient id="SVGID_1_" gradientUnits="userSpaceOnUse" x1="90.8655" y1="36.95" x2="165.425" y2="36.95" gradientTransform="matrix(1 0 0 -1 0 72)">
	<stop  offset="0" style="stop-color:#7759FB"/>
	<stop  offset="1" style="stop-color:#7858FB"/>
</linearGradient>
<path class="st2" d="M162.3,25.8c-1.1,0-1.9,0.9-1.9,1.9l0.1,16.9c0,1.1-0.9,1.9-1.9,1.9l-20.4,0.1c-0.5,0-1,0.2-1.4,0.5l-9.5,9.6
	c-0.9,0.9-1.8,0.5-2.2,0.5c-0.2-0.2-1.2-0.6-1.2-1.8v-6.9c0-1.1-0.9-1.9-1.9-1.9h-4.2c-1.1,0-1.9-0.9-1.9-1.9L115.8,20
	c0-1.1,0.9-1.9,1.9-1.9l34.6-0.2c1.1,0,1.9-0.9,1.9-1.9c0-1.1-0.9-1.9-1.9-1.9l-34.6,0.2c-3.3,0-5.8,2.6-5.8,5.8l0.1,24.7
	c0,3.3,2.6,5.8,5.8,5.8h1.6c0.4,0,0.6,0.2,0.6,0.6v4c0,2.4,1.4,4.6,3.6,5.5c0.8,0.3,1.6,0.5,2.3,0.5c1.5,0,3-0.6,4.1-1.8l8.5-8.6
	c0.2-0.2,0.5-0.4,0.9-0.4l19-0.1c3.3,0,5.8-2.6,5.8-5.8l-0.1-16.9C164.2,26.6,163.4,25.8,162.3,25.8z M170.3,9.5
	c-0.8-0.8-2-0.8-2.7,0l-29,29.4c-0.2,0.2-0.6,0.2-0.9,0l-13-13c-0.8-0.8-2-0.8-2.7,0c-0.8,0.8-0.8,2,0,2.7l13.5,13.5
	c0.8,0.8,1.8,1.1,2.7,1.1c1,0,2-0.4,2.7-1.2l29.5-29.8C171.1,11.5,171.1,10.2,170.3,9.5z M95,36.7l-6.7,3.9
	c-1.2,0.7-2.7-0.2-2.7-1.6v-7.8c0-1.4,1.6-2.3,2.7-1.6l6.7,3.9C96.1,34.2,96.1,36,95,36.7z"/>
<linearGradient id="SVGID_2_" gradientUnits="userSpaceOnUse" x1="9.6516" y1="36.8" x2="85.4544" y2="36.8" gradientTransform="matrix(1 0 0 -1 0 72)">
	<stop  offset="0" style="stop-color:#765FFB"/>
	<stop  offset="1" style="stop-color:#7759FC"/>
</linearGradient>
<path class="st3" d="M1.9,37.1h86.4c1.1,0,1.9-0.9,1.9-1.9s-0.9-1.9-1.9-1.9H1.9c-1.1,0-1.9,0.9-1.9,1.9S0.8,37.1,1.9,37.1z"/>
</svg>
