<svg width="990" height="390" viewBox="0 0 990 390" fill="none" xmlns="http://www.w3.org/2000/svg">
<g filter="url(#filter0_d)">
<path d="M497.45 190.85H699.493C706.031 190.85 711.245 195.878 711.245 202.066V247.784C711.245 253.972 705.953 259.001 699.493 259.001H497.45C490.913 259.001 485.698 253.972 485.698 247.784V202.066C485.698 195.878 490.991 190.85 497.45 190.85Z" fill="#F8F8F8"/>
</g>
<path d="M819.599 128.149H815.248V130.946H819.599V128.149Z" fill="#13AB4B" fill-opacity="0.8"/>
<path d="M827.444 128.149H823.094V130.946H827.444V128.149Z" fill="#13AB4B" fill-opacity="0.8"/>
<path d="M835.292 128.149H830.941V130.946H835.292V128.149Z" fill="#13AB4B" fill-opacity="0.8"/>
<path d="M795.981 128.149H791.631V130.946H795.981V128.149Z" fill="#13AB4B" fill-opacity="0.8"/>
<path d="M803.905 128.149H799.555V130.946H803.905V128.149Z" fill="#13AB4B" fill-opacity="0.8"/>
<path d="M811.674 128.149H807.323V130.946H811.674V128.149Z" fill="#13AB4B" fill-opacity="0.8"/>
<path d="M772.441 128.149H768.091V130.946H772.441V128.149Z" fill="#13AB4B" fill-opacity="0.8"/>
<path d="M780.288 128.149H775.938V130.946H780.288V128.149Z" fill="#13AB4B" fill-opacity="0.8"/>
<path d="M788.135 128.149H783.784V130.946H788.135V128.149Z" fill="#13AB4B" fill-opacity="0.8"/>
<path d="M748.825 128.149H744.475V130.946H748.825V128.149Z" fill="#13AB4B" fill-opacity="0.8"/>
<path d="M756.672 128.149H752.321V130.946H756.672V128.149Z" fill="#13AB4B" fill-opacity="0.8"/>
<path d="M764.518 128.149H760.167V130.946H764.518V128.149Z" fill="#13AB4B" fill-opacity="0.8"/>
<path fill-rule="evenodd" clip-rule="evenodd" d="M725.206 130.946V128.149H722.254C721.477 128.149 720.855 128.771 720.855 129.548C720.855 130.324 721.477 130.946 722.254 130.946H725.206V130.946Z" fill="#13AB4B" fill-opacity="0.8"/>
<path d="M733.054 128.149H728.703V130.946H733.054V128.149Z" fill="#13AB4B" fill-opacity="0.8"/>
<path d="M740.899 128.149H736.549V130.946H740.899V128.149Z" fill="#13AB4B" fill-opacity="0.8"/>
<path d="M470.36 132H354.64C353.703 132 353 131.143 353 130C353 128.857 353.703 128 354.64 128H470.36C471.297 128 472 128.857 472 130C472 131.143 471.297 132 470.36 132Z" fill="#EFEBF5"/>
<path d="M402.512 132H354.645C353.705 132 353 131.302 353 130.372C353 129.442 353.705 128.744 354.645 128.744H402.512C409.014 128.744 414.263 123.55 414.263 117.116V46.8837C414.263 38.6667 421 32 429.304 32H470.355C471.295 32 472 32.6977 472 33.6279C472 34.5581 471.295 35.2558 470.355 35.2558H429.304C422.802 35.2558 417.553 40.4496 417.553 46.8837V117.116C417.553 125.333 410.816 132 402.512 132Z" fill="#EFEBF5"/>
<path d="M477.372 35.0043L470.027 38.8833C468.661 39.5815 467.038 38.7281 467.038 37.3317V29.5737C467.038 28.1772 468.746 27.3238 470.027 28.0221L477.372 31.9011C478.738 32.5217 478.738 34.3061 477.372 35.0043Z" fill="#EFEBF5"/>
<g filter="url(#filter1_d)">
<path d="M304.061 166.51H256.032C249.818 166.51 244.754 161.446 244.754 155.231V107.203C244.754 100.989 249.818 95.9248 256.032 95.9248H304.061C310.275 95.9248 315.339 100.989 315.339 107.203V155.231C315.339 161.446 310.352 166.51 304.061 166.51Z" fill="#F8F8F8"/>
</g>
<g filter="url(#filter2_d)">
<path d="M497.45 95.9248H699.493C706.031 95.9248 711.245 100.953 711.245 107.141V152.859C711.245 159.048 705.953 164.076 699.493 164.076H497.45C490.913 164.076 485.698 159.048 485.698 152.859V107.141C485.698 100.953 490.991 95.9248 497.45 95.9248Z" fill="#F8F8F8"/>
</g>
<g filter="url(#filter3_d)">
<path d="M62.9884 166.51H14.4079C8.1219 166.51 3 161.446 3 155.231V107.203C3 100.989 8.1219 95.9248 14.4079 95.9248H62.9884C69.2743 95.9248 74.3962 100.989 74.3962 107.203V155.231C74.3962 161.446 69.3519 166.51 62.9884 166.51Z" fill="#F8F8F8"/>
</g>
<g filter="url(#filter4_d)">
<path d="M971.591 164.887H923.011C916.725 164.887 911.604 159.823 911.604 153.608V105.58C911.604 99.3655 916.725 94.3018 923.011 94.3018H971.591C977.877 94.3018 982.999 99.3655 982.999 105.58V153.608C983.076 159.9 977.955 164.887 971.591 164.887Z" fill="#F8F8F8"/>
</g>
<path d="M477.372 128.743L470.027 124.587C468.661 123.839 467.038 124.753 467.038 126.249V134.561C467.038 136.057 468.746 136.972 470.027 136.224L477.372 132.068C478.738 131.32 478.738 129.491 477.372 128.743Z" fill="#EFEBF5"/>
<g filter="url(#filter5_d)">
<path d="M497.45 1H699.493C706.031 1 711.245 6.08803 711.245 12.3502V58.6121C711.245 64.8742 705.953 69.9623 699.493 69.9623H497.45C490.913 69.9623 485.698 64.8742 485.698 58.6121V12.3502C485.698 6.08803 490.991 1 497.45 1Z" fill="#F8F8F8"/>
</g>
<path d="M818.124 128.148H813.385V130.945H818.124V128.148Z" fill="#13AB4B" fill-opacity="0.8"/>
<path d="M826.67 128.148H821.931V130.945H826.67V128.148Z" fill="#13AB4B" fill-opacity="0.8"/>
<path d="M835.136 128.148H830.397V130.945H835.136V128.148Z" fill="#13AB4B" fill-opacity="0.8"/>
<path fill-rule="evenodd" clip-rule="evenodd" d="M792.565 130.945V128.148H787.903L787.748 130.945H792.565Z" fill="#13AB4B" fill-opacity="0.8"/>
<path d="M801.033 128.148H796.294V130.945H801.033V128.148Z" fill="#13AB4B" fill-opacity="0.8"/>
<path d="M809.578 128.148H804.839V130.945H809.578V128.148Z" fill="#13AB4B" fill-opacity="0.8"/>
<path fill-rule="evenodd" clip-rule="evenodd" d="M773.684 117.272L776.48 117.039V112.456H773.684V117.272Z" fill="#13AB4B" fill-opacity="0.8"/>
<path fill-rule="evenodd" clip-rule="evenodd" d="M776.169 125.818L778.422 124.031C777.568 122.944 777.024 121.623 776.713 120.302L773.994 121.312C774.46 122.944 775.237 124.498 776.169 125.818Z" fill="#13AB4B" fill-opacity="0.8"/>
<path fill-rule="evenodd" clip-rule="evenodd" d="M783.628 130.635L784.56 127.916C783.239 127.605 781.918 127.061 780.831 126.284L779.044 128.615C780.442 129.625 781.996 130.324 783.628 130.635Z" fill="#13AB4B" fill-opacity="0.8"/>
<path d="M776.48 86.8191H773.684V91.558H776.48V86.8191Z" fill="#13AB4B" fill-opacity="0.8"/>
<path d="M776.48 95.3645H773.684V100.103H776.48V95.3645Z" fill="#13AB4B" fill-opacity="0.8"/>
<path d="M776.48 103.832H773.684V108.571H776.48V103.832Z" fill="#13AB4B" fill-opacity="0.8"/>
<path d="M776.48 61.1821H773.684V65.9211H776.48V61.1821Z" fill="#13AB4B" fill-opacity="0.8"/>
<path d="M776.48 69.7275H773.684V74.4665H776.48V69.7275Z" fill="#13AB4B" fill-opacity="0.8"/>
<path d="M776.48 78.1953H773.684V82.9342H776.48V78.1953Z" fill="#13AB4B" fill-opacity="0.8"/>
<path fill-rule="evenodd" clip-rule="evenodd" d="M772.985 40.9063L775.549 39.6633C774.85 38.0318 773.918 36.4781 772.597 35.2351L770.577 37.255C771.587 38.2649 772.442 39.5079 772.985 40.9063Z" fill="#13AB4B" fill-opacity="0.8"/>
<path fill-rule="evenodd" clip-rule="evenodd" d="M773.685 48.8302H776.482V46.3443C776.482 45.412 776.482 44.5574 776.404 43.7029L773.607 44.2467C773.685 44.9459 773.607 45.7228 773.607 46.4219V48.8302H773.685Z" fill="#13AB4B" fill-opacity="0.8"/>
<path d="M776.481 52.637H773.685V57.3759H776.481V52.637Z" fill="#13AB4B" fill-opacity="0.8"/>
<path d="M751.389 31.2725H746.65V34.0692H751.389V31.2725Z" fill="#13AB4B" fill-opacity="0.8"/>
<path d="M759.857 31.2725H755.118V34.0692H759.857V31.2725Z" fill="#13AB4B" fill-opacity="0.8"/>
<path fill-rule="evenodd" clip-rule="evenodd" d="M767.703 35.1568L769.18 32.6708C767.626 31.894 765.839 31.3501 764.052 31.2725L763.431 34.0692C764.907 34.1469 766.383 34.5353 767.703 35.1568Z" fill="#13AB4B" fill-opacity="0.8"/>
<path fill-rule="evenodd" clip-rule="evenodd" d="M725.751 34.0694V31.2727H722.41C721.633 31.2727 721.012 31.8942 721.012 32.6711C721.012 33.4479 721.633 34.0694 722.41 34.0694H725.751Z" fill="#13AB4B" fill-opacity="0.8"/>
<path d="M734.298 31.2727H729.559V34.0694H734.298V31.2727Z" fill="#13AB4B" fill-opacity="0.8"/>
<path d="M742.764 31.2727H738.025V34.0694H742.764V31.2727Z" fill="#13AB4B" fill-opacity="0.8"/>
<path d="M408.93 186.365L406.623 188.672L406.898 188.947L409.205 186.639L408.93 186.365Z" fill="#EFEBF5"/>
<g filter="url(#filter6_d)">
<path d="M623.047 380.167H574.415C568.122 380.167 562.995 375.039 562.995 368.747V320.114C562.995 313.822 568.122 308.694 574.415 308.694H623.047C629.34 308.694 634.467 313.822 634.467 320.114V368.747C634.467 375.117 629.418 380.167 623.047 380.167Z" fill="#F8F8F8"/>
</g>
<path d="M33.0352 115.022C33.0352 109.65 28.6098 105.212 23.2527 105.29C17.818 105.368 13.4703 109.727 13.5479 115.099C13.5479 119.849 16.964 123.819 21.467 124.676L21.5447 136.743C17.0416 137.599 13.7032 141.57 13.7032 146.397C13.7032 151.769 18.1286 156.207 23.4856 156.129C28.9203 156.051 33.2681 151.691 33.1905 146.319C33.1905 141.57 29.7744 137.599 25.2713 136.743L25.1937 124.676C29.6967 123.741 33.0352 119.771 33.0352 115.022ZM29.3085 146.319C29.3085 149.589 26.6688 152.314 23.3304 152.314C20.0695 152.314 17.3522 149.667 17.3522 146.319C17.3522 143.049 19.9919 140.324 23.3304 140.324C26.6688 140.402 29.3085 143.049 29.3085 146.319ZM23.3304 121.094C20.0695 121.094 17.3522 118.447 17.3522 115.099C17.3522 111.829 19.9919 109.105 23.3304 109.105C26.6688 109.105 29.3085 111.752 29.3085 115.099C29.3085 118.369 26.5912 121.094 23.3304 121.094ZM56.715 136.977L56.6373 118.759C56.6373 115.567 54.0753 113.075 50.9697 113.075H48.0194V110.35C48.0194 108.871 46.4667 108.015 45.2245 108.715L37.3053 113.387C36.0631 114.165 36.0631 115.878 37.3053 116.656L45.3021 121.25C46.5443 121.951 48.0971 121.094 48.0971 119.615V116.89H51.0474C52.1343 116.89 52.9107 117.746 52.9107 118.759L52.9883 136.977C48.4853 137.833 45.1468 141.804 45.1468 146.631C45.1468 152.002 49.5722 156.44 54.9293 156.362C60.2863 156.362 64.7117 151.925 64.6341 146.553C64.6341 141.726 61.218 137.755 56.715 136.977ZM54.9293 152.547C51.6685 152.547 48.9511 149.9 48.9511 146.553C48.9511 143.283 51.5908 140.558 54.9293 140.558C58.1901 140.558 60.9075 143.205 60.9075 146.553C60.9075 149.823 58.1901 152.547 54.9293 152.547ZM668.726 267.539L672.607 274.234C673.306 275.48 672.452 276.959 671.055 276.959H663.291C661.893 276.959 661.039 275.402 661.738 274.234L665.62 267.539C666.241 266.371 668.027 266.371 668.726 267.539ZM546.988 345.86H537.982C529.442 345.86 522.454 338.854 522.454 330.29V268.162C522.454 267.072 523.308 266.215 524.395 266.215C525.482 266.215 526.336 267.072 526.336 268.162V330.29C526.336 336.751 531.538 341.968 537.982 341.968H546.988C548.075 341.968 548.929 342.824 548.929 343.914C548.929 345.004 548.075 345.86 546.988 345.86ZM653.508 345.938H644.58C643.493 345.938 642.639 345.082 642.639 343.992C642.639 342.902 643.493 342.046 644.58 342.046H653.586C660.03 342.046 665.232 336.829 665.232 330.367V274.935C665.232 273.845 666.086 272.989 667.173 272.989C668.26 272.989 669.114 273.845 669.114 274.935V330.367C669.036 339.009 662.126 345.938 653.508 345.938ZM291.681 109.105H287.877V106.769C287.877 105.523 286.557 104.745 285.47 105.368L278.715 109.338C277.628 109.961 277.628 111.518 278.715 112.141L285.547 116.034C286.634 116.656 287.954 115.878 287.954 114.632V112.297H291.759C295.64 112.297 298.746 115.411 298.746 119.304L298.824 142.426C298.824 146.319 295.718 149.433 291.836 149.433H288.653C287.721 149.433 287.023 150.212 287.023 151.068C287.023 152.002 287.799 152.703 288.653 152.703H291.836C297.426 152.703 302.007 148.11 301.929 142.426L301.852 119.304C301.929 113.62 297.349 109.105 291.681 109.105ZM281.821 149.667L274.989 145.774C273.902 145.151 272.582 145.93 272.582 147.175V149.511H268.7C264.818 149.511 261.712 146.397 261.712 142.504L261.635 119.381C261.635 115.489 264.74 112.374 268.622 112.374H271.805C272.737 112.374 273.436 111.596 273.436 110.74C273.436 109.805 272.659 109.105 271.805 109.105H268.622C263.032 109.105 258.452 113.698 258.529 119.381L258.607 142.504C258.607 148.11 263.188 152.703 268.855 152.625H272.737V154.961C272.737 156.207 274.057 156.985 275.144 156.362L281.898 152.392C282.908 151.847 282.908 150.29 281.821 149.667ZM969.93 120.082C968.843 120.082 967.989 121.016 967.989 122.028L968.067 138.923C968.067 140.013 967.213 140.869 966.126 140.869L945.707 140.947C945.163 140.947 944.698 141.103 944.309 141.492L934.76 151.068C933.906 151.925 932.974 151.613 932.586 151.535C932.353 151.38 931.344 150.913 931.344 149.745V142.893C931.344 141.804 930.412 140.947 929.403 140.947H925.21C924.123 140.947 923.269 140.091 923.269 139.001L923.192 114.321C923.192 113.231 924.046 112.374 925.133 112.374L959.759 112.219C960.846 112.219 961.7 111.285 961.7 110.272C961.7 109.182 960.769 108.326 959.759 108.326L925.133 108.482C921.872 108.482 919.31 111.129 919.31 114.321L919.387 139.001C919.387 142.271 922.027 144.84 925.21 144.84H926.841C927.229 144.84 927.462 145.073 927.462 145.463V149.511C927.462 151.925 928.859 154.105 931.033 155.039C931.81 155.35 932.586 155.506 933.362 155.506C934.837 155.506 936.313 154.883 937.477 153.715L946.017 145.073C946.25 144.84 946.561 144.684 946.949 144.684L965.971 144.606C969.231 144.606 971.793 141.959 971.793 138.767L971.716 121.873C971.793 120.861 971.017 120.082 969.93 120.082ZM977.927 103.81C977.15 103.032 975.908 103.032 975.21 103.81L946.173 133.162C945.94 133.395 945.552 133.395 945.241 133.162L932.198 120.16C931.421 119.381 930.179 119.381 929.48 120.16C928.704 120.938 928.704 122.184 929.48 122.885L942.99 136.354C943.766 137.132 944.775 137.444 945.707 137.444C946.716 137.444 947.725 137.054 948.424 136.276L977.927 106.458C978.703 105.757 978.703 104.511 977.927 103.81ZM228.949 131.994H84.5096C83.4226 131.994 82.5686 131.137 82.5686 130.047C82.5686 128.958 83.4226 128.101 84.5096 128.101H228.949C230.036 128.101 230.89 128.958 230.89 130.047C230.89 131.137 230.036 131.994 228.949 131.994ZM235.859 131.605L229.182 135.497C227.94 136.198 226.464 135.342 226.464 133.94V126.155C226.464 124.753 228.017 123.897 229.182 124.598L235.859 128.49C237.101 129.191 237.101 130.904 235.859 131.605ZM469.738 229.156H429.676C421.136 229.156 414.148 222.149 414.148 213.585V143.672C414.148 137.21 408.947 131.994 402.503 131.994H325.687C324.6 131.994 323.746 131.137 323.746 130.047C323.746 128.958 324.6 128.101 325.687 128.101H402.503C411.043 128.101 418.03 135.108 418.03 143.672V213.585C418.03 220.047 423.232 225.264 429.676 225.264H469.738C470.825 225.264 471.679 226.12 471.679 227.21C471.679 228.222 470.825 229.156 469.738 229.156ZM477.036 228.767L470.359 232.66C469.117 233.361 467.641 232.504 467.641 231.103V223.317C467.641 221.916 469.194 221.059 470.359 221.76L477.036 225.653C478.278 226.276 478.278 228.066 477.036 228.767ZM761.038 228.689H720.976C719.889 228.689 719.035 227.833 719.035 226.743C719.035 225.653 719.889 224.797 720.976 224.797H761.038C767.482 224.797 772.684 219.58 772.684 213.118V141.259C772.684 133.784 778.817 127.634 786.27 127.634L797.683 127.4L797.761 131.293L786.348 131.527C780.991 131.527 776.566 135.887 776.566 141.259V213.118C776.566 221.682 769.656 228.689 761.038 228.689ZM902.558 130.982L895.881 134.874C894.639 135.575 893.164 134.719 893.164 133.317V125.532C893.164 124.131 894.717 123.274 895.881 123.975L902.558 127.868C903.723 128.49 903.723 130.281 902.558 130.982ZM897.357 131.293H797.683V127.4H897.357V131.293ZM554.364 345.471L547.687 349.364C546.445 350.065 544.97 349.208 544.97 347.807V340.021C544.97 338.62 546.522 337.764 547.687 338.464L554.364 342.357C555.528 343.058 555.528 344.77 554.364 345.471ZM627.034 318.767C626.257 318.767 625.636 319.234 625.248 319.857L620.745 328.343C620.201 329.355 620.59 330.601 621.599 331.146C622.608 331.691 623.85 331.302 624.394 330.29L628.975 321.803C629.596 320.402 628.586 318.767 627.034 318.767ZM609.41 338.698C610.419 339.243 611.661 338.853 612.205 337.841L620.823 321.803C621.521 320.48 620.59 318.767 619.037 318.767C618.028 318.767 617.484 319.468 617.251 319.935L608.711 335.895C608.012 336.907 608.4 338.153 609.41 338.698ZM607.469 342.201C606.459 341.656 605.217 342.046 604.674 343.058L600.093 351.544C599.705 352.322 599.782 353.257 600.404 353.879C601.491 355.047 602.966 354.736 603.742 353.412L608.245 345.004C608.789 343.992 608.4 342.746 607.469 342.201ZM605.295 331.146C606.304 331.691 607.546 331.302 608.09 330.29L612.67 321.803C613.369 320.48 612.36 318.767 610.885 318.767C610.108 318.767 609.487 319.234 609.099 319.857L604.596 328.343C603.897 329.433 604.285 330.601 605.295 331.146ZM599.627 346.016L604.208 337.452C604.751 336.44 604.363 335.194 603.354 334.649C602.345 334.104 601.102 334.494 600.559 335.506L595.978 343.992C595.668 344.615 595.668 345.315 595.978 345.938C596.755 347.495 598.851 347.495 599.627 346.016ZM593.416 348.196C592.562 346.717 591.087 345.86 589.379 345.86L571.91 345.938C569.426 345.938 567.873 348.585 569.115 350.765L578.432 367.815C579.208 369.217 580.683 370.151 582.314 370.151L600.171 370.073C602.655 370.073 604.208 367.348 602.966 365.246L593.416 348.196ZM619.658 334.649C618.649 334.104 617.406 334.494 616.863 335.506L605.528 356.76L604.441 358.862C603.897 359.874 604.285 361.12 605.295 361.665C606.304 362.21 607.546 361.821 608.09 360.809L619.736 339.009C619.736 339.009 619.736 338.931 619.813 338.854L620.59 337.374C621.055 336.44 620.59 335.194 619.658 334.649Z" fill="url(#paint0_linear)"/>
<path d="M529.282 219.602C531.31 219.602 532.957 220.381 534.223 221.939C534.353 222.085 534.418 222.255 534.418 222.45C534.418 222.709 534.28 222.937 534.004 223.131C533.858 223.229 533.704 223.277 533.542 223.277C533.298 223.277 533.063 223.156 532.836 222.912C532.349 222.377 531.814 221.979 531.229 221.72C530.645 221.444 529.996 221.306 529.282 221.306C528.39 221.306 527.595 221.525 526.897 221.963C526.199 222.385 525.656 222.985 525.266 223.764C524.893 224.543 524.706 225.419 524.706 226.393C524.706 227.35 524.909 228.218 525.315 228.997C525.72 229.76 526.288 230.36 527.019 230.798C527.749 231.236 528.584 231.455 529.526 231.455C530.824 231.455 531.87 231.107 532.665 230.409C532.876 230.23 533.095 230.141 533.323 230.141C533.517 230.141 533.696 230.206 533.858 230.336C534.085 230.531 534.199 230.75 534.199 230.993C534.199 231.204 534.118 231.382 533.955 231.529C532.787 232.616 531.31 233.159 529.526 233.159C528.26 233.159 527.124 232.867 526.118 232.283C525.112 231.683 524.317 230.871 523.733 229.849C523.165 228.811 522.881 227.659 522.881 226.393C522.881 225.095 523.157 223.935 523.708 222.912C524.26 221.874 525.023 221.062 525.996 220.478C526.97 219.894 528.065 219.602 529.282 219.602Z" fill="#785BFB"/>
<path d="M544.39 219.602C545.672 219.602 546.824 219.894 547.846 220.478C548.868 221.062 549.672 221.874 550.256 222.912C550.856 223.951 551.156 225.111 551.156 226.393C551.156 227.675 550.864 228.835 550.28 229.873C549.696 230.896 548.885 231.699 547.846 232.283C546.824 232.867 545.672 233.159 544.39 233.159C543.108 233.159 541.948 232.867 540.909 232.283C539.887 231.699 539.084 230.896 538.5 229.873C537.916 228.835 537.623 227.675 537.623 226.393C537.623 225.111 537.916 223.951 538.5 222.912C539.084 221.874 539.887 221.062 540.909 220.478C541.948 219.894 543.108 219.602 544.39 219.602ZM544.39 221.306C543.465 221.306 542.621 221.525 541.859 221.963C541.112 222.401 540.52 223.01 540.082 223.789C539.66 224.551 539.449 225.419 539.449 226.393C539.449 227.35 539.66 228.218 540.082 228.997C540.52 229.76 541.112 230.36 541.859 230.798C542.621 231.236 543.465 231.455 544.39 231.455C545.331 231.455 546.175 231.236 546.921 230.798C547.668 230.36 548.252 229.76 548.674 228.997C549.096 228.218 549.306 227.35 549.306 226.393C549.306 225.419 549.096 224.551 548.674 223.789C548.252 223.01 547.668 222.401 546.921 221.963C546.175 221.525 545.331 221.306 544.39 221.306Z" fill="#785BFB"/>
<path d="M567.847 220.43C567.864 220.478 567.872 220.551 567.872 220.649V226.369C567.872 227.634 567.572 228.786 566.971 229.825C566.387 230.863 565.576 231.683 564.537 232.283C563.515 232.867 562.371 233.159 561.105 233.159C559.84 233.159 558.688 232.867 557.649 232.283C556.627 231.683 555.815 230.863 555.215 229.825C554.631 228.786 554.339 227.634 554.339 226.369C554.339 225.103 554.623 223.959 555.191 222.937C555.775 221.898 556.562 221.087 557.552 220.503C558.558 219.902 559.677 219.602 560.911 219.602C561.965 219.602 562.931 219.829 563.807 220.284C564.683 220.722 565.405 221.33 565.973 222.109V214.978C565.973 214.702 566.062 214.475 566.241 214.296C566.419 214.118 566.647 214.028 566.922 214.028C567.198 214.028 567.417 214.118 567.58 214.296C567.758 214.475 567.847 214.702 567.847 214.978V220.43ZM561.105 231.455C562.03 231.455 562.866 231.236 563.612 230.798C564.359 230.344 564.943 229.735 565.365 228.973C565.803 228.194 566.022 227.326 566.022 226.369C566.022 226.093 566.014 225.89 565.998 225.76C565.981 225.728 565.973 225.687 565.973 225.638C565.811 224.373 565.275 223.334 564.367 222.523C563.474 221.712 562.387 221.306 561.105 221.306C560.18 221.306 559.337 221.525 558.574 221.963C557.828 222.401 557.235 223.01 556.797 223.789C556.375 224.551 556.164 225.411 556.164 226.369C556.164 227.326 556.375 228.194 556.797 228.973C557.235 229.735 557.828 230.344 558.574 230.798C559.337 231.236 560.18 231.455 561.105 231.455Z" fill="#785BFB"/>
<path d="M578.168 219.602C579.369 219.602 580.432 219.886 581.357 220.454C582.282 221.006 582.995 221.776 583.498 222.766C584.018 223.756 584.277 224.884 584.277 226.149C584.277 226.409 584.196 226.62 584.034 226.782C583.872 226.928 583.661 227.001 583.401 227.001H573.568C573.698 228.332 574.217 229.411 575.126 230.239C576.034 231.066 577.17 231.48 578.533 231.48C579.117 231.48 579.702 231.382 580.286 231.188C580.886 230.977 581.365 230.717 581.722 230.409C581.933 230.247 582.152 230.165 582.379 230.165C582.557 230.165 582.736 230.23 582.914 230.36C583.125 230.555 583.231 230.774 583.231 231.017C583.231 231.228 583.142 231.415 582.963 231.577C582.428 232.032 581.746 232.413 580.918 232.721C580.091 233.013 579.296 233.159 578.533 233.159C577.235 233.159 576.075 232.875 575.053 232.307C574.03 231.723 573.227 230.92 572.643 229.898C572.075 228.859 571.791 227.691 571.791 226.393C571.791 225.079 572.059 223.91 572.594 222.888C573.146 221.849 573.901 221.046 574.858 220.478C575.832 219.894 576.935 219.602 578.168 219.602ZM578.168 221.282C576.935 221.282 575.913 221.663 575.101 222.425C574.29 223.188 573.795 224.194 573.617 225.444H582.525C582.395 224.194 581.941 223.188 581.162 222.425C580.383 221.663 579.385 221.282 578.168 221.282Z" fill="#785BFB"/>
<path d="M593.606 219.626C595.52 219.626 597.111 220.357 598.376 221.817C598.539 221.995 598.62 222.206 598.62 222.45C598.62 222.807 598.441 223.107 598.084 223.35C597.922 223.464 597.735 223.521 597.524 223.521C597.151 223.521 596.835 223.375 596.575 223.083C596.169 222.645 595.723 222.328 595.236 222.133C594.766 221.922 594.222 221.817 593.606 221.817C592.356 221.817 591.342 222.239 590.563 223.083C589.784 223.91 589.395 225.014 589.395 226.393C589.395 227.269 589.573 228.056 589.93 228.754C590.304 229.435 590.815 229.971 591.464 230.36C592.129 230.75 592.884 230.944 593.727 230.944C594.831 230.944 595.723 230.66 596.405 230.092C596.713 229.865 597.013 229.752 597.305 229.752C597.533 229.752 597.743 229.825 597.938 229.971C598.246 230.23 598.401 230.522 598.401 230.847C598.401 231.09 598.303 231.309 598.109 231.504C596.94 232.591 595.48 233.135 593.727 233.135C592.446 233.135 591.293 232.843 590.271 232.259C589.249 231.675 588.446 230.871 587.862 229.849C587.294 228.811 587.01 227.659 587.01 226.393C587.01 225.095 587.286 223.935 587.837 222.912C588.405 221.874 589.192 221.071 590.198 220.503C591.204 219.919 592.34 219.626 593.606 219.626Z" fill="#785BFB"/>
<path d="M609.173 219.602C610.293 219.602 611.299 219.845 612.191 220.332C613.084 220.819 613.781 221.533 614.284 222.474C614.787 223.399 615.039 224.519 615.039 225.833V231.821C615.039 232.178 614.917 232.478 614.674 232.721C614.447 232.948 614.154 233.062 613.798 233.062C613.441 233.062 613.14 232.948 612.897 232.721C612.67 232.478 612.556 232.178 612.556 231.821V225.833C612.556 224.519 612.199 223.529 611.485 222.864C610.788 222.182 609.855 221.841 608.686 221.841C608.005 221.841 607.38 221.979 606.812 222.255C606.26 222.531 605.822 222.904 605.498 223.375C605.189 223.845 605.035 224.373 605.035 224.957V231.821C605.035 232.178 604.922 232.478 604.694 232.721C604.467 232.948 604.167 233.062 603.794 233.062C603.437 233.062 603.137 232.948 602.893 232.721C602.666 232.478 602.553 232.178 602.553 231.821V215.27C602.553 214.896 602.666 214.596 602.893 214.369C603.137 214.142 603.437 214.028 603.794 214.028C604.167 214.028 604.467 214.142 604.694 214.369C604.922 214.596 605.035 214.896 605.035 215.27V221.233C605.555 220.714 606.171 220.316 606.885 220.04C607.599 219.748 608.362 219.602 609.173 219.602Z" fill="#785BFB"/>
<path d="M631.361 226.174C631.361 226.482 631.256 226.742 631.045 226.953C630.834 227.147 630.566 227.245 630.242 227.245H620.993C621.171 228.381 621.682 229.297 622.526 229.995C623.386 230.693 624.433 231.042 625.666 231.042C626.153 231.042 626.656 230.952 627.175 230.774C627.71 230.595 628.149 230.376 628.489 230.117C628.717 229.938 628.984 229.849 629.293 229.849C629.601 229.849 629.844 229.93 630.023 230.092C630.315 230.336 630.461 230.612 630.461 230.92C630.461 231.212 630.331 231.455 630.071 231.65C629.52 232.088 628.83 232.445 628.003 232.721C627.191 232.997 626.412 233.135 625.666 233.135C624.335 233.135 623.143 232.851 622.088 232.283C621.033 231.699 620.206 230.896 619.605 229.873C619.021 228.851 618.729 227.691 618.729 226.393C618.729 225.095 619.005 223.935 619.557 222.912C620.125 221.874 620.903 221.071 621.893 220.503C622.899 219.919 624.035 219.626 625.301 219.626C626.55 219.626 627.629 219.902 628.538 220.454C629.447 221.006 630.144 221.776 630.631 222.766C631.118 223.756 631.361 224.892 631.361 226.174ZM625.301 221.72C624.116 221.72 623.151 222.044 622.404 222.693C621.674 223.342 621.212 224.21 621.017 225.298H629.122C628.976 224.21 628.57 223.342 627.905 222.693C627.24 222.044 626.372 221.72 625.301 221.72Z" fill="#785BFB"/>
<path d="M640.21 219.626C642.125 219.626 643.715 220.357 644.981 221.817C645.143 221.995 645.224 222.206 645.224 222.45C645.224 222.807 645.046 223.107 644.689 223.35C644.527 223.464 644.34 223.521 644.129 223.521C643.756 223.521 643.439 223.375 643.18 223.083C642.774 222.645 642.328 222.328 641.841 222.133C641.371 221.922 640.827 221.817 640.21 221.817C638.961 221.817 637.947 222.239 637.168 223.083C636.389 223.91 636 225.014 636 226.393C636 227.269 636.178 228.056 636.535 228.754C636.908 229.435 637.419 229.971 638.069 230.36C638.734 230.75 639.488 230.944 640.332 230.944C641.435 230.944 642.328 230.66 643.009 230.092C643.318 229.865 643.618 229.752 643.91 229.752C644.137 229.752 644.348 229.825 644.543 229.971C644.851 230.23 645.005 230.522 645.005 230.847C645.005 231.09 644.908 231.309 644.713 231.504C643.545 232.591 642.085 233.135 640.332 233.135C639.05 233.135 637.898 232.843 636.876 232.259C635.854 231.675 635.05 230.871 634.466 229.849C633.898 228.811 633.614 227.659 633.614 226.393C633.614 225.095 633.89 223.935 634.442 222.912C635.01 221.874 635.797 221.071 636.803 220.503C637.809 219.919 638.945 219.626 640.21 219.626Z" fill="#785BFB"/>
<path d="M659.21 231.285C659.388 231.48 659.477 231.723 659.477 232.015C659.477 232.372 659.331 232.672 659.039 232.916C658.796 233.111 658.536 233.208 658.26 233.208C657.903 233.208 657.611 233.062 657.384 232.77L652.76 227.05L651.543 228.121V231.845C651.543 232.202 651.429 232.494 651.202 232.721C650.991 232.932 650.707 233.038 650.35 233.038C649.993 233.038 649.701 232.932 649.474 232.721C649.263 232.494 649.157 232.202 649.157 231.845V215.221C649.157 214.864 649.263 214.58 649.474 214.369C649.701 214.142 649.993 214.028 650.35 214.028C650.707 214.028 650.991 214.142 651.202 214.369C651.429 214.58 651.543 214.864 651.543 215.221V225.127L657.457 219.845C657.668 219.635 657.92 219.529 658.212 219.529C658.552 219.529 658.828 219.659 659.039 219.919C659.25 220.129 659.356 220.381 659.356 220.673C659.356 221.014 659.226 221.29 658.966 221.501L654.488 225.492L659.21 231.285Z" fill="#785BFB"/>
<path d="M667.931 219.626C668.986 219.626 669.927 219.797 670.755 220.138C671.598 220.478 672.264 220.949 672.751 221.549C672.961 221.809 673.067 222.069 673.067 222.328C673.067 222.604 672.929 222.855 672.653 223.083C672.475 223.212 672.248 223.277 671.972 223.277C671.55 223.277 671.168 223.123 670.828 222.815C670.422 222.442 669.992 222.182 669.538 222.036C669.083 221.874 668.532 221.793 667.883 221.793C667.136 221.793 666.52 221.922 666.033 222.182C665.562 222.425 665.327 222.774 665.327 223.229C665.327 223.553 665.408 223.829 665.57 224.056C665.733 224.267 666.041 224.47 666.495 224.665C666.95 224.843 667.607 225.022 668.467 225.2C670.235 225.557 671.485 226.052 672.215 226.685C672.962 227.318 673.335 228.137 673.335 229.143C673.335 229.89 673.132 230.571 672.726 231.188C672.321 231.788 671.72 232.267 670.925 232.624C670.146 232.965 669.205 233.135 668.102 233.135C666.998 233.135 665.96 232.965 664.986 232.624C664.013 232.283 663.25 231.837 662.698 231.285C662.487 231.074 662.382 230.823 662.382 230.531C662.382 230.141 662.544 229.825 662.869 229.581C663.177 229.354 663.461 229.241 663.721 229.241C664.045 229.241 664.353 229.387 664.645 229.679C664.954 230.019 665.416 230.32 666.033 230.579C666.649 230.823 667.307 230.944 668.004 230.944C668.929 230.944 669.643 230.79 670.146 230.482C670.665 230.174 670.925 229.76 670.925 229.241C670.925 228.738 670.674 228.324 670.171 227.999C669.668 227.659 668.816 227.375 667.615 227.147C664.499 226.547 662.942 225.265 662.942 223.302C662.942 222.507 663.177 221.833 663.648 221.282C664.118 220.73 664.735 220.316 665.497 220.04C666.26 219.764 667.071 219.626 667.931 219.626Z" fill="#785BFB"/>
<g opacity="0.5">
<path d="M558.668 127.047H553.946V125.1H565.751V127.047H561.029V138.925H558.668V127.047Z" fill="#7469FC"/>
<path d="M583.45 136.953V138.925H573.081V125.1H583.182V127.047H575.442V130.942H582.33V132.864H575.442V136.953H583.45Z" fill="#7469FC"/>
<path d="M595.871 139.12C594.8 139.12 593.753 138.974 592.731 138.682C591.725 138.373 590.938 137.968 590.37 137.465L591.295 135.615C591.847 136.069 592.536 136.434 593.364 136.71C594.208 136.986 595.076 137.124 595.968 137.124C597.055 137.124 597.85 136.945 598.353 136.588C598.873 136.231 599.132 135.769 599.132 135.201C599.132 134.763 598.978 134.406 598.67 134.13C598.378 133.854 598.004 133.643 597.55 133.497C597.096 133.351 596.479 133.197 595.7 133.035C594.646 132.808 593.786 132.572 593.12 132.329C592.471 132.085 591.911 131.704 591.441 131.185C590.987 130.649 590.759 129.927 590.759 129.019C590.759 127.785 591.254 126.796 592.244 126.049C593.25 125.287 594.613 124.905 596.333 124.905C597.209 124.905 598.053 125.011 598.864 125.222C599.692 125.416 600.398 125.708 600.982 126.098L600.13 127.996C599.075 127.266 597.785 126.901 596.26 126.901C595.205 126.901 594.418 127.088 593.899 127.461C593.38 127.818 593.12 128.288 593.12 128.873C593.12 129.311 593.266 129.668 593.558 129.944C593.867 130.219 594.248 130.43 594.702 130.576C595.173 130.722 595.798 130.877 596.577 131.039C597.648 131.282 598.499 131.526 599.132 131.769C599.781 131.996 600.333 132.369 600.787 132.889C601.258 133.408 601.493 134.106 601.493 134.982C601.493 136.248 600.99 137.254 599.984 138C598.994 138.746 597.623 139.12 595.871 139.12Z" fill="#7469FC"/>
<path d="M611.849 127.047H607.127V125.1H618.932V127.047H614.21V138.925H611.849V127.047Z" fill="#7469FC"/>
<path d="M630.303 139.12C629.232 139.12 628.185 138.974 627.163 138.682C626.157 138.373 625.37 137.968 624.802 137.465L625.727 135.615C626.279 136.069 626.968 136.434 627.796 136.71C628.64 136.986 629.508 137.124 630.4 137.124C631.487 137.124 632.282 136.945 632.785 136.588C633.305 136.231 633.564 135.769 633.564 135.201C633.564 134.763 633.41 134.406 633.102 134.13C632.81 133.854 632.437 133.643 631.982 133.497C631.528 133.351 630.911 133.197 630.132 133.035C629.078 132.808 628.218 132.572 627.552 132.329C626.903 132.085 626.343 131.704 625.873 131.185C625.419 130.649 625.191 129.927 625.191 129.019C625.191 127.785 625.686 126.796 626.676 126.049C627.682 125.287 629.045 124.905 630.765 124.905C631.641 124.905 632.485 125.011 633.297 125.222C634.124 125.416 634.83 125.708 635.414 126.098L634.562 127.996C633.507 127.266 632.217 126.901 630.692 126.901C629.637 126.901 628.85 127.088 628.331 127.461C627.812 127.818 627.552 128.288 627.552 128.873C627.552 129.311 627.698 129.668 627.99 129.944C628.299 130.219 628.68 130.43 629.134 130.576C629.605 130.722 630.23 130.877 631.009 131.039C632.08 131.282 632.931 131.526 633.564 131.769C634.213 131.996 634.765 132.369 635.219 132.889C635.69 133.408 635.925 134.106 635.925 134.982C635.925 136.248 635.422 137.254 634.416 138C633.426 138.746 632.055 139.12 630.303 139.12Z" fill="#7469FC"/>
</g>
<g opacity="0.5">
<path d="M562.676 36.8195C563.504 37.0467 564.137 37.4524 564.575 38.0365C565.029 38.6207 565.256 39.359 565.256 40.2514C565.256 41.4522 564.786 42.3771 563.845 43.0261C562.92 43.6752 561.565 43.9997 559.78 43.9997H552.965V30.1748H559.391C561.029 30.1748 562.295 30.4993 563.187 31.1484C564.08 31.7812 564.526 32.6493 564.526 33.7527C564.526 34.4667 564.364 35.0833 564.039 35.6025C563.715 36.1218 563.261 36.5274 562.676 36.8195ZM555.326 31.9759V36.1137H559.147C560.104 36.1137 560.843 35.9352 561.362 35.5782C561.897 35.2212 562.165 34.7101 562.165 34.0448C562.165 33.3633 561.906 32.8522 561.386 32.5114C560.867 32.1544 560.121 31.9759 559.147 31.9759H555.326ZM559.658 42.1986C561.8 42.1986 562.871 41.4846 562.871 40.0567C562.871 38.6288 561.8 37.9148 559.658 37.9148H555.326V42.1986H559.658Z" fill="#7469FC"/>
<path d="M579.411 44.1944C577.513 44.1944 576.028 43.659 574.957 42.588C573.886 41.5171 573.351 40.0161 573.351 38.0852V30.1748H575.712V38.0365C575.712 39.3833 576.028 40.4056 576.661 41.1033C577.294 41.801 578.219 42.1499 579.436 42.1499C580.636 42.1499 581.553 41.801 582.186 41.1033C582.835 40.4056 583.159 39.3833 583.159 38.0365V30.1748H585.472V38.0852C585.472 40.0161 584.936 41.5171 583.865 42.588C582.794 43.659 581.31 44.1944 579.411 44.1944Z" fill="#7469FC"/>
<path d="M594.908 30.1748H597.269V43.9997H594.908V30.1748Z" fill="#7469FC"/>
<path d="M606.835 30.1748H609.196V42.0282H616.62V43.9997H606.835V30.1748Z" fill="#7469FC"/>
<path d="M624.039 30.1748H630.051C631.593 30.1748 632.94 30.4588 634.092 31.0267C635.244 31.5946 636.128 32.4059 636.745 33.4607C637.378 34.4991 637.694 35.708 637.694 37.0873C637.694 38.4665 637.378 39.6835 636.745 40.7382C636.128 41.7767 635.244 42.5799 634.092 43.1478C632.94 43.7157 631.593 43.9997 630.051 43.9997H624.039V30.1748ZM629.954 42.0282C631.641 42.0282 632.956 41.5901 633.897 40.7139C634.838 39.8214 635.309 38.6125 635.309 37.0873C635.309 35.5457 634.838 34.3369 633.897 33.4607C632.956 32.5682 631.641 32.122 629.954 32.122H626.4V42.0282H629.954Z" fill="#7469FC"/>
</g>
<defs>
<filter id="filter0_d" x="482.698" y="189.85" width="235.547" height="78.1509" filterUnits="userSpaceOnUse" color-interpolation-filters="sRGB">
<feFlood flood-opacity="0" result="BackgroundImageFix"/>
<feColorMatrix in="SourceAlpha" type="matrix" values="0 0 0 0 0 0 0 0 0 0 0 0 0 0 0 0 0 0 127 0"/>
<feOffset dx="2" dy="4"/>
<feGaussianBlur stdDeviation="2.5"/>
<feColorMatrix type="matrix" values="0 0 0 0 0.447059 0 0 0 0 0.45098 0 0 0 0 0.992157 0 0 0 0.2 0"/>
<feBlend mode="normal" in2="BackgroundImageFix" result="effect1_dropShadow"/>
<feBlend mode="normal" in="SourceGraphic" in2="effect1_dropShadow" result="shape"/>
</filter>
<filter id="filter1_d" x="241.754" y="94.9248" width="80.5849" height="80.5849" filterUnits="userSpaceOnUse" color-interpolation-filters="sRGB">
<feFlood flood-opacity="0" result="BackgroundImageFix"/>
<feColorMatrix in="SourceAlpha" type="matrix" values="0 0 0 0 0 0 0 0 0 0 0 0 0 0 0 0 0 0 127 0"/>
<feOffset dx="2" dy="4"/>
<feGaussianBlur stdDeviation="2.5"/>
<feColorMatrix type="matrix" values="0 0 0 0 0.447059 0 0 0 0 0.45098 0 0 0 0 0.992157 0 0 0 0.2 0"/>
<feBlend mode="normal" in2="BackgroundImageFix" result="effect1_dropShadow"/>
<feBlend mode="normal" in="SourceGraphic" in2="effect1_dropShadow" result="shape"/>
</filter>
<filter id="filter2_d" x="482.698" y="94.9248" width="235.547" height="78.1509" filterUnits="userSpaceOnUse" color-interpolation-filters="sRGB">
<feFlood flood-opacity="0" result="BackgroundImageFix"/>
<feColorMatrix in="SourceAlpha" type="matrix" values="0 0 0 0 0 0 0 0 0 0 0 0 0 0 0 0 0 0 127 0"/>
<feOffset dx="2" dy="4"/>
<feGaussianBlur stdDeviation="2.5"/>
<feColorMatrix type="matrix" values="0 0 0 0 0.447059 0 0 0 0 0.45098 0 0 0 0 0.992157 0 0 0 0.2 0"/>
<feBlend mode="normal" in2="BackgroundImageFix" result="effect1_dropShadow"/>
<feBlend mode="normal" in="SourceGraphic" in2="effect1_dropShadow" result="shape"/>
</filter>
<filter id="filter3_d" x="0" y="94.9248" width="81.3962" height="80.5849" filterUnits="userSpaceOnUse" color-interpolation-filters="sRGB">
<feFlood flood-opacity="0" result="BackgroundImageFix"/>
<feColorMatrix in="SourceAlpha" type="matrix" values="0 0 0 0 0 0 0 0 0 0 0 0 0 0 0 0 0 0 127 0"/>
<feOffset dx="2" dy="4"/>
<feGaussianBlur stdDeviation="2.5"/>
<feColorMatrix type="matrix" values="0 0 0 0 0.447059 0 0 0 0 0.45098 0 0 0 0 0.992157 0 0 0 0.2 0"/>
<feBlend mode="normal" in2="BackgroundImageFix" result="effect1_dropShadow"/>
<feBlend mode="normal" in="SourceGraphic" in2="effect1_dropShadow" result="shape"/>
</filter>
<filter id="filter4_d" x="908.604" y="93.3018" width="81.3962" height="80.5849" filterUnits="userSpaceOnUse" color-interpolation-filters="sRGB">
<feFlood flood-opacity="0" result="BackgroundImageFix"/>
<feColorMatrix in="SourceAlpha" type="matrix" values="0 0 0 0 0 0 0 0 0 0 0 0 0 0 0 0 0 0 127 0"/>
<feOffset dx="2" dy="4"/>
<feGaussianBlur stdDeviation="2.5"/>
<feColorMatrix type="matrix" values="0 0 0 0 0.447059 0 0 0 0 0.45098 0 0 0 0 0.992157 0 0 0 0.2 0"/>
<feBlend mode="normal" in2="BackgroundImageFix" result="effect1_dropShadow"/>
<feBlend mode="normal" in="SourceGraphic" in2="effect1_dropShadow" result="shape"/>
</filter>
<filter id="filter5_d" x="482.698" y="0" width="235.547" height="78.9623" filterUnits="userSpaceOnUse" color-interpolation-filters="sRGB">
<feFlood flood-opacity="0" result="BackgroundImageFix"/>
<feColorMatrix in="SourceAlpha" type="matrix" values="0 0 0 0 0 0 0 0 0 0 0 0 0 0 0 0 0 0 127 0"/>
<feOffset dx="2" dy="4"/>
<feGaussianBlur stdDeviation="2.5"/>
<feColorMatrix type="matrix" values="0 0 0 0 0.447059 0 0 0 0 0.45098 0 0 0 0 0.992157 0 0 0 0.2 0"/>
<feBlend mode="normal" in2="BackgroundImageFix" result="effect1_dropShadow"/>
<feBlend mode="normal" in="SourceGraphic" in2="effect1_dropShadow" result="shape"/>
</filter>
<filter id="filter6_d" x="559.995" y="307.694" width="81.4724" height="81.4724" filterUnits="userSpaceOnUse" color-interpolation-filters="sRGB">
<feFlood flood-opacity="0" result="BackgroundImageFix"/>
<feColorMatrix in="SourceAlpha" type="matrix" values="0 0 0 0 0 0 0 0 0 0 0 0 0 0 0 0 0 0 127 0"/>
<feOffset dx="2" dy="4"/>
<feGaussianBlur stdDeviation="2.5"/>
<feColorMatrix type="matrix" values="0 0 0 0 0.447059 0 0 0 0 0.45098 0 0 0 0 0.992157 0 0 0 0.2 0"/>
<feBlend mode="normal" in2="BackgroundImageFix" result="effect1_dropShadow"/>
<feBlend mode="normal" in="SourceGraphic" in2="effect1_dropShadow" result="shape"/>
</filter>
<linearGradient id="paint0_linear" x1="73.4823" y1="236.67" x2="916.501" y2="236.67" gradientUnits="userSpaceOnUse">
<stop stop-color="#6B92FE"/>
<stop offset="1" stop-color="#7858FB"/>
</linearGradient>
</defs>
</svg>
