<?xml version="1.0" encoding="utf-8"?>
<!-- Generator: Adobe Illustrator 23.0.1, SVG Export Plug-In . SVG Version: 6.00 Build 0)  -->
<svg version="1.1" id="Layer_1" xmlns="http://www.w3.org/2000/svg" xmlns:xlink="http://www.w3.org/1999/xlink" x="0px" y="0px"
	 viewBox="0 0 381 71" style="enable-background:new 0 0 381 71;" xml:space="preserve">
<style type="text/css">
	.st0{fill:#F8F8F8;}
	.st1{fill:url(#SVGID_1_);}
	.st2{fill:url(#SVGID_2_);}
</style>
<path class="st0" d="M301.1,70.6h-48c-6.2,0-11.3-5.1-11.3-11.3v-48c0-6.2,5.1-11.3,11.3-11.3h48c6.2,0,11.3,5.1,11.3,11.3v48
	C312.3,65.5,307.4,70.6,301.1,70.6z"/>
<path class="st0" d="M60,70.6H11.4C5.1,70.6,0,65.5,0,59.3v-48C0,5.1,5.1,0,11.4,0H60c6.3,0,11.4,5.1,11.4,11.3v48
	C71.4,65.5,66.4,70.6,60,70.6z"/>
<linearGradient id="SVGID_1_" gradientUnits="userSpaceOnUse" x1="28.4585" y1="37.0001" x2="280.398" y2="37.0001" gradientTransform="matrix(1 0 0 -1 0 72)">
	<stop  offset="0" style="stop-color:#6B92FE"/>
	<stop  offset="1" style="stop-color:#6E82FD"/>
</linearGradient>
<path class="st1" d="M30,19.1c0-5.4-4.4-9.8-9.8-9.7c-5.4,0.1-9.8,4.4-9.7,9.8c0,4.8,3.4,8.7,7.9,9.6l0.1,12.1
	c-4.5,0.9-7.8,4.8-7.8,9.7c0,5.4,4.4,9.8,9.8,9.7s9.8-4.4,9.7-9.8c0-4.7-3.4-8.7-7.9-9.6l-0.1-12.1C26.7,27.8,30,23.9,30,19.1z
	 M26.3,50.4c0,3.3-2.6,6-6,6c-3.3,0-6-2.6-6-6c0-3.3,2.6-6,6-6C23.7,44.5,26.3,47.1,26.3,50.4z M20.3,25.2c-3.3,0-6-2.6-6-6
	c0-3.3,2.6-6,6-6c3.3,0,6,2.6,6,6C26.3,22.5,23.6,25.2,20.3,25.2z M53.7,41.1l-0.1-18.2c0-3.2-2.6-5.7-5.7-5.7h-3v-2.7
	c0-1.5-1.6-2.3-2.8-1.6l-7.9,4.7c-1.2,0.8-1.2,2.5,0,3.3l8,4.6c1.2,0.7,2.8-0.2,2.8-1.6v-2.7h3c1.1,0,1.9,0.9,1.9,1.9l0.1,18
	c-4.5,0.9-7.8,4.8-7.8,9.7c0,5.4,4.4,9.8,9.8,9.7c5.4,0,9.8-4.4,9.7-9.8C61.6,45.8,58.2,41.9,53.7,41.1z M51.9,56.6
	c-3.3,0-6-2.6-6-6c0-3.3,2.6-6,6-6c3.3,0,6,2.6,6,6C57.9,53.9,55.2,56.6,51.9,56.6z M288.7,13.2h-3.8v-2.3c0-1.2-1.3-2-2.4-1.4
	l-6.8,4c-1.1,0.6-1.1,2.2,0,2.8l6.8,3.9c1.1,0.6,2.4-0.2,2.4-1.4v-2.3h3.8c3.9,0,7,3.1,7,7l0.1,23.1c0,3.9-3.1,7-7,7h-3.2
	c-0.9,0-1.6,0.8-1.6,1.6c0,0.9,0.8,1.6,1.6,1.6h3.2c5.6,0,10.2-4.6,10.1-10.3l-0.1-23.1C298.9,17.7,294.3,13.2,288.7,13.2z
	 M278.8,53.8l-6.8-3.9c-1.1-0.6-2.4,0.2-2.4,1.4v2.3h-3.9c-3.9,0-7-3.1-7-7l-0.1-23.1c0-3.9,3.1-7,7-7h3.2c0.9,0,1.6-0.8,1.6-1.6
	c0-0.9-0.8-1.6-1.6-1.6h-3.2c-5.6,0-10.2,4.6-10.1,10.3l0.1,23.1c0,5.6,4.6,10.2,10.2,10.1h3.9v2.3c0,1.2,1.3,2,2.4,1.4l6.8-4
	C279.9,55.9,279.9,54.4,278.8,53.8z M225.9,36.1H81.5c-1.1,0-1.9-0.9-1.9-1.9c0-1.1,0.9-1.9,1.9-1.9h144.4c1.1,0,1.9,0.9,1.9,1.9
	C227.9,35.2,227,36.1,225.9,36.1z M232.9,35.7l-6.7,3.9c-1.2,0.7-2.7-0.2-2.7-1.6v-7.8c0-1.4,1.6-2.3,2.7-1.6l6.7,3.9
	C234.1,33.3,234.1,35,232.9,35.7z"/>
<linearGradient id="SVGID_2_" gradientUnits="userSpaceOnUse" x1="70.4821" y1="37.8001" x2="379.2613" y2="37.8001" gradientTransform="matrix(1 0 0 -1 0 72)">
	<stop  offset="0" style="stop-color:#6E80FD"/>
	<stop  offset="1" style="stop-color:#6F7CFD"/>
</linearGradient>
<path class="st2" d="M322.4,36.1h56.4c1.1,0,1.9-0.9,1.9-1.9c0-1.1-0.9-1.9-1.9-1.9h-56.4c-1.1,0-1.9,0.9-1.9,1.9
	S321.4,36.1,322.4,36.1z"/>
</svg>
