<svg width="42" height="40" viewBox="0 0 42 40" fill="none" xmlns="http://www.w3.org/2000/svg">
<path fill-rule="evenodd" clip-rule="evenodd" d="M0 20.5068C0 29.5668 5.92766 37.2521 14.1492 39.9637C15.1843 40.1525 15.5615 39.5193 15.5615 38.9755C15.5615 38.4883 15.5438 37.1992 15.5336 35.4884C9.77867 36.7271 8.56443 32.7391 8.56443 32.7391C7.62327 30.3699 6.26678 29.7392 6.26678 29.7392C4.38827 28.4678 6.40904 28.493 6.40904 28.493C8.48569 28.6377 9.57799 30.6066 9.57799 30.6066C11.4235 33.7399 14.421 32.8348 15.5996 32.3098C15.7876 30.9855 16.3223 30.0816 16.9129 29.5693C12.3189 29.0519 7.48864 27.292 7.48864 19.4342C7.48864 17.196 8.29517 15.3643 9.61864 13.9318C9.40526 13.4131 8.69526 11.3272 9.82186 8.50483C9.82186 8.50483 11.5581 7.95346 15.5107 10.6071C17.1606 10.1514 18.9312 9.92482 20.6903 9.91601C22.4481 9.92482 24.2174 10.1514 25.8698 10.6071C29.8199 7.95346 31.5536 8.50483 31.5536 8.50483C32.6828 11.3272 31.9728 13.4131 31.7607 13.9318C33.0867 15.3643 33.8869 17.196 33.8869 19.4342C33.8869 27.3122 29.049 29.0456 24.441 29.5529C25.1827 30.1861 25.8444 31.4374 25.8444 33.3496C25.8444 36.0914 25.819 38.3032 25.819 38.9755C25.819 39.5243 26.1925 40.1626 27.2416 39.9624C35.4567 37.2445 41.3793 29.5642 41.3793 20.5068C41.3793 9.18084 32.115 0 20.6878 0C9.26427 0 0 9.18084 0 20.5068Z" fill="#FFFFFE"/>
</svg>
