<svg width="47" height="18" viewBox="0 0 47 18" fill="none" xmlns="http://www.w3.org/2000/svg">
<g opacity="0.2" clip-path="url(#clip0)">
<path d="M0 0H46.4727V15.4286H23.2364V18H12.9091V15.4286H0V0ZM2.58182 12.8571H7.74545V5.14286H10.3273V12.8571H12.9091V2.57143H2.58182V12.8571ZM15.4909 2.57143V15.4286H20.6545V12.8571H25.8182V2.57143H15.4909ZM20.6545 5.14286H23.2364V10.2857H20.6545V5.14286ZM28.4 2.57143V12.8571H33.5636V5.14286H36.1455V12.8571H38.7273V5.14286H41.3091V12.8571H43.8909V2.57143H28.4Z" fill="#100E0F"/>
<path d="M2.58203 12.8572H7.74567V5.1429H10.3275V12.8572H12.9093V2.57147H2.58203V12.8572Z" fill="white"/>
<path d="M15.491 2.57147V15.4286H20.6546V12.8572H25.8182V2.57147H15.491ZM23.2364 10.2858H20.6546V5.1429H23.2364V10.2858Z" fill="white"/>
<path d="M28.4 2.57147V12.8572H33.5637V5.1429H36.1455V12.8572H38.7273V5.1429H41.3091V12.8572H43.8909V2.57147H28.4Z" fill="white"/>
</g>
<defs>
<clipPath id="clip0">
<rect width="46.4727" height="18" fill="white"/>
</clipPath>
</defs>
</svg>
