<svg width="2560" height="540" viewBox="0 0 2560 540" fill="none" xmlns="http://www.w3.org/2000/svg">
<mask id="mask0" mask-type="alpha" maskUnits="userSpaceOnUse" x="0" y="0" width="2560" height="540">
<rect width="2560" height="540" fill="#F4F4F4"/>
</mask>
<g mask="url(#mask0)">
<path d="M318.691 71.0382L318.687 71.045L318.684 71.0517C308.68 91.0603 283.558 99.5659 261.607 89.4561C241.626 79.441 233.135 54.3398 243.234 32.4034L362.229 -202.034L362.233 -202.041L362.236 -202.048C372.229 -222.034 397.307 -230.543 419.24 -220.486C439.445 -208.63 447.698 -183.43 437.703 -163.433C437.702 -163.431 437.701 -163.429 437.7 -163.427L318.691 71.0382Z" stroke="white" stroke-width="5"/>
<path d="M318.691 71.0382L318.687 71.045L318.684 71.0517C308.68 91.0603 283.558 99.5659 261.607 89.4561C241.626 79.441 233.135 54.3398 243.234 32.4034L362.229 -202.034L362.233 -202.041L362.236 -202.048C372.229 -222.034 397.307 -230.543 419.24 -220.486C439.445 -208.63 447.698 -183.43 437.703 -163.433C437.702 -163.431 437.701 -163.429 437.7 -163.427L318.691 71.0382Z" stroke="white" stroke-width="5"/>
<path d="M32.7005 639.471L32.6972 639.478L32.694 639.484C22.6897 659.493 -2.43211 667.998 -24.3831 657.889C-44.3645 647.873 -52.8545 622.772 -42.7553 600.836L81.5686 355.739L81.5719 355.733L81.5751 355.727C91.5793 335.718 116.701 327.213 138.652 337.323C158.633 347.338 167.124 372.439 157.024 394.376L32.7005 639.471Z" stroke="white" stroke-width="5"/>
<path d="M32.7005 639.471L32.6972 639.478L32.694 639.484C22.6897 659.493 -2.43211 667.998 -24.3831 657.889C-44.3645 647.873 -52.8545 622.772 -42.7553 600.836L81.5686 355.739L81.5719 355.733L81.5751 355.727C91.5793 335.718 116.701 327.213 138.652 337.323C158.633 347.338 167.124 372.439 157.024 394.376L32.7005 639.471Z" stroke="white" stroke-width="5"/>
<path d="M242.038 214.273C242.038 237.418 223.274 256.182 200.129 256.182C176.983 256.182 158.22 237.418 158.22 214.273C158.22 191.127 176.983 172.364 200.129 172.364C223.274 172.364 242.038 191.127 242.038 214.273Z" stroke="white" stroke-width="5"/>
<path d="M242.038 214.273C242.038 237.418 223.274 256.182 200.129 256.182C176.983 256.182 158.22 237.418 158.22 214.273C158.22 191.127 176.983 172.364 200.129 172.364C223.274 172.364 242.038 191.127 242.038 214.273Z" stroke="white" stroke-width="5"/>
<path d="M238.782 -165.273L238.766 -165.243L238.751 -165.213L126.841 56.8319L126.837 56.8391C116.833 76.8476 91.711 85.3532 69.76 75.2435C49.7777 65.2279 41.2878 40.1241 51.3891 18.1868L163.28 -203.819L163.284 -203.826C173.294 -223.845 198.437 -232.349 220.396 -222.214C242.151 -212.173 250.549 -187.125 238.782 -165.273Z" stroke="white" stroke-width="5"/>
<path d="M238.782 -165.273L238.766 -165.243L238.751 -165.213L126.841 56.8319L126.837 56.8391C116.833 76.8476 91.711 85.3532 69.76 75.2435C49.7777 65.2279 41.2878 40.1241 51.3891 18.1868L163.28 -203.819L163.284 -203.826C173.294 -223.845 198.437 -232.349 220.396 -222.214C242.151 -212.173 250.549 -187.125 238.782 -165.273Z" stroke="white" stroke-width="5"/>
<path d="M-66.7766 438.739L-66.7802 438.746L-66.7838 438.753C-76.788 458.761 -101.91 467.267 -123.861 457.157C-143.842 447.142 -152.332 422.041 -142.233 400.104L-28.5681 176.326L-28.5645 176.319L-28.5609 176.312C-18.5679 156.326 6.50963 147.817 28.4432 157.873C48.6479 169.729 56.9003 194.928 46.9062 214.925C46.9052 214.927 46.9041 214.93 46.903 214.932L-66.7766 438.739Z" stroke="white" stroke-width="5"/>
<path d="M-66.7766 438.739L-66.7802 438.746L-66.7838 438.753C-76.788 458.761 -101.91 467.267 -123.861 457.157C-143.842 447.142 -152.332 422.041 -142.233 400.104L-28.5681 176.326L-28.5645 176.319L-28.5609 176.312C-18.5679 156.326 6.50963 147.817 28.4432 157.873C48.6479 169.729 56.9003 194.928 46.9062 214.925C46.9052 214.927 46.9041 214.93 46.903 214.932L-66.7766 438.739Z" stroke="white" stroke-width="5"/>
<path d="M132.172 836.654L132.167 836.664C122.163 856.672 97.0419 865.177 75.091 855.068C55.1087 845.053 46.6184 819.951 56.7187 798.014L481.247 -40.3859L481.253 -40.3973C491.257 -60.4056 516.379 -68.9113 538.33 -58.8019C558.384 -48.7507 566.75 -23.6281 556.72 -3.55929C556.719 -3.55727 556.718 -3.55525 556.717 -3.55323L132.172 836.654Z" stroke="white" stroke-width="5"/>
<path d="M132.172 836.654L132.167 836.664C122.163 856.672 97.0419 865.177 75.091 855.068C55.1087 845.053 46.6184 819.951 56.7187 798.014L481.247 -40.3859L481.253 -40.3973C491.257 -60.4056 516.379 -68.9113 538.33 -58.8019C558.384 -48.7507 566.75 -23.6281 556.72 -3.55929C556.719 -3.55727 556.718 -3.55525 556.717 -3.55323L132.172 836.654Z" stroke="white" stroke-width="5"/>
<path d="M663.036 171.643C663.036 194.789 644.272 213.552 621.127 213.552C597.981 213.552 579.218 194.789 579.218 171.643C579.218 148.497 597.981 129.734 621.127 129.734C644.272 129.734 663.036 148.497 663.036 171.643Z" stroke="white" stroke-width="5"/>
<path d="M663.036 171.643C663.036 194.789 644.272 213.552 621.127 213.552C597.981 213.552 579.218 194.789 579.218 171.643C579.218 148.497 597.981 129.734 621.127 129.734C644.272 129.734 663.036 148.497 663.036 171.643Z" stroke="white" stroke-width="5"/>
<path d="M487.442 529.342L487.438 529.351C477.434 549.36 452.312 557.865 430.361 547.755C410.379 537.739 401.889 512.637 411.99 490.7L502.565 311.327L502.569 311.318C512.573 291.31 537.694 282.805 559.645 292.914C579.628 302.93 588.118 328.033 578.017 349.97L487.442 529.342Z" stroke="white" stroke-width="5"/>
<path d="M487.442 529.342L487.438 529.351C477.434 549.36 452.312 557.865 430.361 547.755C410.379 537.739 401.889 512.637 411.99 490.7L502.565 311.327L502.569 311.318C512.573 291.31 537.694 282.805 559.645 292.914C579.628 302.93 588.118 328.033 578.017 349.97L487.442 529.342Z" stroke="white" stroke-width="5"/>
<path d="M837.455 -165.347L837.419 -165.286L837.387 -165.222L737.911 30.1775L737.907 30.1855L737.903 30.1937C727.899 50.202 702.777 58.7076 680.826 48.5984C660.845 38.5838 652.355 13.4825 662.453 -8.45403L761.906 -203.81L761.91 -203.818L761.914 -203.826C771.913 -223.824 797.015 -232.331 818.958 -222.246C840.932 -210.371 849.068 -185.254 837.455 -165.347Z" stroke="white" stroke-width="5"/>
<path d="M837.455 -165.347L837.419 -165.286L837.387 -165.222L737.911 30.1775L737.907 30.1855L737.903 30.1937C727.899 50.202 702.777 58.7076 680.826 48.5984C660.845 38.5838 652.355 13.4825 662.453 -8.45403L761.906 -203.81L761.91 -203.818L761.914 -203.826C771.913 -223.824 797.015 -232.331 818.958 -222.246C840.932 -210.371 849.068 -185.254 837.455 -165.347Z" stroke="white" stroke-width="5"/>
<path d="M1122.83 73.0138L1122.83 73.0206L1122.82 73.0273C1112.82 93.0359 1087.7 101.541 1065.75 91.4317C1045.77 81.4165 1037.28 56.3151 1047.38 34.3786L1166.37 -200.059L1166.37 -200.065L1166.38 -200.072C1176.37 -220.058 1201.45 -228.567 1223.38 -218.51C1243.59 -206.655 1251.84 -181.454 1241.84 -161.457C1241.84 -161.455 1241.84 -161.453 1241.84 -161.452L1122.83 73.0138Z" stroke="white" stroke-width="5"/>
<path d="M1122.83 73.0138L1122.83 73.0206L1122.82 73.0273C1112.82 93.0359 1087.7 101.541 1065.75 91.4317C1045.77 81.4165 1037.28 56.3151 1047.38 34.3786L1166.37 -200.059L1166.37 -200.065L1166.38 -200.072C1176.37 -220.058 1201.45 -228.567 1223.38 -218.51C1243.59 -206.655 1251.84 -181.454 1241.84 -161.457C1241.84 -161.455 1241.84 -161.453 1241.84 -161.452L1122.83 73.0138Z" stroke="white" stroke-width="5"/>
<path d="M1046.18 216.248C1046.18 239.394 1027.41 258.157 1004.27 258.157C981.123 258.157 962.36 239.394 962.36 216.248C962.36 193.103 981.123 174.339 1004.27 174.339C1027.41 174.339 1046.18 193.103 1046.18 216.248Z" stroke="white" stroke-width="5"/>
<path d="M1046.18 216.248C1046.18 239.394 1027.41 258.157 1004.27 258.157C981.123 258.157 962.36 239.394 962.36 216.248C962.36 193.103 981.123 174.339 1004.27 174.339C1027.41 174.339 1046.18 193.103 1046.18 216.248Z" stroke="white" stroke-width="5"/>
<path d="M841.582 630.38L841.579 630.387L841.575 630.394C831.571 650.402 806.45 658.908 784.499 648.798C764.518 638.783 756.027 613.682 766.126 591.745L885.121 357.308L885.124 357.301L885.128 357.294C895.121 337.308 920.198 328.799 942.132 338.856C962.337 350.711 970.589 375.912 960.594 395.909C960.594 395.911 960.593 395.913 960.592 395.915L841.582 630.38Z" stroke="white" stroke-width="5"/>
<path d="M841.582 630.38L841.579 630.387L841.575 630.394C831.571 650.402 806.45 658.908 784.499 648.798C764.518 638.783 756.027 613.682 766.126 591.745L885.121 357.308L885.124 357.301L885.128 357.294C895.121 337.308 920.198 328.799 942.132 338.856C962.337 350.711 970.589 375.912 960.594 395.909C960.594 395.911 960.593 395.913 960.592 395.915L841.582 630.38Z" stroke="white" stroke-width="5"/>
<path d="M1042.92 -163.297L1042.91 -163.267L1042.89 -163.237L930.981 58.8075L930.977 58.8147C920.973 78.8232 895.851 87.3288 873.9 77.2191C853.918 67.2035 845.428 42.0997 855.53 20.1624L967.421 -201.843L967.424 -201.851C977.434 -221.87 1002.58 -230.373 1024.54 -220.238C1046.29 -210.197 1054.69 -185.149 1042.92 -163.297Z" stroke="white" stroke-width="5"/>
<path d="M1042.92 -163.297L1042.91 -163.267L1042.89 -163.237L930.981 58.8075L930.977 58.8147C920.973 78.8232 895.851 87.3288 873.9 77.2191C853.918 67.2035 845.428 42.0997 855.53 20.1624L967.421 -201.843L967.424 -201.851C977.434 -221.87 1002.58 -230.373 1024.54 -220.238C1046.29 -210.197 1054.69 -185.149 1042.92 -163.297Z" stroke="white" stroke-width="5"/>
<path d="M737.363 440.714L737.36 440.721L737.356 440.728C727.352 460.737 702.23 469.243 680.279 459.133C660.298 449.118 651.808 424.016 661.907 402.08L775.572 178.301L775.576 178.294L775.579 178.287C785.572 158.301 810.65 149.792 832.583 159.849C852.788 171.704 861.04 196.904 851.046 216.901C851.045 216.903 851.044 216.905 851.043 216.907L737.363 440.714Z" stroke="white" stroke-width="5"/>
<path d="M737.363 440.714L737.36 440.721L737.356 440.728C727.352 460.737 702.23 469.243 680.279 459.133C660.298 449.118 651.808 424.016 661.907 402.08L775.572 178.301L775.576 178.294L775.579 178.287C785.572 158.301 810.65 149.792 832.583 159.849C852.788 171.704 861.04 196.904 851.046 216.901C851.045 216.903 851.044 216.905 851.043 216.907L737.363 440.714Z" stroke="white" stroke-width="5"/>
<path d="M657.647 585.521L657.63 585.551L657.615 585.581L545.705 807.626L545.701 807.633C535.697 827.642 510.575 836.147 488.624 826.038C468.642 816.022 460.152 790.918 470.253 768.981L582.145 546.975L582.148 546.968C592.158 526.949 617.301 518.445 639.261 528.58C661.016 538.621 669.413 563.669 657.647 585.521Z" stroke="white" stroke-width="5"/>
<path d="M657.647 585.521L657.63 585.551L657.615 585.581L545.705 807.626L545.701 807.633C535.697 827.642 510.575 836.147 488.624 826.038C468.642 816.022 460.152 790.918 470.253 768.981L582.145 546.975L582.148 546.968C592.158 526.949 617.301 518.445 639.261 528.58C661.016 538.621 669.413 563.669 657.647 585.521Z" stroke="white" stroke-width="5"/>
<path d="M936.312 838.63L936.308 838.639C926.304 858.648 901.182 867.153 879.231 857.044C859.249 847.029 850.759 821.927 860.859 799.989L1285.39 -38.4103L1285.39 -38.4217C1295.4 -58.43 1320.52 -66.9357 1342.47 -56.8263C1362.52 -46.7751 1370.89 -21.6525 1360.86 -1.58371C1360.86 -1.58169 1360.86 -1.57967 1360.86 -1.57765L936.312 838.63Z" stroke="white" stroke-width="5"/>
<path d="M936.312 838.63L936.308 838.639C926.304 858.648 901.182 867.153 879.231 857.044C859.249 847.029 850.759 821.927 860.859 799.989L1285.39 -38.4103L1285.39 -38.4217C1295.4 -58.43 1320.52 -66.9357 1342.47 -56.8263C1362.52 -46.7751 1370.89 -21.6525 1360.86 -1.58371C1360.86 -1.58169 1360.86 -1.57967 1360.86 -1.57765L936.312 838.63Z" stroke="white" stroke-width="5"/>
<path d="M1467.18 173.618C1467.18 196.764 1448.41 215.527 1425.27 215.527C1402.12 215.527 1383.36 196.764 1383.36 173.618C1383.36 150.473 1402.12 131.709 1425.27 131.709C1448.41 131.709 1467.18 150.473 1467.18 173.618Z" stroke="white" stroke-width="5"/>
<path d="M1467.18 173.618C1467.18 196.764 1448.41 215.527 1425.27 215.527C1402.12 215.527 1383.36 196.764 1383.36 173.618C1383.36 150.473 1402.12 131.709 1425.27 131.709C1448.41 131.709 1467.18 150.473 1467.18 173.618Z" stroke="white" stroke-width="5"/>
<path d="M1291.58 531.318L1291.58 531.327C1281.57 551.335 1256.45 559.84 1234.5 549.731C1214.52 539.715 1206.03 514.612 1216.13 492.675L1306.7 313.303L1306.71 313.294C1316.71 293.286 1341.83 284.78 1363.79 294.89C1383.77 304.905 1392.26 330.008 1382.16 351.945L1291.58 531.318Z" stroke="white" stroke-width="5"/>
<path d="M1291.58 531.318L1291.58 531.327C1281.57 551.335 1256.45 559.84 1234.5 549.731C1214.52 539.715 1206.03 514.612 1216.13 492.675L1306.7 313.303L1306.71 313.294C1316.71 293.286 1341.83 284.78 1363.79 294.89C1383.77 304.905 1392.26 330.008 1382.16 351.945L1291.58 531.318Z" stroke="white" stroke-width="5"/>
<path d="M1641.6 -163.372L1641.56 -163.31L1641.53 -163.246L1542.05 32.153L1542.05 32.1611L1542.04 32.1692C1532.04 52.1778 1506.92 60.6834 1484.97 50.5737C1464.98 40.5588 1456.49 15.4579 1466.59 -6.47845L1566.05 -201.834L1566.05 -201.842L1566.05 -201.851C1576.05 -221.849 1601.15 -230.355 1623.1 -220.27C1645.07 -208.396 1653.21 -183.279 1641.6 -163.372Z" stroke="white" stroke-width="5"/>
<path d="M1641.6 -163.372L1641.56 -163.31L1641.53 -163.246L1542.05 32.153L1542.05 32.1611L1542.04 32.1692C1532.04 52.1778 1506.92 60.6834 1484.97 50.5737C1464.98 40.5588 1456.49 15.4579 1466.59 -6.47845L1566.05 -201.834L1566.05 -201.842L1566.05 -201.851C1576.05 -221.849 1601.15 -230.355 1623.1 -220.27C1645.07 -208.396 1653.21 -183.279 1641.6 -163.372Z" stroke="white" stroke-width="5"/>
<path d="M1926.83 74.0138L1926.83 74.0206L1926.82 74.0273C1916.82 94.0359 1891.7 102.541 1869.75 92.4317C1849.77 82.4165 1841.28 57.3151 1851.38 35.3786L1970.37 -199.059L1970.37 -199.065L1970.38 -199.072C1980.37 -219.058 2005.45 -227.567 2027.38 -217.51C2047.59 -205.655 2055.84 -180.454 2045.84 -160.457C2045.84 -160.455 2045.84 -160.453 2045.84 -160.452L1926.83 74.0138Z" stroke="white" stroke-width="5"/>
<path d="M1926.83 74.0138L1926.83 74.0206L1926.82 74.0273C1916.82 94.0359 1891.7 102.541 1869.75 92.4317C1849.77 82.4165 1841.28 57.3151 1851.38 35.3786L1970.37 -199.059L1970.37 -199.065L1970.38 -199.072C1980.37 -219.058 2005.45 -227.567 2027.38 -217.51C2047.59 -205.655 2055.84 -180.454 2045.84 -160.457C2045.84 -160.455 2045.84 -160.453 2045.84 -160.452L1926.83 74.0138Z" stroke="white" stroke-width="5"/>
<path d="M1850.18 217.248C1850.18 240.394 1831.41 259.157 1808.27 259.157C1785.12 259.157 1766.36 240.394 1766.36 217.248C1766.36 194.103 1785.12 175.339 1808.27 175.339C1831.41 175.339 1850.18 194.103 1850.18 217.248Z" stroke="white" stroke-width="5"/>
<path d="M1850.18 217.248C1850.18 240.394 1831.41 259.157 1808.27 259.157C1785.12 259.157 1766.36 240.394 1766.36 217.248C1766.36 194.103 1785.12 175.339 1808.27 175.339C1831.41 175.339 1850.18 194.103 1850.18 217.248Z" stroke="white" stroke-width="5"/>
<path d="M1645.58 631.38L1645.58 631.387L1645.58 631.394C1635.57 651.402 1610.45 659.908 1588.5 649.798C1568.52 639.783 1560.03 614.681 1570.13 592.745L1689.12 358.308L1689.12 358.301L1689.13 358.294C1699.12 338.308 1724.2 329.799 1746.13 339.856C1766.34 351.711 1774.59 376.912 1764.59 396.909C1764.59 396.911 1764.59 396.913 1764.59 396.915L1645.58 631.38Z" stroke="white" stroke-width="5"/>
<path d="M1645.58 631.38L1645.58 631.387L1645.58 631.394C1635.57 651.402 1610.45 659.908 1588.5 649.798C1568.52 639.783 1560.03 614.681 1570.13 592.745L1689.12 358.308L1689.12 358.301L1689.13 358.294C1699.12 338.308 1724.2 329.799 1746.13 339.856C1766.34 351.711 1774.59 376.912 1764.59 396.909C1764.59 396.911 1764.59 396.913 1764.59 396.915L1645.58 631.38Z" stroke="white" stroke-width="5"/>
<path d="M1846.92 -162.297L1846.91 -162.267L1846.89 -162.237L1734.98 59.8075L1734.98 59.8147C1724.97 79.8232 1699.85 88.3288 1677.9 78.2191C1657.92 68.2035 1649.43 43.0997 1659.53 21.1624L1771.42 -200.843L1771.42 -200.851C1781.43 -220.87 1806.58 -229.373 1828.54 -219.238C1850.29 -209.197 1858.69 -184.149 1846.92 -162.297Z" stroke="white" stroke-width="5"/>
<path d="M1846.92 -162.297L1846.91 -162.267L1846.89 -162.237L1734.98 59.8075L1734.98 59.8147C1724.97 79.8232 1699.85 88.3288 1677.9 78.2191C1657.92 68.2035 1649.43 43.0997 1659.53 21.1624L1771.42 -200.843L1771.42 -200.851C1781.43 -220.87 1806.58 -229.373 1828.54 -219.238C1850.29 -209.197 1858.69 -184.149 1846.92 -162.297Z" stroke="white" stroke-width="5"/>
<path d="M1541.36 441.714L1541.36 441.721L1541.36 441.728C1531.35 461.737 1506.23 470.243 1484.28 460.133C1464.3 450.118 1455.81 425.016 1465.91 403.08L1579.57 179.301L1579.58 179.294L1579.58 179.287C1589.57 159.301 1614.65 150.792 1636.58 160.849C1656.79 172.704 1665.04 197.902 1655.05 217.899C1655.05 217.902 1655.04 217.905 1655.04 217.907L1541.36 441.714Z" stroke="white" stroke-width="5"/>
<path d="M1541.36 441.714L1541.36 441.721L1541.36 441.728C1531.35 461.737 1506.23 470.243 1484.28 460.133C1464.3 450.118 1455.81 425.016 1465.91 403.08L1579.57 179.301L1579.58 179.294L1579.58 179.287C1589.57 159.301 1614.65 150.792 1636.58 160.849C1656.79 172.704 1665.04 197.902 1655.05 217.899C1655.05 217.902 1655.04 217.905 1655.04 217.907L1541.36 441.714Z" stroke="white" stroke-width="5"/>
<path d="M1461.65 586.521L1461.63 586.551L1461.62 586.581L1349.71 808.626L1349.7 808.633C1339.7 828.642 1314.58 837.147 1292.62 827.038C1272.64 817.022 1264.15 791.918 1274.25 769.981L1386.14 547.975L1386.15 547.968C1396.16 527.949 1421.3 519.445 1443.26 529.58C1465.02 539.621 1473.41 564.669 1461.65 586.521Z" stroke="white" stroke-width="5"/>
<path d="M1461.65 586.521L1461.63 586.551L1461.62 586.581L1349.71 808.626L1349.7 808.633C1339.7 828.642 1314.58 837.147 1292.62 827.038C1272.64 817.022 1264.15 791.918 1274.25 769.981L1386.14 547.975L1386.15 547.968C1396.16 527.949 1421.3 519.445 1443.26 529.58C1465.02 539.621 1473.41 564.669 1461.65 586.521Z" stroke="white" stroke-width="5"/>
<path d="M1740.31 839.63L1740.31 839.639C1730.3 859.648 1705.18 868.153 1683.23 858.044C1663.25 848.029 1654.76 822.927 1664.86 800.989L2089.39 -37.4103L2089.39 -37.4217C2099.4 -57.43 2124.52 -65.9357 2146.47 -55.8263C2166.52 -45.7751 2174.89 -20.6525 2164.86 -0.583706C2164.86 -0.581688 2164.86 -0.579666 2164.86 -0.577648L1740.31 839.63Z" stroke="white" stroke-width="5"/>
<path d="M1740.31 839.63L1740.31 839.639C1730.3 859.648 1705.18 868.153 1683.23 858.044C1663.25 848.029 1654.76 822.927 1664.86 800.989L2089.39 -37.4103L2089.39 -37.4217C2099.4 -57.43 2124.52 -65.9357 2146.47 -55.8263C2166.52 -45.7751 2174.89 -20.6525 2164.86 -0.583706C2164.86 -0.581688 2164.86 -0.579666 2164.86 -0.577648L1740.31 839.63Z" stroke="white" stroke-width="5"/>
<path d="M2271.18 174.618C2271.18 197.764 2252.41 216.527 2229.27 216.527C2206.12 216.527 2187.36 197.764 2187.36 174.618C2187.36 151.473 2206.12 132.709 2229.27 132.709C2252.41 132.709 2271.18 151.473 2271.18 174.618Z" stroke="white" stroke-width="5"/>
<path d="M2271.18 174.618C2271.18 197.764 2252.41 216.527 2229.27 216.527C2206.12 216.527 2187.36 197.764 2187.36 174.618C2187.36 151.473 2206.12 132.709 2229.27 132.709C2252.41 132.709 2271.18 151.473 2271.18 174.618Z" stroke="white" stroke-width="5"/>
<path d="M2095.58 532.318L2095.58 532.327C2085.57 552.335 2060.45 560.84 2038.5 550.731C2018.52 540.715 2010.03 515.612 2020.13 493.675L2110.7 314.303L2110.71 314.294C2120.71 294.286 2145.83 285.78 2167.79 295.89C2187.77 305.905 2196.26 331.008 2186.16 352.945L2095.58 532.318Z" stroke="white" stroke-width="5"/>
<path d="M2095.58 532.318L2095.58 532.327C2085.57 552.335 2060.45 560.84 2038.5 550.731C2018.52 540.715 2010.03 515.612 2020.13 493.675L2110.7 314.303L2110.71 314.294C2120.71 294.286 2145.83 285.78 2167.79 295.89C2187.77 305.905 2196.26 331.008 2186.16 352.945L2095.58 532.318Z" stroke="white" stroke-width="5"/>
<path d="M2445.6 -162.372L2445.56 -162.31L2445.53 -162.246L2346.05 33.1531L2346.05 33.1611L2346.04 33.1693C2336.04 53.1776 2310.92 61.6832 2288.97 51.574C2268.98 41.5594 2260.49 16.4581 2270.59 -5.47844L2370.05 -200.834L2370.05 -200.842L2370.05 -200.851C2380.05 -220.849 2405.15 -229.355 2427.1 -219.27C2449.07 -207.396 2457.21 -182.279 2445.6 -162.372Z" stroke="white" stroke-width="5"/>
<path d="M2445.6 -162.372L2445.56 -162.31L2445.53 -162.246L2346.05 33.1531L2346.05 33.1611L2346.04 33.1693C2336.04 53.1776 2310.92 61.6832 2288.97 51.574C2268.98 41.5594 2260.49 16.4581 2270.59 -5.47844L2370.05 -200.834L2370.05 -200.842L2370.05 -200.851C2380.05 -220.849 2405.15 -229.355 2427.1 -219.27C2449.07 -207.396 2457.21 -182.279 2445.6 -162.372Z" stroke="white" stroke-width="5"/>
<path d="M2449.58 633.38L2449.58 633.387L2449.58 633.394C2439.57 653.402 2414.45 661.908 2392.5 651.798C2372.52 641.783 2364.03 616.681 2374.13 594.745L2493.12 360.308L2493.12 360.301L2493.13 360.294C2503.12 340.308 2528.2 331.799 2550.13 341.856C2570.34 353.711 2578.59 378.912 2568.59 398.909C2568.59 398.911 2568.59 398.913 2568.59 398.915L2449.58 633.38Z" stroke="white" stroke-width="5"/>
<path d="M2449.58 633.38L2449.58 633.387L2449.58 633.394C2439.57 653.402 2414.45 661.908 2392.5 651.798C2372.52 641.783 2364.03 616.681 2374.13 594.745L2493.12 360.308L2493.12 360.301L2493.13 360.294C2503.12 340.308 2528.2 331.799 2550.13 341.856C2570.34 353.711 2578.59 378.912 2568.59 398.909C2568.59 398.911 2568.59 398.913 2568.59 398.915L2449.58 633.38Z" stroke="white" stroke-width="5"/>
<path d="M2650.92 -160.297L2650.91 -160.267L2650.89 -160.237L2538.98 61.8075L2538.98 61.8147C2528.97 81.8232 2503.85 90.3288 2481.9 80.2191C2461.92 70.2035 2453.43 45.0997 2463.53 23.1624L2575.42 -198.843L2575.42 -198.851C2585.43 -218.87 2610.58 -227.373 2632.54 -217.238C2654.29 -207.197 2662.69 -182.149 2650.92 -160.297Z" stroke="white" stroke-width="5"/>
<path d="M2650.92 -160.297L2650.91 -160.267L2650.89 -160.237L2538.98 61.8075L2538.98 61.8147C2528.97 81.8232 2503.85 90.3288 2481.9 80.2191C2461.92 70.2035 2453.43 45.0997 2463.53 23.1624L2575.42 -198.843L2575.42 -198.851C2585.43 -218.87 2610.58 -227.373 2632.54 -217.238C2654.29 -207.197 2662.69 -182.149 2650.92 -160.297Z" stroke="white" stroke-width="5"/>
<path d="M2345.36 443.714L2345.36 443.721L2345.36 443.728C2335.35 463.737 2310.23 472.243 2288.28 462.133C2268.3 452.118 2259.81 427.016 2269.91 405.08L2383.57 181.301L2383.58 181.294L2383.58 181.287C2393.57 161.301 2418.65 152.792 2440.58 162.849C2460.79 174.704 2469.04 199.902 2459.05 219.899C2459.05 219.902 2459.04 219.905 2459.04 219.907L2345.36 443.714Z" stroke="white" stroke-width="5"/>
<path d="M2345.36 443.714L2345.36 443.721L2345.36 443.728C2335.35 463.737 2310.23 472.243 2288.28 462.133C2268.3 452.118 2259.81 427.016 2269.91 405.08L2383.57 181.301L2383.58 181.294L2383.58 181.287C2393.57 161.301 2418.65 152.792 2440.58 162.849C2460.79 174.704 2469.04 199.902 2459.05 219.899C2459.05 219.902 2459.04 219.905 2459.04 219.907L2345.36 443.714Z" stroke="white" stroke-width="5"/>
<path d="M2265.65 588.521L2265.63 588.551L2265.62 588.581L2153.71 810.626L2153.7 810.633C2143.7 830.642 2118.58 839.147 2096.62 829.038C2076.64 819.022 2068.15 793.918 2078.25 771.981L2190.14 549.975L2190.15 549.968C2200.16 529.949 2225.3 521.445 2247.26 531.58C2269.02 541.621 2277.41 566.669 2265.65 588.521Z" stroke="white" stroke-width="5"/>
<path d="M2265.65 588.521L2265.63 588.551L2265.62 588.581L2153.71 810.626L2153.7 810.633C2143.7 830.642 2118.58 839.147 2096.62 829.038C2076.64 819.022 2068.15 793.918 2078.25 771.981L2190.14 549.975L2190.15 549.968C2200.16 529.949 2225.3 521.445 2247.26 531.58C2269.02 541.621 2277.41 566.669 2265.65 588.521Z" stroke="white" stroke-width="5"/>
<path d="M2544.31 841.63L2544.31 841.639C2534.3 861.648 2509.18 870.153 2487.23 860.044C2467.25 850.029 2458.76 824.927 2468.86 802.989L2893.39 -35.4103L2893.39 -35.4217C2903.4 -55.43 2928.52 -63.9357 2950.47 -53.8263C2970.52 -43.7751 2978.89 -18.6525 2968.86 1.41629C2968.86 1.41831 2968.86 1.42033 2968.86 1.42235L2544.31 841.63Z" stroke="white" stroke-width="5"/>
<path d="M2544.31 841.63L2544.31 841.639C2534.3 861.648 2509.18 870.153 2487.23 860.044C2467.25 850.029 2458.76 824.927 2468.86 802.989L2893.39 -35.4103L2893.39 -35.4217C2903.4 -55.43 2928.52 -63.9357 2950.47 -53.8263C2970.52 -43.7751 2978.89 -18.6525 2968.86 1.41629C2968.86 1.41831 2968.86 1.42033 2968.86 1.42235L2544.31 841.63Z" stroke="white" stroke-width="5"/>
</g>
</svg>
