<svg width="27" height="21" viewBox="0 0 27 21" fill="none" xmlns="http://www.w3.org/2000/svg">
<path d="M8.77686 20.9999C18.385 20.9999 23.639 12.9214 23.639 5.91624C23.639 5.68678 23.6344 5.45836 23.6242 5.23097C24.6442 4.48266 25.5307 3.54881 26.2298 2.48577C25.2939 2.90799 24.2867 3.19223 23.2301 3.32039C24.3086 2.66406 25.1366 1.62582 25.5271 0.388107C24.5179 0.995338 23.4002 1.43668 22.2102 1.67492C21.257 0.644438 19.8999 0 18.3973 0C15.5126 0 13.1733 2.37414 13.1733 5.30074C13.1733 5.71676 13.2192 6.1214 13.3088 6.50951C8.96732 6.28781 5.11774 4.17827 2.54168 0.970536C2.09307 1.75399 1.8344 2.66406 1.8344 3.63512C1.8344 5.47438 2.75656 7.09814 4.15891 8.048C3.30192 8.02113 2.49687 7.78238 1.79315 7.38496C1.79238 7.40721 1.79238 7.42889 1.79238 7.45266C1.79238 10.0201 3.59292 12.1637 5.98313 12.6495C5.54419 12.771 5.08235 12.8361 4.60573 12.8361C4.26966 12.8361 3.94224 12.8025 3.62398 12.7405C4.289 14.8469 6.21736 16.3797 8.50369 16.4226C6.71587 17.8448 4.46366 18.6919 2.01592 18.6919C1.59481 18.6919 1.17879 18.6676 0.769897 18.6185C3.08168 20.1223 5.8268 20.9999 8.77713 20.9999" fill="black"/>
</svg>
